<svg width="44" height="156" fill="none" xmlns="http://www.w3.org/2000/svg"><path d="M39.007 1.492l.159.055c.33.114.493.355.543.436.065.104.101.201.12.258.04.117.063.237.079.331.032.199.057.458.077.759.041.61.071 1.495.091 2.646.04 2.308.04 5.74 0 10.29-.079 9.101-.316 22.708-.711 40.817l-.358-55.592zm0 0h-.168c-.757 0-2.623-.08-5.635-.245H33.2C29.865 1.082 26.61 1 23.43 1c-4.592 0-8.16.102-10.69.31-1.263.105-2.293.237-3.075.403-.39.083-.742.18-1.04.296-.257.1-.549.243-.786.464l-.906.704-.012.01-.012.01a86.991 86.991 0 01-2.11 1.7l-.04.032-.037.036c-1.043.998-1.87 1.874-2.462 2.62-.564.71-1.019 1.427-1.147 2.092-.18.937-.162 1.84.187 2.624.354.797.994 1.346 1.805 1.673 1.651.832 3.565.534 5.56-.489.419-.167.875-.516 1.314-.896.31-.268.662-.596 1.053-.982-.124 16.516.04 38.72.493 66.61v.004l.238 34.406v.005c.153 12.587.232 23.856.236 33.807l-.592.102-.08.014-.076.027-1.403.484c-.638.192-1.238.494-1.65.991-.436.529-.567 1.165-.46 1.805.152 1.939 1.842 3.127 4.067 3.841 2.31.74 5.641 1.131 9.927 1.215 2.887.165 6.078.081 9.569-.246a30.536 30.536 0 003.874-.254l.02-.003.022-.003c.917-.159 1.646-.231 2.2-.231.662 0 1.343-.215 2.02-.553a6.118 6.118 0 001.867-.854l.023-.016.023-.017c.727-.566 1.291-1.238 1.53-2.041.247-.833.1-1.66-.317-2.421-.912-1.697-2.645-2.515-4.857-2.696.003-9.807.24-23.653.71-41.541v-.001c.159-6.395.317-14.263.475-23.606 0 0 0 0 0 0l.474-23.349-.358-55.594z" fill="#fff" stroke="#fff" stroke-width="2"/></svg>