<svg width="90" height="156" fill="none" xmlns="http://www.w3.org/2000/svg"><path d="M74.501 138.758l-35.066-.233c2.966-4.069 6.184-8.712 9.656-13.925l.002-.004 5.142-7.6.004-.006 5.391-7.852h0l.007-.01c11.303-16.894 18.96-31.22 22.924-42.963l.003-.012.004-.011c4.649-14.961 3.662-28.905-3.01-41.766l-.002-.004C72.53 10.975 61.206 3.258 45.69 1.255l-.064-.008h-.675l-.862-.216-.12-.03h-4.046c-3.99 0-7.901.416-11.73 1.249C16.368 4.586 7.457 10.2 1.568 19.129c-.293.44-.525.936-.563 1.463a1.906 1.906 0 00.566 1.515c.373.373.871.6 1.383.746.521.149 1.139.238 1.833.282 2.385.17 4.443-.078 6.114-.821l.02-.01.02-.01c1.246-.623 3.074-1.342 5.51-2.155l.024-.008.022-.01a59.578 59.578 0 018.683-2.656l.016-.003.015-.004c3.798-.971 6.938-1.442 9.44-1.442 2.512 0 4.278.475 5.43 1.29l.13.091.152.047c8.668 2.683 14.652 8.493 17.986 17.538 1.546 4.976 1.262 11.217-.992 18.792l-.003.009-.002.009c-.801 2.889-2.01 6.199-3.63 9.933a.054.054 0 00-.002.004L49.8 72.56l-.002.003C44.926 83.62 37.85 95.84 28.556 109.229l-.001.002c-2.936 4.247-7.019 9.97-12.248 17.17l-.004.005L3.796 143.84l-.005.007c-1.126 1.598-1.456 3.289-.623 4.903.773 1.497 2.446 2.699 4.712 3.708 1.547.688 3.41 1.279 5.577 1.78l.014.003.015.003c1.661.333 3.043.51 4.12.51h28.202l28.194.246h.009a32.64 32.64 0 004.031-.251c1.846-.169 3.477-.508 4.88-1.032 1.88-.601 3.39-1.425 4.442-2.525 1.07-1.121 1.618-2.483 1.625-4.034.19-3.101-2.059-5.332-5.77-6.852l-.014-.006-.014-.005c-1.378-.518-2.992-.941-4.832-1.276l-.027-.005-.028-.003a30.69 30.69 0 00-3.8-.253H74.5z" fill="#fff" stroke="#fff" stroke-width="2"/></svg>