<svg width="104" height="156" fill="none" xmlns="http://www.w3.org/2000/svg"><path d="M97.604 92.576l-.001-.004c-5.441-16.713-14.13-28.669-26.13-35.726 1.707-3.394 3.829-7.414 6.367-12.061l.002-.005 6.32-11.717.005-.008.004-.008c4.721-9.155 8.154-17.519 10.284-25.086l.006-.023.005-.024c.295-1.28.137-2.49-.576-3.523-.69-1-1.817-1.713-3.219-2.218-2.784-1.005-7.075-1.34-12.758-1.097h-38.16c-9.656.163-17.102.632-22.314 1.414-2.601.391-4.69.866-6.231 1.44-1.474.549-2.704 1.278-3.212 2.35-.208.428-.199.909-.152 1.29.052.416.175.892.348 1.412l.005.017.007.017c.256.687.53 1.274.833 1.73.287.431.686.879 1.245 1.066l.065.022.067.012c5.29.996 14.857 1.482 28.626 1.482h15.595c3.495-.13 6.58-.26 9.25-.39-3.668 5.733-7.94 12.68-12.815 20.84l-6.803 10.977-.001.003-7.05 11.473h0l-.006.01c-1.148 1.921-1.236 3.976-.296 6.052.917 2.025 2.412 3.442 4.457 4.188l.004.002c12.322 4.442 20.788 13.467 25.402 27.205l.002.008c2.724 7.884 4.077 15.338 4.078 22.366-.16 9.253-2.93 15.461-8.067 18.952-5.132 3.435-11.386 4.946-18.824 4.469h-.008l-.008-.001c-6.59-.315-12.954-2.113-19.099-5.407a4.033 4.033 0 00-.66-.527 16.62 16.62 0 00-1.326-.781c-1.079-.583-2.595-1.324-4.54-2.219-1.31-.657-2.93-1.389-4.857-2.196l-2.139-1.193-.044-.025-.047-.021-1.69-.726-.006-.003c-1.572-.701-3.074-.966-4.43-.599-1.385.374-2.429 1.354-3.17 2.744-.81 1.45-1.135 2.915-.829 4.35.305 1.43 1.206 2.672 2.54 3.744l.034.027.036.024c1.006.674 2.41 1.503 4.199 2.482a149.8 149.8 0 007.333 3.928l.009.004.008.004c7.182 3.442 14.449 6.148 21.802 8.118 21.553 6.065 39.448 4.882 53.538-3.774l.008-.005c8.142-5.11 12.214-13.694 12.38-25.487h0v-.015c0-4.636-.577-9.747-1.721-15.329-.819-4.277-2.045-8.952-3.675-14.024z" fill="#fff" stroke="#fff" stroke-width="2"/></svg>