<svg width="94" height="156" fill="none" xmlns="http://www.w3.org/2000/svg"><path d="M89.676 146.196c-.66-.257-1.42-.415-2.267-.49.002-10.09.166-23.723.49-40.902.164-6.692.328-14.282.491-22.768.164-5.393.328-12.904.491-22.532.409-17.466.675-30.63.798-39.49.06-4.43.087-7.788.076-10.073a83.759 83.759 0 00-.043-2.64 13.671 13.671 0 00-.045-.754 3.376 3.376 0 00-.038-.284 1.605 1.605 0 00-.04-.166 1.146 1.146 0 00-.088-.216c-.932-1.849-2.365-3.1-4.278-3.673l-.08-.024-.082-.01-3.89-.486-2.418-.482-.097-.02h-2.751C69.068.544 64.092 1.53 61.609 4.71A6.055 6.055 0 0059.9 8.166l-.01.07v2.024c-.164 11.599-.164 25.154 0 40.664v.002l.479 39.88h-3.694l-5.622.244c-4.578 0-8.752.082-12.522.246-9.388.15-16.598.232-21.631.243 1.003-6.769 2.663-17.4 4.981-31.897h0l.002-.009c2.29-15.187 3.842-24.878 4.655-29.098l.002-.012.002-.013c.648-3.878 1.06-6.826 1.231-8.827 1.465-6.499 2.607-11.953 3.425-16.36.12-.555.075-1.126-.206-1.65-.276-.514-.725-.883-1.23-1.147-.978-.515-2.409-.765-4.159-.849-1.772-.084-3.266.054-4.398.496-1.18.461-2.028 1.286-2.273 2.51h0l-.003.014c-1.303 6.993-2.442 12.428-3.414 16.314-1.319 4.117-2.55 8.959-3.698 14.52l-.001.005-1.472 7.346-.002.01-.002.01-1.225 6.846-2.45 12.225-.002.008-2.696 12.473-.003.014-.002.014C2.156 84.147 1.165 92.528 1 99.618v.023c0 1.444.73 2.649 1.948 3.603 1.193.934 2.902 1.672 5.045 2.259 4.293 1.176 10.65 1.83 19.011 1.994 5.909.163 12.631.163 20.167 0l.018-.001.019-.001 4.17-.244 4.172-.245.01-.001.008-.001a998.34 998.34 0 005.058-.4v19.992c.156 7.772.163 14.425.022 19.961-1.9.433-3.387 1.313-4.286 2.75l-.041.065-.03.071c-.333.774-.392 1.589-.066 2.371.312.746.921 1.333 1.67 1.803a6.47 6.47 0 002.017.864c.69.171 1.331.269 1.916.274 2.026.165 6.145.245 12.312.245 6.696 0 11.076-.081 13.088-.248l.12-.01.113-.038.582-.194h1.055l.211-.105a17.108 17.108 0 001.792-1.02c.875-.493 1.544-1.187 1.795-2.126.246-.923.036-1.885-.422-2.813-.482-1.159-1.506-1.871-2.798-2.25z" fill="#fff" stroke="#fff" stroke-width="2"/></svg>