<svg width="89" height="156" fill="none" xmlns="http://www.w3.org/2000/svg"><path d="M87.514 109.705v-.008c2.11-25.279-4.866-43.778-21.156-55.192-8.523-6.093-19.666-8.95-33.336-8.672l.717-29.52 6.535-.468 6.733-.242h.012l.012-.001c2.763-.164 6.64-.57 11.62-1.216l6.004-.482.042-.004.043-.007 2.86-.48 2.38-.238.048-.005.048-.01c.697-.14 1.975-.223 3.903-.223h.026l.026-.001 4.575-.242h.004c3.63-.167 6.479-1 8.337-2.681l.02-.018.019-.019c.443-.445.76-.988.963-1.602L88 8.221v-.162c0-.707-.237-1.35-.724-1.866-1.233-1.59-3.3-2.748-6.013-3.574-2.758-.84-6.302-1.373-10.603-1.617L70.63 1H58.242l-.062.008-1.867.234h-3.336l-10.598.243H32.242c-8.036.161-15.432.404-22.188.727-2.18.004-4.006.604-5.327 1.93-1.312 1.32-1.986 3.22-2.157 5.54l-.001.02-.001.02a397.281 397.281 0 00-.242 13.594c-.16 6.31-.16 11.82 0 16.528v.003c.242 6.475.666 11.363 1.284 14.63.306 1.623.673 2.92 1.13 3.825.415.824 1.125 1.733 2.258 1.654 9.433-.32 18.217.002 26.353.964l.058.007h.155C44.33 64.128 51.595 68.472 55.57 73.85c4.81 6.55 7.116 15.435 6.8 26.762-.476 11.924-4.108 21.882-10.86 29.93l-.036.043-.03.047c-3.343 5.039-8.172 7.636-14.613 7.793-2.174-.001-4.435-.235-6.783-.707l-2.388-.48c-.319-.08-.59-.143-.807-.187a4.883 4.883 0 00-.434-.07l-.028-.028-.083-.055-1.446-.97-.029-.019-.03-.017-1.67-.959-.018-.01-3.567-2.152c-2.701-1.919-4.43-3.453-5.293-4.608l-.021-.029-.024-.027c-3.305-3.821-6.783-5.524-10.283-4.155l-.013.005-.013.005c-.872.369-1.604.869-2.12 1.537-.526.682-.781 1.481-.781 2.353 0 1.674.936 3.573 2.493 5.632 6.064 8.071 13.935 13.92 23.59 17.54 9.322 3.615 19.21 4.762 29.648 3.452 11.098-1.168 19.19-6.699 24.167-16.536 3.3-6.47 5.486-15.909 6.616-28.235z" fill="#fff" stroke="#fff" stroke-width="2"/></svg>