<svg width="91" height="156" fill="none" xmlns="http://www.w3.org/2000/svg"><path d="M30.63 51.33l-.197-3.926V47.4l-.247-5.195v-.013l-.001-.013c-.329-4.439-.407-7.85-.247-10.255l.001-.012V31.9c.325-7.799 2.583-12.45 6.396-14.506h0l.012-.006c1.342-.747 3.359-1.383 6.114-1.87 2.765-.488 4.749-.542 6.035-.256l.107.024h4.244c2.315.318 4.981 1.177 8.01 2.611 2.419 1.37 4.05 3.238 4.948 5.613.316 1.11.633 2.38.952 3.813l.487 4.15c.186 1.84.956 3.29 2.493 3.99 1.24.797 2.664.963 4.182.583 1.546-.387 2.806-1.261 3.759-2.58 1.144-1.354 1.635-2.937 1.44-4.688v-.003c-1.164-10.163-4.44-17.092-10.13-20.304C59.383 2.737 47.475.327 33.33 1.161h0-.007c-6.21.414-11.172 1.143-14.855 2.202-3.627 1.044-6.243 2.473-7.44 4.47l-.002.003c-5.87 9.91-9.112 22.205-9.777 36.84-.332 5.488-.331 11.957 0 19.402v.008l.988 18.81h0v.01c.165 2.629.33 6.085.494 10.371v.014l.494 9.398v.004c.33 7.265.743 13.873 1.238 19.825.838 12.731 5.207 22.123 13.26 27.958 2.646 1.943 6.11 3.053 10.314 3.4 4.081 1.008 9.599 1.328 16.505 1 11.86-.165 18.021-.247 18.506-.247h.105l.102-.022c3.312-.698 8.799-3.342 16.36-7.785 2.67-1.531 4.652-5.094 6.144-10.24 1.51-5.21 2.588-12.299 3.25-21.236.495-5.795.826-11.918.99-18.37l.001-.012v-.013c0-2.313-.082-4.392-.247-6.232v-2.704l-.002-.026c-.506-9.635-3.984-17.03-10.525-22.027l-.001-.002c-12.466-9.487-24.456-14.31-35.95-14.31h-1.658l-1.66-.238-.07-.01H37.86c-3.092-.134-5.51-.16-7.23-.072zm28.24 84.962l-.007.025-.006.025c-.48 2.242-1.104 3.929-1.84 5.113-.293.441-.535.837-.718 1.182l-.576.577c-2.592 1.875-4.982 2.809-7.184 2.919-2.198.11-4.316-.596-6.38-2.203l-.006-.006-.007-.005c-1.2-.901-2.435-2.201-3.698-3.929l-.457-.915-.027-.056-.035-.052-.494-.742-.016-.024-.016-.022-.71-.948c-1.358-2.287-2.23-5.48-2.553-9.651l-.245-5.406v-5.207l-.002-.033c-.33-5.108-.659-11.043-.988-17.804v-.01l-.494-8.404v-.005c-.165-3.464-.33-6.519-.495-9.162v-.005l-.494-9.394v-.001l-.442-8.62c4.625-.028 9.403.77 14.338 2.406 2.555 1.604 4.524 3.03 5.93 4.278 3.63 3.483 6.664 8.087 9.08 13.846.158 3.069.237 6.459.237 10.17v.025l.002.025.245 4.925v5.437l.001.017c.494 14.503-.172 25.021-1.944 31.634z" fill="#fff" stroke="#fff" stroke-width="2"/></svg>