<svg version="1.1" id="Слой_1" xmlns="http://www.w3.org/2000/svg" x="0" y="0" viewBox="0 0 112 112" xml:space="preserve"><linearGradient id="SVGID_1_" gradientUnits="userSpaceOnUse" x1="56.175" y1="112" x2="56.175" y2="4.015" gradientTransform="matrix(1 0 0 -1 0 114)"><stop offset="0" stop-color="#555"/><stop offset="1" stop-color="#2d2d2d"/></linearGradient><path d="M18.9 20.5C23.9 10 25.4 9 37.6 3.2S93.6 13 96.1 28s-2.3 34.3-4.8 39.3c-2 4-8.2 19.8-14.7 23.3l8.7 10.3-8.7 8-12.7 1.1-2.8-9.3v-7.5L51.4 88l-10.5-6.8s-7.2-6-11.3-10.5c-4.1-4.6-3.5-3.5-9.5-12.8-3.6-5.6-4.2-16.5-4.2-16.5 0-9.2-2-10.4 3-20.9z" fill="url(#SVGID_1_)"/><linearGradient id="SVGID_2_" gradientUnits="userSpaceOnUse" x1="90.141" y1="38.767" x2="21.391" y2="93.767" gradientTransform="matrix(1 0 0 -1 0 114)"><stop offset="0" stop-color="#828282"/><stop offset=".797" stop-color="#e9e9e9"/><stop offset=".99" stop-color="#959595"/></linearGradient><path d="M18.9 20.5C23.9 10 25.4 9 37.6 3.2S93.6 13 96.1 28s-2.3 34.3-4.8 39.3c-2 4-8.2 19.8-14.7 23.3l8.7 10.3-8.7 8-12.7 1.1-2.8-9.3v-7.5L51.4 88l-10.5-6.8s-7.2-6-11.3-10.5c-4.1-4.6-3.5-3.5-9.5-12.8-3.6-5.6-4.2-16.5-4.2-16.5 0-9.2-2-10.4 3-20.9z" fill="none" stroke="url(#SVGID_2_)" stroke-width="3"/></svg>