<svg width="60" height="63" fill="none" xmlns="http://www.w3.org/2000/svg"><path d="M58.44 43.284s1.7 1.675-1.194 3.922C54.352 49.452 39.632 60.86 39.632 60.86s-2.64 3.316-6.764-1.426c-4.123-4.742-28.03-25.67-31.358-36.117-1.338-4.279.254-3.566 3.364-8.308 3.147-4.742 13.274-11.16 15.19-13.298 1.918-2.14 3.51 1.354 6.294 5.455 2.387 3.494 15.19 28.487 32.081 36.117z" fill="#F85"/><path d="M21.295 0c1.7 0 2.966 1.925 4.666 4.6.398.641.832 1.283 1.302 1.96.325.5.832 1.355 1.555 2.532 4.268 7.344 15.733 26.811 30.056 33.264l.181.072.145.143c.072.07.868.89.795 2.174-.108 1.141-.795 2.21-2.134 3.245-2.748 2.175-16.384 12.728-17.505 13.62-.326.32-1.447 1.39-3.183 1.39-1.7 0-3.4-.998-5.064-2.924-.976-1.14-3.182-3.28-5.967-5.954C17.534 45.744 3.139 31.767.535 23.602-.55 20.217.1 19.325 1.728 17.436c.615-.713 1.41-1.605 2.315-3.03 2.134-3.245 7.089-6.989 11.067-10.02 1.917-1.461 3.617-2.745 4.196-3.422C19.92.357 20.572 0 21.296 0zM57.79 44.068c-14.793-6.81-26.403-26.49-30.78-33.942-.65-1.106-1.157-1.997-1.482-2.425-.47-.713-.904-1.355-1.302-2.032-.977-1.533-2.351-3.637-2.93-3.637-.036 0-.18.072-.398.321-.723.82-2.387 2.068-4.484 3.672-3.654 2.781-8.645 6.56-10.598 9.52-.976 1.497-1.844 2.496-2.46 3.209-1.338 1.569-1.555 1.818-.795 4.243C4.947 30.662 19.125 44.46 27.589 52.66c2.82 2.746 5.027 4.885 6.076 6.097 1.23 1.426 2.46 2.21 3.508 2.21 1.013 0 1.664-.748 1.664-.748l.072-.071.109-.072s14.72-11.409 17.614-13.655c.795-.642 1.266-1.248 1.302-1.783 0-.25-.109-.463-.145-.57z" fill="#060709"/><path d="M42.345 43.497s3.617 2.639 1.7 3.922c-1.917 1.32-5.317 3.21-5.317 3.21s-1.7 1.924-5.316-3.21c-3.292-4.635-11.538-11.944-13.925-15.723-.29-.463-.977-.535-1.374-.107-1.447 1.604-2.315 2.638-2.315 2.638s-1.194 1.034-1.194-2.353V18.041s-.723-2.71 2.64-1.712c3.364.999 11.321 5.027 11.321 5.027s2.894.963 0 3.316c-2.893 2.353-2.893 2.389-2.893 2.389-1.628 1.39 14.756 15.046 16.673 16.436z" fill="#fff"/><path d="M15.942 15.117c.47 0 .977.071 1.591.25 3.328.962 10.67 4.67 11.466 5.062.361.143 1.627.713 1.844 1.961.181.999-.361 2.033-1.627 3.102l-2.532 2.104c1.338 2.638 13.672 13.192 16.24 15.081.65.464 2.712 2.104 2.676 3.815 0 .713-.362 1.32-1.013 1.747-1.772 1.213-4.665 2.853-5.28 3.174-.253.213-.76.534-1.555.534-1.592 0-3.328-1.355-5.209-3.993-1.591-2.21-4.376-5.134-7.089-7.95-2.785-2.889-5.425-5.634-6.763-7.63-1.338 1.497-2.134 2.424-2.134 2.46l-.109.106a1.61 1.61 0 01-1.049.393c-1.844 0-1.844-2.639-1.844-3.494V18.112c-.072-.392-.18-1.39.434-2.21.29-.321.904-.785 1.953-.785zm9.078 11.195c.037-.035.145-.142.398-.32l2.496-2.069c.795-.677.94-1.07.904-1.176-.036-.143-.362-.357-.579-.428l-.144-.071c-.073-.036-7.921-3.993-11.14-4.956-.398-.107-.724-.178-1.013-.178-.253 0-.325.035-.325.071-.073.107-.073.428-.037.606l.037.143v13.94c0 .392 0 .713.036.927.398-.463.976-1.105 1.664-1.89a1.934 1.934 0 011.41-.641c.651 0 1.266.32 1.591.855 1.158 1.819 3.798 4.6 6.62 7.488 2.748 2.852 5.605 5.811 7.27 8.165 2.06 2.887 3.218 3.137 3.507 3.137.109 0 .145-.036.181-.036l.109-.178h.144c.037-.036 3.364-1.89 5.245-3.173l.108-.107c.073-.25-.687-1.355-1.844-2.175-.977-.713-5.209-4.207-9.115-7.701-7.993-7.202-8.029-8.557-8.065-9.163.072-.392.217-.785.542-1.07z" fill="#060709"/></svg>