<svg version="1.1" id="Слой_1" xmlns="http://www.w3.org/2000/svg" x="0" y="0" viewBox="0 0 20 20" xml:space="preserve"><path d="M18.9 15.7c-.9-.7-3.3-3.6-4.4-5.1-.2-.3-.5-.6-.7-.9.3-.3.6-.6.7-.8 1.5-2.3 3.4-4 3.4-4s1.2-1 .7-1.4c-.5-.5-1.7-2-1.7-2s-.5-1.1-.9-1c-.4.1-3.5 3.6-3.5 3.6s-1.4 2.3-2.3 2.2C7.7 4.8 4.8 2.2 4.1 1.6c0 0-.5-1.1-1.1-.5-.6.6-1 1.5-2.1 2.2-1.1.7-1 .9-.3 1.6.8.7 3.6 3.1 4.8 4.6.3.5.7.8 1.1 1.2-.1.1-.2.3-.3.4-1.5 2.3-3.4 4-3.4 4s-1.3.9-.8 1.3c.5.5 1.7 2 1.7 2s.5 1.1.9 1.1c.4-.1 3.5-3.6 3.5-3.6s1.4-2.3 2.3-2.2c.9.1 5.7 5.2 5.7 5.2s.5 1.1 1.1.5c.6-.6 1-1.5 2.2-2.2 1.2-.8.3-.8-.5-1.5z" fill="#fff"/></svg>