<svg width="30" height="30" fill="none" xmlns="http://www.w3.org/2000/svg"><mask id="mask0_3012:980" style="mask-type:alpha" maskUnits="userSpaceOnUse" x="0" y="0" width="30" height="30"><circle cx="15" cy="15" r="15" fill="#C4C4C4"/></mask><g mask="url(#mask0_3012:980)"><path d="M10.902-1.052H-9V9.925h19.902V-1.052z" fill="#00237C"/><path d="M-3.535-1.052H-9v3.456L17.67 20.55l6.49-2.752-27.695-18.85z" fill="#fff"/><path d="M-9-.764v2.368l27.012 18.402 1.056-1.664L-9-.764z" fill="#CF142B"/><path d="M39-1.052H19.067V9.925H39V-1.052z" fill="#00237C"/><path d="M33.505-1.052h5.464v3.456L12.3 20.55l-6.49-2.752 27.696-18.85z" fill="#fff"/><path d="M38.97-.764v2.368L11.958 20.006l-1.056-1.664L38.97-.764z" fill="#CF142B"/><path d="M39.001 21.062H19.068v10.977h19.933V21.062z" fill="#00237C"/><path d="M33.505 32.04h5.464v-3.424L12.3 10.438 5.81 13.19l27.696 18.85z" fill="#fff"/><path d="M38.97 31.751v-2.368l-27.012-18.37-1.056 1.632L38.97 31.751z" fill="#CF142B"/><path d="M10.902 21.062H-9v10.977h19.902V21.062z" fill="#00237C"/><path d="M-3.535 32.04H-9v-3.424l26.67-18.178 6.49 2.752-27.695 18.85z" fill="#fff"/><path d="M-9 31.751v-2.368l27.012-18.37 1.056 1.632L-9 31.751z" fill="#CF142B"/><path d="M38.97 9.925H19.099V-1.052h-8.29V9.925H-9v10.913h19.809V32.04h8.29v-11.2h19.87V9.924z" fill="#fff"/><path d="M38.97 12.165H17.329V-1.052h-4.782v13.217H-9v6.433h21.547v13.441h4.782V18.598h21.64v-6.433z" fill="#CF142B"/></g></svg>