<?xml version="1.0" standalone="no"?>
<!DOCTYPE svg PUBLIC "-//W3C//DTD SVG 20010904//EN"
 "http://www.w3.org/TR/2001/REC-SVG-20010904/DTD/svg10.dtd">
<svg version="1.0" xmlns="http://www.w3.org/2000/svg"
 width="700.000000pt" height="700.000000pt" viewBox="0 0 700.000000 700.000000"
 preserveAspectRatio="xMidYMid meet">
<metadata>
Created by potrace 1.14, written by Peter Selinger 2001-2017
</metadata>
<g transform="translate(0.000000,700.000000) scale(0.100000,-0.100000)"
fill="#000000" stroke="none">
<path d="M3148 6995 c-2 -1 -61 -6 -133 -9 -71 -4 -143 -9 -160 -11 -16 -2
-59 -7 -95 -10 -144 -14 -360 -47 -495 -75 -55 -12 -111 -24 -125 -26 -44 -9
-172 -44 -285 -80 -431 -138 -779 -340 -1090 -636 -149 -142 -263 -284 -388
-484 -94 -151 -230 -473 -273 -644 -2 -8 -13 -51 -24 -95 -11 -44 -23 -91 -25
-105 -2 -14 -9 -50 -15 -80 -6 -30 -13 -71 -16 -90 -3 -19 -8 -46 -12 -60 -10
-39 -13 -1170 -3 -1215 5 -22 12 -62 16 -90 3 -27 11 -70 16 -95 6 -25 13 -56
15 -70 3 -14 7 -33 10 -42 3 -10 7 -29 10 -43 21 -117 129 -408 211 -570 52
-101 210 -344 275 -420 77 -92 292 -299 376 -363 206 -157 436 -288 673 -383
99 -39 349 -124 393 -133 12 -3 80 -18 151 -35 72 -16 141 -32 155 -35 14 -2
52 -9 85 -15 70 -12 100 -17 215 -31 159 -20 248 -27 460 -36 l166 -6 2 38 c3
57 11 110 28 189 70 323 260 531 549 601 17 4 35 8 40 10 6 1 30 5 55 8 l45 7
-28 -24 c-60 -53 -146 -195 -182 -299 -27 -80 -28 -84 -40 -158 -4 -25 -9 -54
-12 -65 -6 -28 -6 -253 0 -290 3 -16 8 -50 12 -75 11 -76 53 -235 86 -321 108
-296 532 -516 1139 -594 190 -24 665 -24 830 -1 14 2 50 7 80 11 367 46 633
171 858 403 65 68 141 175 168 239 9 21 21 47 25 58 24 55 72 230 93 340 13
66 15 147 12 465 -2 212 -6 396 -9 410 -3 14 -8 63 -12 110 -3 47 -8 94 -10
105 -2 11 -4 34 -4 51 -1 17 -7 31 -13 32 -7 1 -105 4 -218 6 -156 4 -219 2
-265 -9 -70 -17 -60 -15 -87 -15 l-23 0 0 -423 c-1 -475 -1 -474 -75 -523 -78
-52 -181 -39 -240 30 -47 55 -48 68 -49 476 l0 385 117 88 c140 104 190 147
292 249 135 134 289 357 398 575 46 92 129 296 136 335 2 15 7 31 9 35 3 5 13
44 22 88 9 44 19 89 23 100 3 11 7 250 10 530 4 548 2 576 -49 800 -106 468
-314 849 -642 1177 -85 84 -260 225 -342 275 -11 7 -51 31 -89 54 -220 133
-581 277 -866 345 -8 2 -43 10 -77 18 -34 9 -77 18 -95 21 -18 4 -51 10 -73
15 -39 9 -127 23 -210 35 -22 3 -51 8 -65 10 -14 3 -47 7 -75 10 -27 3 -66 8
-85 10 -47 6 -120 13 -210 20 -41 4 -97 8 -125 11 -55 5 -842 14 -847 9z m549
-1708 c120 -41 200 -92 299 -191 184 -183 293 -415 332 -706 9 -72 9 -319 -1
-394 -26 -188 -108 -406 -210 -555 -43 -63 -154 -178 -216 -224 -71 -52 -179
-101 -271 -121 -392 -88 -794 234 -924 740 -34 134 -41 194 -40 374 0 178 14
276 61 424 109 346 361 611 638 671 93 20 245 12 332 -18z"/>
</g>
</svg>
