<svg width="152" height="48" fill="none" xmlns="http://www.w3.org/2000/svg"><g clip-path="url(#clip0_2743_979)"><path d="M4.189.5h143.622c2.024 0 3.689 1.692 3.689 3.808v39.384c0 2.117-1.665 3.808-3.689 3.808H4.189C2.165 47.5.5 45.809.5 43.692V4.308C.5 2.192 2.165.5 4.189.5z" fill="#221F1F" stroke="#4D4B4B"/><path d="M12.26 9.813c-.304.326-.485.831-.485 1.487v23.387c0 .656.18 1.16.486 1.485l13.057-13.18L12.261 9.813z" fill="#00E3FF"/><path d="M12.337 9.737l-.076.077c.025-.027.06-.04.087-.065l-.011-.012zm.001 26.511l.012-.011c-.028-.025-.064-.037-.09-.065l.078.076z" fill="#00E3FF"/><path d="M34.87 21.467l-5.127-2.94h-.001l-4.424 4.465 4.424 4.468-.1.057.1-.056 5.126-2.94c1.466-.84 1.466-2.214.002-3.054z" fill="#FFE000"/><path d="M25.318 22.992l-13.057 13.18c.025.028.061.04.09.065.488.442 1.237.487 2.086 0l15.207-8.72.099-.058-4.425-4.467z" fill="#FF3A44"/><path d="M25.318 22.994l4.423-4.466.002-.002L14.438 9.75c-.85-.487-1.601-.442-2.089 0-.027.026-.063.038-.088.065l13.057 13.18z" fill="#00F076"/><path d="M64.191 25.123c-2.464 0-4.472 1.89-4.472 4.498 0 2.59 2.008 4.498 4.472 4.498 2.464 0 4.472-1.908 4.472-4.498 0-2.606-2.008-4.498-4.472-4.498zm0 7.224c-1.35 0-2.514-1.125-2.514-2.726 0-1.618 1.164-2.726 2.514-2.726 1.35 0 2.514 1.107 2.514 2.726.002 1.602-1.164 2.726-2.514 2.726zm9.757-7.224c-2.464 0-4.472 1.89-4.472 4.498 0 2.59 2.008 4.498 4.472 4.498 2.464 0 4.472-1.908 4.472-4.498.001-2.606-2.008-4.498-4.472-4.498zm0 7.224c-1.35 0-2.514-1.125-2.514-2.726 0-1.618 1.165-2.726 2.514-2.726 1.35 0 2.514 1.107 2.514 2.726.001 1.602-1.164 2.726-2.514 2.726zm42.604-11.72h-1.954v13.22h1.954v-13.22zm-63.968 5.878v1.907h4.524c-.135 1.073-.49 1.857-1.03 2.402-.658.664-1.688 1.397-3.494 1.397-2.784 0-4.962-2.266-4.962-5.077 0-2.812 2.176-5.078 4.962-5.078 1.503 0 2.6.597 3.41 1.363l1.333-1.345c-1.13-1.09-2.634-1.925-4.743-1.925-3.815 0-7.022 3.135-7.022 6.986 0 3.85 3.208 6.985 7.022 6.985 2.06 0 3.612-.681 4.827-1.959 1.25-1.26 1.638-3.032 1.638-4.463 0-.443-.033-.852-.1-1.193h-6.365zm68.771-1.405c-1.416 0-2.882.63-3.488 2.024l1.736.731c.37-.73 1.061-.97 1.785-.97 1.011 0 2.039.613 2.056 1.7v.137c-.354-.204-1.112-.51-2.038-.51-1.871 0-3.774 1.038-3.774 2.977 0 1.768 1.533 2.908 3.252 2.908 1.314 0 2.038-.596 2.494-1.293h.067v1.02h1.887v-5.069c-.001-2.346-1.737-3.655-3.977-3.655zm-.237 7.245c-.64 0-1.533-.323-1.533-1.122 0-1.02 1.112-1.412 2.072-1.412.859 0 1.264.187 1.786.442-.15 1.224-1.196 2.092-2.325 2.092zm8.848-1.225h-.068l-2.324-5.731h-2.106l3.487 8.01-1.988 4.456h2.038l5.376-12.466h-2.174l-2.241 5.731zm-44.04-4.991h-.068c-.44-.528-1.283-1.005-2.346-1.005-2.228 0-4.27 1.976-4.27 4.514 0 2.522 2.042 4.48 4.27 4.48 1.063 0 1.907-.476 2.346-1.022h.067v.648c0 1.72-.911 2.64-2.38 2.64-1.197 0-1.94-.868-2.244-1.602l-1.704.716c.49 1.193 1.79 2.658 3.95 2.658 2.295 0 4.236-1.363 4.236-4.685v-8.076h-1.857v.734zm-2.246 6.218c-1.35 0-2.481-1.141-2.481-2.709 0-1.584 1.132-2.742 2.48-2.742 1.334 0 2.38 1.159 2.38 2.742.001 1.568-1.045 2.709-2.38 2.709zm25.543-11.72h-4.684v13.22h1.955v-5.01h2.729c2.168 0 4.297-1.583 4.297-4.105 0-2.521-2.129-4.105-4.297-4.105zm.051 6.37h-2.78v-4.531h2.779c1.462 0 2.292 1.222 2.292 2.265 0 1.026-.83 2.267-2.291 2.267zm-18.184-6.37h-1.958v13.22h1.958v-13.22zm8.962 7.358c-.371-1.004-1.502-2.862-3.815-2.862-2.295 0-4.202 1.822-4.202 4.498 0 2.521 1.89 4.498 4.422 4.498 2.042 0 3.224-1.26 3.714-1.993l-1.52-1.022c-.506.75-1.197 1.243-2.194 1.243-.996 0-1.704-.46-2.16-1.363l5.958-2.488-.203-.51zm-6.076 1.5c-.052-1.738 1.332-2.624 2.329-2.624.776 0 1.435.391 1.654.954l-3.983 1.67zM51.721 13.97l.993.254c-.208.822-.583 1.45-1.126 1.884-.538.43-1.198.646-1.98.646-.808 0-1.466-.166-1.974-.496-.505-.334-.89-.816-1.156-1.446a5.22 5.22 0 01-.394-2.029c0-.788.148-1.475.445-2.06.3-.589.725-1.035 1.274-1.338a3.692 3.692 0 011.821-.46c.75 0 1.381.194 1.893.58.511.385.868.927 1.069 1.626l-.977.232c-.174-.55-.427-.952-.757-1.203-.331-.251-.747-.377-1.248-.377-.577 0-1.06.14-1.448.418a2.212 2.212 0 00-.813 1.126 4.534 4.534 0 00-.236 1.45c0 .645.092 1.207.276 1.69.188.478.478.836.87 1.073.392.238.817.357 1.274.357.556 0 1.026-.162 1.412-.486.385-.323.646-.804.782-1.44zm2.098-2.83h.92v2.371c.294 0 .498-.057.614-.17.12-.114.294-.444.522-.992.18-.434.328-.72.44-.857a.84.84 0 01.389-.279c.146-.048.382-.072.706-.072h.184v.77l-.256-.006c-.242 0-.397.036-.465.109-.072.075-.181.3-.328.676-.14.358-.267.606-.383.744-.116.137-.295.263-.538.377.396.106.785.478 1.167 1.115l1.008 1.699h-1.013l-.982-1.7c-.202-.34-.377-.564-.527-.67a.883.883 0 00-.538-.166v2.536h-.92V11.14zm8.369 4.808c-.341.293-.67.5-.988.62a2.8 2.8 0 01-1.013.18c-.596 0-1.055-.146-1.376-.438-.32-.296-.48-.673-.48-1.131a1.537 1.537 0 01.655-1.27c.197-.135.419-.236.664-.305a6.53 6.53 0 01.819-.14c.743-.089 1.29-.196 1.642-.32l.005-.242c0-.379-.087-.646-.26-.8-.236-.21-.586-.316-1.05-.316-.433 0-.753.078-.961.233-.205.151-.357.421-.456.81l-.9-.123c.082-.39.217-.703.404-.94.188-.241.459-.425.814-.553.354-.13.765-.196 1.233-.196.463 0 .84.055 1.13.165.29.11.503.25.64.418.136.166.231.376.286.63.03.159.046.445.046.858v1.239c0 .864.019 1.411.056 1.642.041.227.12.446.236.656h-.962a1.988 1.988 0 01-.184-.677zm-.077-2.075c-.334.137-.836.254-1.504.35-.379.056-.646.118-.803.186a.797.797 0 00-.491.744.8.8 0 00.276.62c.188.165.46.247.818.247.355 0 .67-.077.947-.232.276-.158.479-.373.609-.645.098-.21.148-.52.148-.93v-.34zm1.79-2.732h.921v1.038c0 .447.026.773.077.976.054.2.182.375.383.526.202.149.454.223.758.223.347 0 .798-.094 1.35-.28v-2.483h.92v5.484h-.92v-2.21a5.276 5.276 0 01-1.586.268c-.412 0-.777-.105-1.094-.315-.314-.213-.527-.473-.64-.78a2.916 2.916 0 01-.169-1.012v-1.435zm9.346 4.807c-.34.293-.67.5-.987.62-.314.12-.651.18-1.013.18-.597 0-1.055-.146-1.376-.438-.32-.296-.48-.673-.48-1.131 0-.269.059-.513.178-.733.123-.224.282-.403.476-.537a2.26 2.26 0 01.665-.305c.18-.048.454-.095.819-.14.743-.089 1.29-.196 1.642-.32l.005-.242c0-.379-.087-.646-.261-.8-.235-.21-.585-.316-1.049-.316-.433 0-.754.078-.962.233-.204.151-.356.421-.455.81l-.9-.123c.082-.39.216-.703.404-.94.188-.241.459-.425.813-.553.355-.13.766-.196 1.233-.196.464 0 .84.055 1.13.165.29.11.504.25.64.418.136.166.232.376.287.63.03.159.046.445.046.858v1.239c0 .864.018 1.411.056 1.642.04.227.12.446.235.656h-.962a1.986 1.986 0 01-.184-.677zm-.076-2.075c-.335.137-.836.254-1.504.35-.379.056-.647.118-.803.186a.798.798 0 00-.492.744.8.8 0 00.277.62c.187.165.46.247.818.247.355 0 .67-.077.947-.232.276-.158.479-.373.608-.645.1-.21.149-.52.149-.93v-.34zm1.631-2.732h4.415v.77h-1.75v4.714h-.915V11.91h-1.75v-.77zm5.28 0h.92v2.143h1.167c.76 0 1.345.15 1.755.45.412.295.618.705.618 1.228 0 .458-.172.85-.516 1.177-.341.324-.889.486-1.642.486h-2.302V11.14zm.92 4.72h.967c.584 0 1-.073 1.249-.218.248-.144.373-.37.373-.676a.88.88 0 00-.276-.635c-.184-.186-.592-.279-1.223-.279h-1.09v1.807zm7.48-4.72h2.122c.522 0 .91.045 1.162.134.255.086.474.246.654.48.184.234.276.515.276.842 0 .262-.054.49-.163.687a1.305 1.305 0 01-.481.485c.256.086.467.248.634.486.17.234.256.512.256.836-.034.52-.218.905-.552 1.157-.335.251-.82.377-1.458.377h-2.45V11.14zm.92 2.308h.982c.392 0 .662-.02.809-.062a.853.853 0 00.394-.248.653.653 0 00.173-.454c0-.29-.102-.49-.307-.604-.2-.114-.547-.17-1.038-.17h-1.013v1.538zm0 2.412h1.213c.521 0 .88-.06 1.074-.181.194-.124.297-.336.307-.635a.785.785 0 00-.17-.486.714.714 0 00-.439-.284c-.18-.041-.47-.062-.87-.062h-1.115v1.648z" fill="#fff"/></g><defs><clipPath id="clip0_2743_979"><path fill="#fff" d="M0 0h152v48H0z"/></clipPath></defs></svg>