<svg id="Слой_3" data-name="Слой 3" xmlns="http://www.w3.org/2000/svg" viewBox="0 0 12.26 15.62"><defs><style>.cls-1,.cls-2{fill:#fff;}.cls-2,.cls-3{stroke:#000;}.cls-2,.cls-3,.cls-4{stroke-miterlimit:10;stroke-width:0.28px;}.cls-3,.cls-4{fill:none;}.cls-4{stroke:#1c1c1b;}</style></defs><polygon class="cls-1" points="9.18 4.61 9.86 3.67 10.31 3.99 9.63 4.94 9.18 4.61"/><path d="M9.89,3.86l.23.16-.52.72-.22-.16.51-.72m-.06-.39-.17.23-.51.71L9,4.64l.23.17L9.43,5l.23.17.17-.23.52-.72L10.51,4l-.23-.16-.22-.17-.23-.16Z"/><rect class="cls-2" x="9.39" y="3.26" width="1.51" height="0.76" transform="translate(4.06 -5.26) rotate(35.88)"/><rect class="cls-3" x="5.49" y="1.41" width="1.27" height="3"/><circle class="cls-2" cx="6.13" cy="9.49" r="5.99"/><path class="cls-2" d="M5.42.14H6.84A.87.87,0,0,1,7.7,1V2.68a0,0,0,0,1,0,0H4.56a0,0,0,0,1,0,0V1A.87.87,0,0,1,5.42.14Z"/><line class="cls-3" x1="5.38" y1="2.68" x2="5.38" y2="0.23"/><line class="cls-3" x1="6.13" y1="2.68" x2="6.13" y2="0.23"/><line class="cls-3" x1="6.88" y1="2.68" x2="6.88" y2="0.23"/><line class="cls-4" x1="6.13" y1="9.49" x2="10.15" y2="7.53"/><path class="cls-1" d="M6.13,10.09a.61.61,0,1,1,.61-.6A.61.61,0,0,1,6.13,10.09Z"/><path d="M6.13,9a.47.47,0,1,1-.46.47A.46.46,0,0,1,6.13,9m0-.28a.75.75,0,1,0,.75.75.76.76,0,0,0-.75-.75Z"/></svg>