<svg width="36" height="29" fill="none" xmlns="http://www.w3.org/2000/svg"><path opacity=".1" d="M11.748 13.562c1.399.625 2.49 1.564 3.273 2.815.783 1.25 1.175 2.729 1.175 4.435 0 2.445-.755 4.435-2.266 5.97C12.42 28.261 10.49 29 8.14 29s-4.308-.768-5.874-2.303C.756 25.162 0 23.2 0 20.812c0-1.138.14-2.275.42-3.412.28-1.137.895-2.843 1.846-5.118L7.133 0h8.308l-3.693 13.562zm19.804 0c1.399.625 2.49 1.564 3.273 2.815.783 1.25 1.175 2.729 1.175 4.435 0 2.445-.755 4.435-2.266 5.97-1.51 1.479-3.44 2.218-5.79 2.218s-4.308-.768-5.874-2.303c-1.51-1.535-2.266-3.497-2.266-5.885 0-1.138.14-2.275.42-3.412.28-1.137.895-2.843 1.846-5.118L26.937 0h8.308l-3.693 13.562z" fill="#5A5A5A"/></svg>