<svg xmlns="http://www.w3.org/2000/svg"><symbol viewBox="0 0 66 40" id="arrow" xmlns="http://www.w3.org/2000/svg"><path d="M60.4 0C59-.1 51.5.6 41.2 1.6c-4.6.5-9.3 1-10.1 1C28.9 2.6 11 5 1.2 7.7L0 8.1l.2 1.3c.1.2 2.6 18.9 2.6 26.8 0 .9-.1 1.6-.1 2.1L2.5 40l1.8-.1c15.4-1.1 48.2-4 57.9-4.8 2.2-.2 3.8-2 3.8-4.3v-.4C63.6.4 61.8.2 60.4 0zm-6.3 19.3c-2 2.1-8.1 8.9-10.1 10.9-2.3 2.3-3.2 0-3.2 0s-.1-5.6-1.6-5.9c-1.3-.2-19.5-.1-25.9 0-1.4 0-2.6-1.1-2.7-2.5-.1-1.5.2-3.2 1.8-3.6 2.3-.6 16.9-1 24.3-1.2 1.8-.1 3-1.9 2.4-3.6-.8-2.2-.6-3.5-.4-4.4.3-1.3 9.6 3.6 13.4 5.6 1 .6 1.6 1.1 2 1.6.9.8.8 2.2 0 3.1z"/></symbol><symbol viewBox="0 0 14 20" id="arrow-faq" xmlns="http://www.w3.org/2000/svg"><path fill-rule="evenodd" clip-rule="evenodd" d="M4.242.674c.067.192-.087.034.067.192l.063.024c.358.102.732.077 1.138.064C6.972.941 8.42.79 9.893.747c.106.007.244.026.33-.008.087-.034.068-.074.154-.108.107.007.217-.085.221-.183.004-.099-.098-.204-.204-.211-.083-.065-.103-.105-.197-.141C9.66-.107 9.077.072 8.522.095 7.399.17 6.264.273 5.129.377 4.873.38 4.577.3 4.369.455c-.155.109-.013.03-.084.202-.031-.012-.043.017-.055.046-.02-.04.012-.029.012-.029z"/><path fill-rule="evenodd" clip-rule="evenodd" d="M9.865.637c-.012.029.008.07-.004.098-.024.058-.09.133-.095.231-.028.156-.079.37-.11.625-.073.972-.126 2.519-.12 4.188-.054 2.613.017 5.54.008 7.07.004.168-.024.324-.009.463.016.14.055.22.095.302-.004.099.078.163.185.17.106.007.173-.067.177-.166l.13-.317c.017-.127.013-.295.052-.48.085-1.535.258-4.436.324-7.078.037-1.686.09-3.232.012-4.195-.066-.725-.188-1.138-.219-1.15-.04-.081-.248-.194-.512-.26a4.67 4.67 0 00-1-.046c-.643.057-1.242.096-1.904.112-.406.013-.844.014-1.238-.001C5.35.193 4.798.118 4.475.196c-.359.164-.548.359-.54.695.064 2.324.037 4.514.055 6.421.04 2.382.16 4.394.242 5.792.015.139 0 .266.027.377.027.11.035.18.074.261-.012.029.02.04.051.053.032.012.044-.017.056-.046a.794.794 0 00.075-.271c.016-.128 0-.267.016-.394.057-1.379.256-3.37.29-5.757.007-1.964-.117-4.145-.256-6.464.012-.029.043-.017.086-.034.087-.034.194-.027.3-.02a3.19 3.19 0 01.607.03A19.62 19.62 0 006.85.795 81.177 81.177 0 008.746.613c.118-.022.331-.008.512-.006.182.002.394.016.52.064.056-.046.056-.046.087-.034z"/><path fill-rule="evenodd" clip-rule="evenodd" d="M13.06 12.447c-.214.252-.458.493-.593.642l-2.387 3.063-1.997 2.643c-.079.104-.193.294-.36.431a.633.633 0 01-.22.183c.083-.202-.468-.544-.57-.65l-2.126-2.27a48.497 48.497 0 00-1.74-1.793c-.39-.38-.81-.774-1.212-1.126-.185-.17-.516-.428-.76-.72l.3-.02c.61-.07 1.284-.114 1.927-.17.3-.02.567-.053.835-.085.107.008.201.043.256-.002l.044-.017c-.02-.041.016-.128.028-.157.011-.028.043-.016.055-.045.012-.03-.051-.053-.051-.053-.02-.04.016-.127-.004-.168l.012-.029-.032-.012a27.84 27.84 0 01-.063-.024 5.043 5.043 0 00-.89-.137c-.745-.049-1.537.018-2.243.051l-.579.08s-.193.027-.268.032c-.343.037-.41.378-.422.407.012.238.13.483.29.71.284.374.772.693 1.009.915.515.429 1.02.886 1.511 1.373.492.486.984.972 1.445 1.447l2.137 2.242c.2.043.44.434.689.628.134.117.26.165.398.184a.871.871 0 00.508-.174c.253-.171.458-.494.604-.672l2.028-2.631 2.408-3.022c.146-.178.489-.482.714-.763.158-.207.229-.38.257-.536a.378.378 0 00-.303-.415c-.221-.084-.903-.108-.978-.103l-2.589.186a.358.358 0 00-.347.402c.023.209.189.338.401.352l2.538-.24c.012-.028.17.032.34.063z"/><path fill-rule="evenodd" clip-rule="evenodd" d="M8.927.882A.752.752 0 008.502.32C8.23.184 7.899.192 7.608.28c-.336.107-.655.353-.864.507-.11.092-.22.183-.312.316l-.655.618.012-.029.237-.31c.024-.058.134-.15.201-.224a.362.362 0 00.076-.271C6.299.72 6.189.545 5.889.565c-.106-.007-.193.026-.323.077C5.452.566 5.188.5 5.03.706c-.067.074-.225.281-.28.327-.134.15-.269.298-.383.488a.865.865 0 00-.221.45c-.1.33.153.425.247.46l.064.024c-.036.087-.091.133-.103.162l-.024.057c-.012.03-.035.087-.028.156a4.42 4.42 0 00-.1.863c.005.168.008.336 0 .533-.04.984-.057 2.178-.074 2.838l-.012.03.008.069c-.016.127-.02.226 0 .266.011.238.157.327.189.339l.157.06.032.011c.031.012.043-.017.074-.005a.264.264 0 00.174-.067c-.115.456-.194.826-.234 1.011-.051.214.063.29.114.343.063.024.114.077.233.055a3.277 3.277 0 00-.3.82c-.064.242.07.36.152.424-.122.387-.21.688-.292.89-.107.259.07.36.165.395-.06.144-.17.236-.217.351a.268.268 0 01-.091.133c-.118.021-.327.176-.446.198a8.913 8.913 0 00-.705.299.975.975 0 00-.414-.057c-.15.01-.3.02-.461.06.012-.03-.02-.042-.008-.07-.027-.111-.208-.38-.504-.191-.012.028-.11.091-.134.149-.067.074-.166.137-.213.252a.248.248 0 00-.083.202.223.223 0 00.003.168c-.13.051-.165.138-.157.207-.012.03-.06.144.137.286l1.862 1.405.382.311c.162.228.323.456.528.667.307.316.625.603.932.92l.378.41c.142.186.295.344.437.531.032.012.02.041.02.041.082.065.177.1.22.084.107.007.15-.01.237-.044l.04.081.456.573c.204.211.464.376.724.541.114.077.264.067.406-.013.142-.08.268-.298.347-.402l1.129-1.506.103-.16.528-.667c.62-.799 1.251-1.626 1.883-2.454.406-.546.844-1.08 1.302-1.573.012-.03.024-.058-.008-.07-.031-.012-.063-.024-.075.005l-.33.274c.125-.218-.071-.36-.123-.412l-.063-.024c.091-.133.02-.226-.338-.062a2.112 2.112 0 00-.537.33l-.043.017c-.217.085-.453.129-.702.201l.06-.144c.008-.197-.051-.32-.103-.372-.102-.105-.196-.141-.378-.143-.075.005-.15.01-.217.084l-.13.051-.094-.036c.012-.028-.02-.04-.008-.07-.04-.08-.106-.273-.362-.27l.012-.029.239-2.176-.003-4.867c.024-.058.083-.202.075-.272a1.422 1.422 0 00-.011-.238c-.06-.122-.15-.256-.343-.23a.477.477 0 00-.043-.249c.052-.48.104-.96.187-1.43l.1-.595a.676.676 0 00.031-.255l.04-.185c.008-.197-.106-.273-.126-.314-.02-.04-.114-.077-.24-.124L9.636.75c-.07-.093-.444-.335-.642.057l-.067.075zm-1.21 17.475l-.024.058.02.04.004-.098zm-1.366-1.284c-.043.017-.067.075-.067.075l.02.04c.09.135.224.252.338.329l.024-.058.067-.075c-.162.039-.284-.107-.355-.2.012-.03-.007-.07-.027-.111zm-1.09-1.246l-.253.17.071.094a.886.886 0 00.182-.264zm-.736-.779l-.21.154.103.106.071.093.012-.029c.193-.293.481-.55.67-.746l.202-.223-.848.645zm-.642-.476l-.063-.024-.031-.012-.087.034.102.105c.012-.029.055-.046.08-.103zm-.098-.737a3.525 3.525 0 00-.453.128c-.075.005-.205.056-.335.107l.032.011a.68.68 0 00.374-.024c.13-.051.26-.102.359-.165l.023-.057zm6.671.426l-.347.402-.055.046-.182.264c.08-.103.158-.207.269-.298.122-.12.244-.241.355-.333l.134-.149.462-.592-.636.66zM5.6 9.955L5.543 10l-.051.214.323-.344c.068-.075.146-.178.206-.322l.004-.099-.426.506zm3.67-4.41l-.084.201c-.094.23-.138.514-.213.786-.092.665-.183 1.33-.27 1.898-.111.624-.258 1.069-.368 1.16l-.28.328-.064.242a.675.675 0 01.198-.125 4.975 4.975 0 011.005-.586l.075-3.905zM6.16 8.233l.036-.353-.162.572.012-.03c.035-.086.059-.143.114-.19zM5.325 4.95c-.056.046-.099.062-.154.108l-.048.382a2.393 2.393 0 00-.052.48l-.055.313c.09-.399.206-.856.309-1.283zm2.743-3.928l-.032-.012c-.063-.024-.138-.019-.224.015a.52.52 0 00-.123.12l-.797.965c-.213.253-.458 1.027-.707 1.899-.167.67-.357 1.398-.503 2.11.186-.63.403-1.248.597-1.808.194-.56.407-1.079.616-1.5.174-.6.396-1.05.573-1.216l.21-.154.2-.224a.677.677 0 01.198-.126c.011-.028.011-.028-.008-.07l-.032-.011.032.012zM5.76 2.649l-.245.24c.032.013-.055.047-.067.076l.067-.075c-.138-.019-.06.41-.127.752.13-.317.241-.675.372-.993z"/><path fill-rule="evenodd" clip-rule="evenodd" d="M9.128 5.86l-.027.063a6.022 6.022 0 00-.247 1.382l-.022.25c-.097.627-.195 1.255-.223 1.908-.035.282-.084.595.011.853.022.045.056.058.078.103-.013.032.022.045.056.058.009.077-.017.14-.009.218-.026.064.017.154.1.148.069.026.13-.024.156-.088.097-.333.18-.633.229-.946.097-.628.125-1.281.187-1.921.045-.5.103-1.031.183-1.518l.052-.127c.026-.064.031-.173.044-.205.04-.096-.017-.154-.017-.154-.008-.077-.429-.42-.551-.024z"/></symbol><symbol viewBox="0 0 20 20" id="cart" xmlns="http://www.w3.org/2000/svg"><path d="M15.7 1.4c-.3-.8-1-1.4-1.9-1.4H6.2c-.8 0-1.6.6-1.9 1.4L3 5.6h1.8L6 2c.1-.1.2-.2.3-.2h7.5c.1 0 .2.1.3.2l1.2 3.6h1.8l-1.4-4.2zm3.7 5.7H.6c-.4 0-.6.2-.6.5v2.9c0 .4.2.6.6.6h1L2.7 19c.1.6.6 1 1.1 1h12.3c.6 0 1-.4 1.1-1l1.1-7.8h1c.3 0 .6-.2.6-.6v-3c.1-.3-.1-.5-.5-.5zM6.9 16.8c0 .5-.4.9-.9.9s-.9-.4-.9-.9V13c0-.5.4-.9.9-.9s.9.4.9.9v3.8zm4 0c0 .5-.4.9-.9.9s-.9-.4-.9-.9V13c0-.5.4-.9.9-.9s.9.4.9.9v3.8zm4 0c0 .5-.4.9-.9.9s-.9-.4-.9-.9V13c0-.5.4-.9.9-.9s.9.4.9.9v3.8z"/></symbol><symbol viewBox="0 0 20 20" id="close" xmlns="http://www.w3.org/2000/svg"><path d="M18.9 15.7c-.9-.7-3.3-3.6-4.4-5.1-.2-.3-.5-.6-.7-.9.3-.3.6-.6.7-.8 1.5-2.3 3.4-4 3.4-4s1.2-1 .7-1.4c-.5-.5-1.7-2-1.7-2s-.5-1.1-.9-1c-.4.1-3.5 3.6-3.5 3.6s-1.4 2.3-2.3 2.2C7.7 4.8 4.8 2.2 4.1 1.6c0 0-.5-1.1-1.1-.5-.6.6-1 1.5-2.1 2.2-1.1.7-1 .9-.3 1.6.8.7 3.6 3.1 4.8 4.6.3.5.7.8 1.1 1.2-.1.1-.2.3-.3.4-1.5 2.3-3.4 4-3.4 4s-1.3.9-.8 1.3c.5.5 1.7 2 1.7 2s.5 1.1.9 1.1c.4-.1 3.5-3.6 3.5-3.6s1.4-2.3 2.3-2.2c.9.1 5.7 5.2 5.7 5.2s.5 1.1 1.1.5c.6-.6 1-1.5 2.2-2.2 1.2-.8.3-.8-.5-1.5z"/></symbol><symbol viewBox="0 0 18 18" id="email" xmlns="http://www.w3.org/2000/svg"><path d="M9 13.4l-1.7-1.3-4.9 3.7c.1.1.3.2.6.2h12c.3 0 .5-.1.7-.2l-4.9-3.7L9 13.4zm7 1.9V8l-4.8 3.7 4.8 3.6z"/><path d="M16 7.3L9 2 2 7.3l7 5.3 7-5.3zM2 8v7.3l4.8-3.6L2 8z"/></symbol><symbol viewBox="0 0 18 18" id="instagram" xmlns="http://www.w3.org/2000/svg"><path d="M9 6.8c-1.2 0-2.3 1-2.3 2.3s1 2.3 2.3 2.3 2.3-1 2.3-2.3-1-2.3-2.3-2.3z"/><path d="M14.3 1H3.8C2.3 1 1 2.3 1 3.8v10.5C1 15.8 2.3 17 3.8 17h10.5c1.5 0 2.8-1.2 2.8-2.8V3.8C17 2.3 15.8 1 14.3 1zM9 13.7c-2.5 0-4.6-2.1-4.6-4.6S6.5 4.4 9 4.4s4.6 2.1 4.6 4.6-2 4.7-4.6 4.7zm6.4-9.8c0 .6-.5 1.1-1.1 1.1-.6 0-1.1-.5-1.1-1.1 0-.6.5-1.1 1.1-1.1.5-.1 1.1.4 1.1 1.1z"/></symbol><symbol viewBox="0 0 18 18" id="instagram2" xmlns="http://www.w3.org/2000/svg"><path d="M12.1 17H5.9C3.2 17 1 14.7 1 11.8V6.2C1 3.3 3.2 1 5.9 1H12c2.8 0 5 2.3 5 5.2v5.6c0 2.9-2.2 5.2-4.9 5.2zM5.9 2.2c-2.1 0-3.8 1.8-3.8 4v5.6c0 2.2 1.7 4 3.8 4H12c2.1 0 3.8-1.8 3.8-4V6.2c0-2.2-1.7-4-3.8-4H5.9z"/><path d="M9 13.6c-2.4 0-4.4-2.1-4.4-4.6s2-4.6 4.4-4.6 4.4 2.1 4.4 4.6-2 4.6-4.4 4.6zm0-8.1C7.2 5.5 5.7 7.1 5.7 9s1.5 3.5 3.3 3.5 3.3-1.6 3.3-3.5S10.8 5.5 9 5.5zm5.3-1c0 .5-.4 1-.9 1s-.9-.4-.9-1c0-.5.4-1 .9-1 .4.1.9.5.9 1z"/></symbol><symbol viewBox="0 0 14 14" id="menu" xmlns="http://www.w3.org/2000/svg"><path d="M0 3c0 .6.3 1 .7 1h12.6c.4 0 .7-.4.7-1s-.3-1-.7-1H.7C.3 2 0 2.4 0 3zm0 4c0 .6.3 1 .7 1h12.6c.4 0 .7-.4.7-1s-.3-1-.7-1H.7C.3 6 0 6.4 0 7zm0 4c0 .6.3 1 .7 1h12.6c.4 0 .7-.4.7-1s-.3-1-.7-1H.7c-.4 0-.7.4-.7 1z"/></symbol><symbol viewBox="0 0 64 64" id="ok" xmlns="http://www.w3.org/2000/svg"><path d="M3.9 29.6C7.2 32.1 11.8 35.9 16 41c8.2 9.6 15.1 12 15.1 12s13.4-8.8 16.8-13.4c5.8-7.9 13-13.4 13-13.4s4.6-3.2 2.6-4.7c-2-1.5-6.3-6.9-6.3-6.9s-2-3.9-3.5-3.6c-1.5.3-13.3 12.3-13.3 12.3s-5.5 7.6-8.9 7.5c-3.4-.2-17.1-11.7-17.1-11.7s-1.7-3.6-4.1-1.6c-2.3 2-3.9 4.9-8.2 7.5-4.3 2.5-1.1 2.4 1.8 4.6z"/></symbol><symbol viewBox="0 0 18 18" id="phone" xmlns="http://www.w3.org/2000/svg"><path d="M16 13.1c0 .2 0 .5-.2.6l-2 2c-.1.1-.2.2-.4.2-.1 0-.2.1-.5.1h-.3c-.2 0-.5 0-.9-.1-.5 0-.9-.2-1.5-.5-.6-.2-1.3-.6-2.1-1.2-.8-.5-1.6-1.2-2.4-2.1-.6-.6-1.2-1.3-1.5-1.9-.6-.6-.9-1.2-1.3-1.7-.2-.6-.5-1-.6-1.4-.1-.4-.2-.8-.3-1.1V4.9c0-.1 0-.2.1-.5 0-.1.1-.2.2-.3l2-2c.3-.1.4-.1.6-.1.1 0 .3 0 .4.1 0 .1.1.1.2.2l1.6 3c.1.1.1.3.1.5s-.1.3-.2.5l-.9.8v.2c0 .2.1.5.2.7.1.2.3.5.6.8s.6.7 1.1 1.2c.5.5.8.8 1.2 1.1.4.2.7.5.8.6.2.1.5.2.6.2h.4l.8-.8c.1-.1.4-.2.6-.2.1 0 .4 0 .4.1l2.9 1.6c.2.1.3.3.3.5z"/></symbol><symbol viewBox="0 0 18 18" id="youtube" xmlns="http://www.w3.org/2000/svg"><path d="M18 6.5c0-2.2-1.8-4-3.9-4H3.9C1.7 2.5 0 4.3 0 6.5v4.9c0 2.3 1.8 4.1 3.9 4.1h10.2c2.2 0 3.9-1.8 3.9-4v-5zm-6.6 2.9l-3.7 2.2c-.2.1-.3 0-.3-.2V6.8c0-.2.1-.3.3-.2l3.7 2.3c.2.1.1.4 0 .5z"/></symbol></svg>