<svg version="1.1" id="Слой_1" xmlns="http://www.w3.org/2000/svg" x="0" y="0" viewBox="0 0 30 26" xml:space="preserve"><path d="M28.2 21h0l.9.6h.1c.2.1.4.2.5.3 0 0 0 0 0 0s0 0 0 0l-.2.2c-.1.1-.3.2-.5.3-.9.5-1.5 1.1-2 1.6-.2.2-.3.4-.5.5-.3.3-.5.6-.8.9-.2.2-.3.2-.4.2-.1 0-.2-.1-.4-.2-.1-.1-.2-.2-.3-.4 0-.1-.1-.1-.1-.1s0 0 0 0 0 0 0 0h0v0h0l-.2.2.2-.2h0l-.1-.1-.2-.2-.8-.8c-.7-.7-1.7-1.5-2.7-2.4-1-.9-2-1.8-2.9-2.4-.4-.3-.8-.6-1.2-.8-.2-.1-.3-.2-.5-.3-.1-.1-.3-.1-.4-.1v0h0c-.4 0-.9.2-1.3.5s-.8.7-1.2 1.1c-.4.4-.7.8-.9 1.1-.1.1-.2.3-.3.4l-.1.1h0l-.1.2c-.1.1-.3.3-.5.6-.4.5-1.1 1.1-1.7 1.7-.6.4-1.2 1-1.8 1.5-.3.2-.5.4-.7.6l-.1.1h-.1s-.1 0-.2-.1-.3-.3-.4-.5c-.2-.1-.3-.3-.4-.4 0-.1-.1-.1-.1-.2 0 0 0 0 0 0h0l-.2.2.2-.2h0l-.1-.1c0-.1-.1-.1-.2-.3-.2-.2-.4-.5-.7-.8-.5-.6-1.2-1.3-1.6-1.7h0c-.1 0-.1-.1-.1-.1v-.2c0-.1.2-.3.3-.5l.5-.5c.1-.1.1-.1.2-.1h.1L4 20l.2.2h0s.1 0 .1-.1c.1-.1.2-.2.4-.3.3-.4.8-.8 1.3-1.3 1-1 2.3-2.3 3.5-3.9.1-.1.2-.3.4-.5l.2-.2-.2-.2c-.5-.5-1.1-1-1.6-1.6-.9-1-2.3-2.4-3.8-3.6-1.4-1-2.6-2-3.3-2.6-.1 0-.1-.1-.2-.1-.3-.2-.5-.4-.6-.5C.3 5.1.2 5 .3 5c0 0 0-.1.2-.3.2-.2.5-.4.9-.6.9-.5 1.5-1.1 2-1.6.2-.2.3-.4.5-.5.2-.4.5-.7.8-1 .2-.1.3-.2.4-.1.1 0 .2.1.4.2.1.1.2.2.3.4 0 .1.1.1.1.1s0 0 0 0h0v.1h0c.1.1.2.1.3.2 1.4 1.1 5.5 4.4 8.9 6.3h.2c.4 0 .9-.2 1.3-.5s.8-.7 1.2-1.1c.4-.4.7-.8.9-1.1.1-.1.2-.3.3-.4l.1-.1h0l.1-.2c.1-.1.3-.3.5-.6.4-.5 1.1-1.1 1.7-1.7.6-.4 1.2-1 1.7-1.5.3-.2.5-.4.7-.6.1 0 .2-.1.2-.1h.1s.1 0 .2.1.3.3.4.5c.1.1.3.3.3.4 0 .1.1.1.1.2 0 0 0 0 0 0h0v0h0l.2-.2-.2.2v0h0l.1.1c0 .1.1.1.2.3.2.2.4.5.7.8.5.6 1.2 1.3 1.6 1.7v0h0c.1 0 .1.1.1.1v.2c0 .1-.2.3-.3.5l-.5.5c-.1.1-.1.1-.2.1h-.1 0l.2.2-.2-.2h0s-.1 0-.1.1c-.1.1-.2.2-.4.3-.3.4-.7.8-1.2 1.3-1 1-2.3 2.3-3.5 3.9-.2.3-.6.7-1.1 1.1l-.2.2.2.2c.4.4.7.8 1.1 1.2h0c.8 1 2.2 2.5 3.5 3.9 1.3 1.3 2.6 2.5 3.2 3z" fill="#fe5555" stroke="#000" stroke-width=".5"/><radialGradient id="SVGID_1_" cx="-222.377" cy="250.427" r="0" gradientTransform="matrix(21.4305 0 0 -18.5731 4795.41 4673.158)" gradientUnits="userSpaceOnUse"><stop offset=".006" stop-color="#fd7d7d"/><stop offset="1" stop-color="#ff3030"/></radialGradient><path d="M29.8 22s0 0 0 0h0z" fill="url(#SVGID_1_)" stroke="#000" stroke-width=".5"/></svg>