<svg width="152" height="48" fill="none" xmlns="http://www.w3.org/2000/svg"><path d="M4.47.5h143.06c2.211 0 3.971 1.722 3.971 3.808v39.384c0 2.086-1.76 3.808-3.971 3.808H4.471C2.26 47.5.5 45.778.5 43.692V4.308C.5 2.222 2.26.5 4.47.5z" fill="#221F1F" stroke="#4D4B4B"/><path d="M31.746 23.212c-.033-3.715 2.944-5.522 3.08-5.607-1.686-2.539-4.299-2.886-5.216-2.913-2.194-.238-4.323 1.356-5.44 1.356-1.141 0-2.863-1.333-4.718-1.294-2.387.038-4.62 1.466-5.846 3.682-2.527 4.522-.642 11.165 1.78 14.82 1.212 1.79 2.629 3.788 4.48 3.717 1.814-.076 2.49-1.193 4.679-1.193 2.168 0 2.804 1.193 4.693 1.148 1.946-.031 3.17-1.797 4.34-3.603 1.4-2.051 1.962-4.072 1.984-4.176-.047-.014-3.78-1.486-3.816-5.938zm-3.57-10.925c.975-1.26 1.642-2.973 1.456-4.712-1.41.064-3.176 1.008-4.192 2.241-.899 1.086-1.702 2.865-1.495 4.538 1.585.122 3.213-.826 4.23-2.066zM60.28 35.942h-2.49l-1.366-4.31h-4.743l-1.3 4.31h-2.426l4.7-14.672h2.901l4.724 14.672zm-4.267-6.117l-1.234-3.832c-.13-.39-.376-1.313-.736-2.764h-.044c-.144.624-.376 1.546-.694 2.764l-1.211 3.832h3.92zm16.351.696c0 1.8-.484 3.222-1.452 4.265-.866.93-1.942 1.395-3.227 1.395-1.387 0-2.383-.502-2.988-1.502h-.044v5.572h-2.339V28.844c0-1.13-.03-2.292-.087-3.483h2.058l.13 1.677h.044c.78-1.263 1.963-1.893 3.551-1.893 1.242 0 2.278.492 3.108 1.48.832.987 1.246 2.285 1.246 3.896zm-2.383.086c0-1.03-.23-1.88-.693-2.547-.506-.697-1.185-1.045-2.035-1.045-.577 0-1.102.194-1.57.577a2.67 2.67 0 00-.92 1.514 3.12 3.12 0 00-.109.717v1.764c0 .77.235 1.418.705 1.949.469.53 1.08.795 1.829.795.881 0 1.566-.342 2.057-1.023.49-.684.736-1.583.736-2.701zm14.489-.086c0 1.8-.484 3.222-1.453 4.265-.866.93-1.942 1.395-3.226 1.395-1.387 0-2.383-.502-2.989-1.502h-.044v5.572H74.42V28.844c0-1.13-.03-2.292-.087-3.483h2.057l.13 1.677h.044c.78-1.263 1.963-1.893 3.552-1.893 1.24 0 2.277.492 3.109 1.48.829.987 1.244 2.285 1.244 3.896zm-2.383.086c0-1.03-.232-1.88-.695-2.547-.506-.697-1.182-1.045-2.035-1.045-.578 0-1.102.194-1.571.577-.47.386-.775.89-.92 1.514-.071.292-.108.53-.108.717v1.764c0 .77.236 1.418.702 1.949.47.529 1.08.795 1.832.795.881 0 1.566-.342 2.057-1.023.493-.684.738-1.583.738-2.701zm15.919 1.221c0 1.248-.432 2.264-1.297 3.048-.95.856-2.275 1.285-3.977 1.285-1.57 0-2.83-.304-3.783-.914l.543-1.959a6.39 6.39 0 003.38.937c.882 0 1.567-.2 2.059-.6.49-.4.735-.934.735-1.603 0-.596-.203-1.098-.607-1.505-.402-.406-1.075-.785-2.014-1.134-2.555-.958-3.832-2.362-3.832-4.207 0-1.206.447-2.195 1.343-2.964.893-.77 2.084-1.155 3.573-1.155 1.328 0 2.431.232 3.313.697l-.585 1.916c-.823-.45-1.753-.675-2.794-.675-.823 0-1.465.204-1.925.61a1.748 1.748 0 00-.586 1.328c0 .579.223 1.06.67 1.436.39.348 1.098.726 2.124 1.132 1.255.509 2.178 1.103 2.771 1.784.594.679.889 1.529.889 2.543zm7.731-4.702h-2.578v5.136c0 1.306.454 1.959 1.365 1.959.418 0 .764-.037 1.038-.109l.065 1.785c-.461.172-1.068.26-1.819.26-.923 0-1.645-.283-2.165-.85-.519-.567-.78-1.516-.78-2.851v-5.333h-1.536V25.36h1.536v-1.936l2.297-.697v2.633h2.578l-.001 1.767zm11.631 3.438c0 1.627-.463 2.96-1.387 4.006-.969 1.074-2.253 1.61-3.856 1.61-1.544 0-2.774-.514-3.69-1.544-.917-1.03-1.376-2.33-1.376-3.897 0-1.639.471-2.982 1.418-4.027.945-1.044 2.22-1.567 3.822-1.567 1.544 0 2.788.514 3.725 1.546.897 1 1.344 2.292 1.344 3.873zm-2.427.076c0-.976-.207-1.813-.627-2.51-.49-.844-1.191-1.266-2.1-1.266-.94 0-1.654.423-2.145 1.266-.421.7-.628 1.55-.628 2.554 0 .975.207 1.813.628 2.509.506.844 1.213 1.265 2.123 1.265.893 0 1.594-.43 2.1-1.287.433-.71.649-1.556.649-2.531zm10.028-3.21a4.064 4.064 0 00-.738-.064c-.822 0-1.458.312-1.906.937-.39.551-.585 1.248-.585 2.088v5.55h-2.337l.022-7.247c0-1.22-.03-2.33-.088-3.331h2.036l.086 2.024h.064c.247-.696.637-1.256 1.169-1.676a2.817 2.817 0 011.691-.567c.215 0 .411.016.585.042l.001 2.245zm10.458 2.722c0 .422-.027.777-.085 1.066h-7.016c.027 1.045.367 1.845 1.018 2.396.591.493 1.355.74 2.295.74 1.038 0 1.987-.166 2.839-.5l.366 1.63c-.995.437-2.171.655-3.528.655-1.632 0-2.913-.483-3.845-1.448-.93-.965-1.397-2.26-1.397-3.886 0-1.595.433-2.924 1.301-3.983.908-1.131 2.135-1.697 3.68-1.697 1.518 0 2.666.566 3.446 1.697.616.899.926 2.01.926 3.33zm-2.229-.61c.016-.697-.138-1.298-.455-1.807-.404-.654-1.026-.98-1.863-.98-.764 0-1.387.319-1.861.958-.39.509-.621 1.119-.693 1.828l4.872.001zm-79-14.934l1.04.264c-.219.858-.611 1.513-1.18 1.965-.563.448-1.254.673-2.072.673-.846 0-1.535-.173-2.067-.517-.529-.348-.932-.85-1.21-1.507a5.423 5.423 0 01-.413-2.116c0-.822.155-1.538.466-2.148a3.22 3.22 0 011.334-1.394 3.879 3.879 0 011.906-.48c.786 0 1.446.202 1.982.604.535.402.908.967 1.12 1.695l-1.024.243c-.182-.575-.446-.993-.792-1.255-.347-.262-.782-.393-1.307-.393-.604 0-1.109.146-1.516.436a2.316 2.316 0 00-.852 1.174 4.71 4.71 0 00-.246 1.513c0 .67.097 1.257.29 1.76.196.499.5.872.91 1.12.41.247.855.371 1.334.371.581 0 1.074-.169 1.478-.506.403-.337.676-.838.82-1.502zm2.196-2.95h.964v2.471c.307 0 .521-.06.643-.178.125-.118.307-.463.546-1.033.19-.452.343-.75.46-.894a.879.879 0 01.408-.29c.153-.05.4-.076.739-.076h.192v.802l-.267-.005c-.254 0-.416.037-.488.113-.075.079-.189.314-.342.705-.147.373-.28.632-.402.775-.121.144-.309.275-.563.393.415.111.822.5 1.222 1.163l1.055 1.771H59.5l-1.029-1.771c-.21-.355-.395-.589-.552-.7a.927.927 0 00-.562-.172v2.643h-.964v-5.717zm8.762 5.012c-.357.305-.702.52-1.034.646a2.947 2.947 0 01-1.06.188c-.625 0-1.105-.152-1.44-.457-.336-.309-.504-.702-.504-1.18 0-.28.062-.534.187-.764a1.62 1.62 0 01.498-.56c.208-.14.44-.245.697-.317.189-.05.474-.099.857-.146.778-.093 1.351-.204 1.719-.333l.005-.253c0-.395-.09-.673-.273-.835-.246-.219-.612-.328-1.098-.328-.453 0-.79.08-1.007.242-.214.158-.373.44-.477.845l-.942-.129c.086-.405.227-.732.423-.98.196-.25.48-.443.852-.576a3.737 3.737 0 011.29-.204c.486 0 .88.057 1.184.172.303.115.527.26.67.436.142.172.242.391.3.657.031.165.047.463.047.893v1.293c0 .9.02 1.471.06 1.712.042.236.124.464.246.683h-1.007a2.066 2.066 0 01-.193-.705zm-.08-2.164c-.35.143-.875.265-1.575.366-.396.057-.676.122-.84.194a.833.833 0 00-.515.775.83.83 0 00.29.646c.196.172.481.258.856.258.372 0 .702-.08.991-.242.29-.165.502-.39.638-.673.103-.219.155-.542.155-.969v-.355zm1.874-2.848h.964v1.082c0 .467.027.806.08 1.018.058.208.192.39.402.549.211.154.475.231.793.231.364 0 .836-.097 1.414-.29v-2.59h.964v5.717h-.964v-2.304a5.545 5.545 0 01-1.66.28c-.432 0-.814-.11-1.147-.328-.328-.223-.551-.494-.669-.813a3.027 3.027 0 01-.177-1.055v-1.497zm9.785 5.012c-.357.305-.701.52-1.033.646a2.947 2.947 0 01-1.06.188c-.626 0-1.106-.152-1.441-.457-.336-.309-.504-.702-.504-1.18a1.606 1.606 0 01.685-1.324c.208-.14.44-.245.697-.317.19-.05.475-.099.857-.146.778-.093 1.351-.204 1.72-.333l.004-.253c0-.395-.09-.673-.273-.835-.246-.219-.612-.328-1.098-.328-.453 0-.789.08-1.007.242-.214.158-.373.44-.476.845l-.943-.129c.086-.405.227-.732.423-.98.197-.25.48-.443.852-.576a3.737 3.737 0 011.29-.204c.486 0 .88.057 1.184.172.304.115.527.26.67.436.142.172.243.391.3.657.032.165.048.463.048.893v1.293c0 .9.02 1.471.059 1.712.043.236.125.464.246.683h-1.007a2.063 2.063 0 01-.193-.705zm-.08-2.164c-.35.143-.875.265-1.575.366-.396.057-.676.122-.84.194a.834.834 0 00-.514.775.83.83 0 00.289.646c.196.172.482.258.857.258.37 0 .701-.08.99-.242.29-.165.502-.39.638-.673.103-.219.155-.542.155-.969v-.355zm1.709-2.848h4.622v.802h-1.832v4.915h-.959V12.46h-1.831v-.802zm5.527 0h.964v2.234h1.221c.796 0 1.409.156 1.837.469.432.308.648.735.648 1.28 0 .478-.18.887-.54 1.228-.358.337-.931.506-1.72.506h-2.41v-5.717zm.964 4.92h1.012c.61 0 1.046-.075 1.307-.226.26-.15.39-.386.39-.705a.915.915 0 00-.288-.662c-.193-.194-.62-.29-1.28-.29h-1.141v1.883zm7.83-4.92h2.223c.546 0 .951.047 1.216.14.267.09.496.257.685.5.193.245.29.537.29.878 0 .273-.058.511-.172.716-.11.201-.279.37-.504.506.268.09.49.259.665.506.178.244.267.535.267.872-.035.542-.228.944-.578 1.206s-.859.393-1.526.393h-2.566v-5.717zm.964 2.407h1.028c.411 0 .693-.022.847-.065a.892.892 0 00.412-.259.678.678 0 00.182-.473c0-.302-.107-.512-.321-.63-.21-.119-.573-.178-1.087-.178h-1.06v1.604zm0 2.513h1.27c.546 0 .92-.062 1.124-.188.204-.13.31-.35.322-.662a.816.816 0 00-.177-.506.748.748 0 00-.46-.296c-.19-.043-.493-.065-.911-.065h-1.168v1.717z" fill="#fff"/></svg>