<svg version="1.1" id="Слой_1" xmlns="http://www.w3.org/2000/svg" x="0" y="0" viewBox="0 0 196 50" xml:space="preserve"><style>.st0{fill:#010202}</style><path class="st0" d="M162.7 45H33.2c-.2 0-.4-.2-.4-.4V31.8c0-.2.2-.4.4-.4h129.6c.2 0 .4.2.4.4v12.8c-.1.2-.2.4-.5.4z"/><path class="st0" d="M172 50h-9.7c-.2 0-.4-.2-.4-.4V36.7c0-.2.2-.4.4-.4h9.7c.3 0 .5.3.4.6l-2.8 6.1c-.1.1-.1.2 0 .4l2.8 6.1c.2.2 0 .5-.4.5zM24 50h9.7c.2 0 .4-.2.4-.4V36.7c0-.2-.2-.4-.4-.4H24c-.3 0-.5.3-.4.6l2.8 6.1c.1.1.1.2 0 .4l-2.8 6.1c-.1.2.1.5.4.5z"/><path d="M54.7 36.5h3.8c1 0 1.2 0 1.5.2.5.2.7.7.7 1.7s-.2 1.5-.6 1.7c-.3.2-.6.2-1.5.2h-2.4v1.2h-1.5v-5zm3.7 2.6c.6 0 .8-.1.8-.6 0-.6-.1-.7-.8-.7h-2.2v1.4h2.2zm4.8-2.6v2.2c0 1.1 0 1.1.1 1.3.1.3.5.4 1.4.4 1.1 0 1.4 0 1.6-.2.1-.1.2-.3.2-.7v-3H68v2.6c0 .9 0 1.2-.1 1.5-.2.5-.6.8-1.3.9h-1.8c-1.2 0-1.7 0-2-.1-.5-.1-.9-.5-1-.9-.1-.3-.1-.6-.1-1.3v-2.7h1.5zm5.9 3.9l3.7-2.7h-3.7v-1.1H75v1.2l-3.8 2.7h3.9v1.1h-6v-1.2zm7 0l3.7-2.7h-3.7v-1.1H82v1.2l-3.8 2.7h3.9v1.1h-6v-1.2zm7-3.9h1.5v3.8H88v1.2h-4.9v-5zm11.2 0v1.1h-4v.9h3.8v1h-3.8v.9h4.1v1.1h-5.5v-5h5.4zm19.6 4.1l-.5 1-.6-.4c-.2.2-.5.3-.8.4-.3.1-.8.1-2.1.1-1 0-1.8 0-2.1-.1-.5-.1-.9-.3-1.1-.7-.2-.4-.2-.7-.2-1.7 0-.9 0-1.2.1-1.5.1-.5.4-.8 1-1 .4-.1.8-.1 1.8-.1 1.9 0 2.4 0 2.8.1.5.1.8.4 1 1 .1.3.1.6.1 1.4 0 .7 0 .9-.1 1.2l.7.3zm-2.1-1.3v-.4c0-1.2 0-1.2-2-1.2-1.6 0-1.7 0-1.7 1.3 0 .8.1 1.1.3 1.2.3.1.5.2 1.9.2.6 0 .9 0 1.1-.1l-1.6-.9.6-1 1.4.9zm4.4-2.8v2.2c0 1.1 0 1.1.1 1.3.1.3.5.4 1.4.4 1.1 0 1.4 0 1.6-.2.1-.1.2-.3.2-.7v-3h1.5v2.6c0 .9 0 1.2-.1 1.5-.2.5-.6.8-1.3.9h-1.8c-1.2 0-1.7 0-2-.1-.5-.1-.9-.5-1-.9-.1-.3-.1-.6-.1-1.3v-2.7h1.5zm11.6 0v1.1h-4v.9h3.8v1h-3.8v.9h4.1v1.1h-5.5v-5h5.4zm2.6 3.5c0 .3 0 .4.2.5.1 0 .5.1 1 .1 1.8 0 2 0 2-.5 0-.2-.1-.4-.2-.4-.2 0-.2 0-.9-.1H131c-.9 0-1.3 0-1.6-.2-.4-.2-.5-.6-.5-1.3 0-.9.3-1.3 1-1.5.4-.1 1-.1 2.1-.1 1.7 0 2.1 0 2.5.3.3.2.5.5.5 1.3h-1.5c0-.4-.1-.5-1.1-.5H131c-.4 0-.5.1-.5.4 0 .2.1.3.3.4h3.1c.9 0 1.3.5 1.3 1.5 0 .9-.3 1.3-1 1.5-.4.1-1.1.1-2.2.1-1.7 0-2.1 0-2.5-.3-.3-.1-.5-.5-.5-1.1v-.2h1.4zm7.7-2.2h-2.2v-1.2h5.9v1.2h-2.2v3.8h-1.5v-3.8zm-33.8 5.4l-1.3-1.4c-.8.9-1.9 1.3-3.2 1.3-.6 0-1.2-.1-1.7-.3-.5-.2-.9-.5-1.1-.9-.3-.4-.4-.8-.4-1.3 0-.6.2-1.1.5-1.6.4-.5 1-.9 1.9-1.4-.5-.5-.8-.9-.9-1.2s-.3-.7-.3-1.1c0-.6.2-1.1.7-1.5.4-.4 1-.6 1.8-.6.7 0 1.2.2 1.6.5.4.3.6.8.6 1.4 0 .5-.2.9-.5 1.3s-.9.8-1.7 1.3l2.6 2.7c.3-.5.5-1.1.6-1.9l.8.2c-.2.9-.5 1.6-.8 2.2l1.4 1.4-.6.9zm-1.9-2l-2.9-3c-.8.4-1.3.8-1.6 1.2s-.4.7-.4 1.2.2.9.6 1.3c.4.3 1 .5 1.7.5 1.1-.1 1.9-.4 2.6-1.2zm-3.3-6.8c-.3.2-.4.6-.4 1 0 .3.1.6.2.8.1.3.4.6.9 1 .7-.4 1.2-.8 1.4-1 .3-.3.4-.6.4-.9 0-.4-.1-.7-.4-.9-.2-.2-.6-.3-1-.3-.5 0-.9.1-1.1.3zm-73.6.8c-2.3 0-4.3-.4-5.8-1.3-.8-.5-1.5-1-2-1.8l-.3-.6v-.1C13.1 31.3 9.6 30.1 7 28c-2.8-2.4-4.3-5.9-4.3-10.4C2.7 13 4.1 9.4 7 7c2.7-2.3 6.5-3.4 11.4-3.4 4.8 0 8.4.9 11 2.7.1-.2.1-.4.2-.5.4-1 1.4-1.7 2.5-1.7h.2c.5 0 1.2.1 1.9.1.7.1 1.5.1 2.3.2.8 0 1.6.1 2.4.1 1.1 0 2.2 0 3.1-.1.4 0 .8-.1 1.1-.1h.2c.7 0 1.3.3 1.8.7.2.2.4.4.5.6.1-.2.3-.4.5-.6.5-.5 1.1-.7 1.8-.7h.2c.3 0 .6.1 1 .1.9.1 2 .1 3.3.1.8 0 1.6 0 2.4-.1.8 0 1.6-.1 2.3-.2.7-.1 1.4-.1 1.9-.1h.2c.3 0 .5 0 .8.1.2-.1.5-.1.8-.1h.2c.3 0 .7 0 1.3.1.6 0 1.4.1 2.2.1.9 0 1.8 0 2.7.1h5.2c1.8 0 3.9 0 6.2-.1 2.3-.1 4.6-.1 6.8-.2h.1c.4 0 .8.1 1.1.3.3-.2.7-.2 1.1-.2h.1c1.6.1 3 .1 4.3.1 1.3 0 2.7.1 4.1.1h7.5c1.1 0 2.3 0 3.4-.1 1.1 0 2.1-.1 3-.1 1 0 1.5-.1 1.8-.1h.2c.4 0 .8.1 1.1.2.3-.2.7-.3 1.1-.3h.1c1.6.1 3 .1 4.3.1 1.3 0 2.7.1 4.1.1h7.5c1.1 0 2.3 0 3.4-.1 1.1 0 2.1-.1 3-.1 1 0 1.5-.1 1.8-.1h.2c.4 0 .8.1 1.2.3.4-.2.8-.3 1.2-.3h.2c.4 0 1 .1 1.6.1.7 0 1.4.1 2.2.1.8 0 1.5.1 2.2.1h1.8c.8 0 1.5 0 2.4-.1.8 0 1.6-.1 2.3-.2.7-.1 1.3-.1 1.8-.2h.2c1.1 0 2 .6 2.4 1.6.3.6.4 1.4.5 2.3.1.7.1 1.5.1 2.3 0 .8-.1 1.5-.2 2.2v.4h2.7c.5 0 1 .1 1.5.1 0-.2-.1-.5-.1-.8-.1-.7-.1-1.4-.1-2.2 0-.8.1-1.5.2-2.2.1-.8.3-1.5.6-2.2.4-1 1.4-1.7 2.5-1.7h.2c.3 0 .7 0 1.3.1.6 0 1.4.1 2.2.1.9 0 1.8 0 2.7.1h5.2c1.8 0 3.9 0 6.2-.1 2.3-.1 4.6-.1 6.8-.2h.1c1.2 0 2.3.8 2.6 2 .1.5.2 1.1.3 1.9.1.7.1 1.5.2 2.3 0 .8.1 1.7.1 2.5 0 .9 0 1.7-.1 2.4v.1c0 .6-.3 1.1-.6 1.5.4.4.6 1 .6 1.5v.7c0 .8.1 1.6.1 2.5v2.8c0 .9-.1 1.8-.1 2.5-.1.9-.2 1.6-.3 2.1-.3 1.1-1.4 1.9-2.5 1.9-1.9 0-4-.1-6.2-.2-2.1-.1-4.2-.2-6.3-.2h-3.5c-1.2 0-2.4.1-3.6.1-1.1 0-2.2.1-3 .1-1 .1-1.6.1-1.8.1h-.2c-.3 0-.6-.1-.9-.2-.3.1-.6.2-.9.2h-.1c-1.8 0-3.7-.1-5.7-.2-1.9-.1-3.8-.2-5.7-.2h-3.1c-1.1 0-2.2.1-3.3.1-1.1 0-2 .1-2.9.1-1 .1-1.5.1-1.8.1h-.2c-.4 0-.8-.1-1.1-.3-.3.2-.7.3-1.1.3-1.4 0-2.7-.1-3.9-.1-1.2-.1-2.4-.1-3.7-.2-1.2-.1-2.6-.1-4.2-.1-3.4 0-6.2 0-8.2.1-2 .1-3.4.2-4.2.3h-.3c-.4 0-.8-.1-1.1-.2-.3.2-.7.2-1.1.2-1.4 0-2.7-.1-3.9-.1-1.2-.1-2.4-.1-3.7-.2-1.2-.1-2.6-.1-4.2-.1-3.4 0-6.2 0-8.2.1-2 .1-3.4.2-4.2.3h-.3c-.4 0-.8-.1-1.1-.3-.3.2-.7.2-1.1.2-1.9 0-4-.1-6.2-.2-2.1-.1-4.2-.2-6.3-.2h-3.5c-1.2 0-2.4.1-3.6.1-1.1 0-2.2.1-3 .1-1 .1-1.6.1-1.8.1h-.2c-1.1 0-2.1-.7-2.5-1.7-.2-.5-.3-1-.4-1.7l-.6.6c-1.3 1.3-3.1 2.2-5.2 2.6-1.8.4-4 .6-6.7.6-2.3 0-4.4-.2-6.2-.6-2-.4-3.7-1.2-5-2.2-.1.8-.3 1.6-.7 2.3-.6 1.4-1.6 2.4-3.1 3.2-1.9 2-3.5 2.3-5.6 2.3zm-7.2-19.3c-.2.2-.5.7-.5 1.4s.3 1.2.5 1.4c.2-.2.5-.7.5-1.4 0-.8-.3-1.3-.5-1.4z" fill="#fff"/><path class="st0" d="M18.4 6.4c4.6 0 7.9.9 10.1 2.7 2.1 1.8 3.2 4.3 3.2 7.6 0 1.5-.2 2.7-.6 3.7-.4 1-.9 1.8-1.5 2.5-.6.6-1.2 1.1-1.8 1.5v2.8c0 .4.3.7.7.7.4 0 .7-.3.7-.7v-3c.3 0 .5-.1.8-.1h.4c.3 0 .7 0 1 .1.1 1.1.2 2.1.2 3.1s-.2 1.9-.5 2.7c-.4.8-1 1.4-1.9 1.9-.9.5-2.2.7-3.8.7-1.9 0-3.4-.3-4.6-1-.5-.3-.8-.6-1.1-1-1-2.4-.3-4 .2-4.6.1-.2.3-.3.3-.3-2 .2-2.6 1.7-2.7 3.2-3.8-.1-6.8-1-8.9-2.8-2.2-1.9-3.3-4.6-3.3-8.3 0-3.8 1.1-6.6 3.3-8.5 2.2-2 5.5-2.9 9.8-2.9zm-.1 15c1.7 0 3.1-1.8 3.1-4.1s-1.4-4.1-3.1-4.1c-1.7 0-3.1 1.8-3.1 4.1 0 2.2 1.4 4.1 3.1 4.1zM190.2 6.9c.1.3.2.8.2 1.5.1.6.1 1.4.2 2.2 0 .8.1 1.6.1 2.4 0 .8 0 1.6-.1 2.2h-8.8v-2.5h-3.1c-.8 0-1.4.6-1.4 1.4s.6 1.4 1.4 1.4h2.3v3.4h-2.3c-.8 0-1.4.6-1.4 1.4 0 .8.6 1.4 1.4 1.4h3.1v-2.8h8.8v-.2.6c0 .7.1 1.5.1 2.4v2.7c0 .9-.1 1.7-.1 2.4-.1.7-.1 1.2-.2 1.5-1.9 0-3.9-.1-6.1-.2-2.2-.1-4.3-.2-6.4-.2h-3.6c-1.3 0-2.5.1-3.6.1-1.2 0-2.2.1-3.1.1-.9 0-1.5.1-1.9.1-.1-.4-.3-.9-.3-1.4-.1-.6-.1-1.2-.1-1.8 0-.6 0-1.2.1-1.8 0-.6.1-1.1.3-1.4.3-.1.6-.3.8-.6.3-.3.5-.7.7-1.3.2-.6.3-1.4.3-2.5 0-1.2-.1-2-.3-2.6-.2-.6-.4-1-.7-1.2-.3-.2-.5-.3-.7-.3-.2-.3-.3-.8-.3-1.3-.1-.6-.1-1.2-.1-1.8 0-.6.1-1.3.1-1.9.1-.6.2-1.1.4-1.6.3 0 .8 0 1.4.1.6 0 1.4.1 2.3.1.9 0 1.8 0 2.7.1h5.3c1.9 0 3.9 0 6.2-.1 1.9.2 4.2.1 6.4 0zm-104.9 0c.1.3.2.8.2 1.5.1.6.1 1.4.2 2.2 0 .8.1 1.6.1 2.4 0 .8 0 1.6-.1 2.2h-8.8v-2.5h-3.1c-.8 0-1.4.6-1.4 1.4s.6 1.4 1.4 1.4H76v3.4h-2.3c-.8 0-1.4.6-1.4 1.4 0 .8.6 1.4 1.4 1.4h3.1v-2.8h8.8v-.2.6c0 .7.1 1.5.1 2.4v2.7c0 .9-.1 1.7-.1 2.4-.1.7-.1 1.2-.2 1.5-1.9 0-3.9-.1-6.1-.2-2.2-.1-4.3-.2-6.4-.2h-3.6c-1.2 0-2.5.1-3.6.1-1.2 0-2.2.1-3.1.1-.9 0-1.5.1-1.9.1-.1-.4-.3-.9-.3-1.4-.1-.6-.1-1.2-.1-1.8 0-.6 0-1.2.1-1.8 0-.6.1-1.1.2-1.4.3-.1.6-.3.8-.6.3-.3.5-.7.7-1.3.2-.6.3-1.4.3-2.5 0-1.2-.1-2-.3-2.6-.2-.6-.4-1-.7-1.2-.3-.2-.5-.3-.7-.3-.2-.3-.3-.8-.3-1.3-.1-.6-.1-1.2-.1-1.8 0-.6.1-1.3.1-1.9.1-.6.2-1.1.4-1.6.3 0 .7 0 1.4.1.6 0 1.4.1 2.3.1.9 0 1.8 0 2.7.1h5.3c1.9 0 3.9 0 6.2-.1 2.1.2 4.3.1 6.6 0zm28.9 0c1.5.1 3 .1 4.3.1 1.4 0 2.7.1 4.1.1h7.6c1.2 0 2.3 0 3.5-.1 1.1 0 2.1-.1 3-.1.9 0 1.5-.1 1.9-.1.2.4.3 1 .4 1.6.1.6.1 1.3.1 2s0 1.3-.1 1.9c-.1.6 0 .7-.2 1-1.5.3-5.7 2.6-6.6 9l.8.2c.3-1.3 2.3-5.5 5.7-5.5h.3c.1.7.2 3.3.2 4.3s0 2-.1 2.9c0 .9-.1 1.7-.2 2.5-.1.7-.2 1.2-.2 1.6-1.3 0-2.6-.1-3.8-.1-1.2-.1-2.4-.1-3.7-.2-1.3-.1-2.7-.1-4.3-.1-3.5 0-6.2 0-8.3.1-2 .1-3.5.2-4.3.3-.1-.4-.3-.9-.3-1.5-.1-.6-.1-1.2-.1-1.9s0-1.3.1-1.9v-.3l.1-.2c.5-.2 7.8-1.8 7.3-9.5l-.8-.2c-.3 1.2-.7 2.3-1.2 3.2-.5.9-1.1 1.7-1.9 2.3-.8.6-1.8 1-3.1 1.1-.2-1.2-.3-2.4-.4-3.7-.1-1.3-.1-2.5-.1-3.7 0-1.2.1-2.3.1-3.2 0-.8.1-1.5.2-1.9zm-26.7 0c1.5.1 3 .1 4.3.2s2.7.1 4.1.1h7.6c1.2 0 2.3 0 3.5-.1 1.1 0 2.1-.1 3-.1.9 0 1.5-.1 1.9-.1.2.4.3 1 .4 1.6.1.6.1 1.3.1 2s0 1.3-.1 1.9c-.1.6 0 .7-.2 1-1.5.3-5.7 2.6-6.6 9l.8.2c.3-1.3 2.3-5.5 5.7-5.5h.3c.1.7.2 3.3.2 4.3s0 2-.1 2.9c0 .9-.1 1.7-.2 2.5-.1.7-.2 1.2-.2 1.6-1.3 0-2.6-.1-3.8-.1-1.2-.1-2.4-.1-3.7-.2-1.3-.1-2.7-.1-4.3-.1-3.5 0-6.2 0-8.3.1-2 .1-3.5.2-4.3.3-.1-.4-.3-.9-.3-1.5-.1-.6-.1-1.2-.1-1.9s0-1.3.1-1.9v-.3l.1-.2c.5-.2 7.8-1.8 7.3-9.5l-.8-.2c-.3 1.2-.7 2.3-1.2 3.2-.5.9-1.1 1.7-1.9 2.3-.8.6-1.8 1-3.1 1.1-.2-1.2-.3-2.4-.4-3.7-.1-1.3-.1-2.5-.1-3.7 0-1.2.1-2.3.1-3.2 0-.9.1-1.6.2-2zm68.1 0c.2.4.3.9.3 1.5.1.6.1 1.3.1 2s-.1 1.4-.1 2c-.1.6-.2 1.1-.3 1.5-.4 0-.7.2-.9.5-.2.3-.3.8-.4 1.3 0 .4-.1.8-.1 1.2v3.4c0 .7.5 1.2 1.2 1.2s1.2-.5 1.2-1.2v-.6h-1.2c-.2 0-.4-.3-.4-.6v-.2l.1-1.9c0-.2 0-.4.1-.5v-.2c.8-.1 1.7-.2 2.8-.3h3.2c1.1 0 2 .1 2.8.3.1.5.2 1.1.3 2 .1.9.1 1.8.1 2.8v3.1c0 1-.1 1.9-.1 2.7-.1.8-.1 1.3-.2 1.7-1.8 0-3.6-.1-5.6-.2-1.9-.1-3.9-.2-5.9-.2h-3.2c-1.1 0-2.3.1-3.4.1s-2.1.1-2.9.1c-.9 0-1.5.1-1.9.1-.2-.4-.3-.9-.3-1.5-.1-.6-.1-1.2-.1-1.8 0-.6 0-1.2.1-1.8.1-.5.1-1 .2-1.3.2-.1.5-.2.7-.4.3-.2.5-.6.7-1.2.2-.6.3-1.4.3-2.5s-.1-1.9-.2-2.5c-.2-.6-.4-1-.7-1.3-.3-.3-.5-.4-.9-.4-.2-.4-.3-.9-.3-1.4-.1-.6-.1-1.2-.1-1.8 0-.6.1-1.2.1-1.8.1-.6.2-1.1.4-1.4.4 0 1 .1 1.7.1s1.4.1 2.2.1c.8 0 1.5.1 2.2.1h1.9c.8 0 1.6 0 2.5-.1.9 0 1.7-.1 2.4-.2.6-.4 1.2-.4 1.6-.5zm-96.5 0c.2.4.3.9.4 1.6.1.6.1 1.2.1 1.9 0 .6 0 1.2-.1 1.8-.1.6-.2 1-.3 1.3-.4 0-.8.2-1.2.6-.4.4-.5 1.1-.5 2.2s0 2.2.1 3.2 0 2-.2 2.9c-.4 1.7-1 2.9-2 3.9-1 .9-2.3 1.6-3.9 2-1.6.4-3.7.6-6.1.6-2.1 0-4-.2-5.7-.5-1.7-.3-3-.9-4.1-1.8-1-.9-1.7-2.1-2-3.7-.2-1-.2-2-.2-3 .1-1 .1-2 .1-3 0-.9-.1-1.6-.3-2-.2-.5-.4-.8-.7-1-.3-.2-.5-.3-.9-.3-.2-.3-.3-.8-.3-1.3-.1-.6-.1-1.2-.1-1.8 0-.6.1-1.3.1-1.9.1-.6.2-1.1.4-1.6.5 0 1.1.1 1.9.1.7.1 1.5.1 2.4.2.9 0 1.7.1 2.5.1 1.2 0 2.3 0 3.4-.1.4 0 .8-.1 1.1-.1v10.5c0 1.3 1 2.3 2.3 2.3 1.3 0 2.3-1 2.3-2.3V7.1c.3 0 .6.1 1 .1 1 .1 2.2.1 3.5.1.8 0 1.7 0 2.5-.1.9 0 1.7-.1 2.4-.2 1 0 1.6 0 2.1-.1zM18.4 1c-2.6 0-5 .3-7.1.9-2.4.7-4.4 1.7-6.1 3.1-1.8 1.5-3.2 3.4-4 5.7-.8 2-1.2 4.4-1.2 7 0 2.5.4 4.8 1.2 6.8.9 2.2 2.2 4.1 4 5.6 2.7 2.3 6.3 3.6 10.6 4 .7.9 1.6 1.6 2.6 2.2 1.9 1.1 4.3 1.6 7.1 1.6 2.5 0 4.2 1.3 5.9.4H34c2.6-1.1 2.1-2.4 3-4.1.9.4.6-.9 1.7-.7 2 .4 4.3.6 6.7.6 2.8 0 5.2-.2 7.2-.7 1.5-.3 2.9-.9 4.1-1.6 1 1.1 2.4 1.8 4 1.8h.5c.2 0 .6 0 1.7-.1.9 0 1.9-.1 3-.1s2.3-.1 3.5-.1h3.5c2 0 4.1.1 6.1.2 2.2.1 4.3.2 6.3.2h.1c.4 0 .7 0 1.1-.1.4.1.7.1 1.1.1h.6c.5-.1 1.6-.1 4-.2 2-.1 4.7-.1 8.1-.1 1.5 0 2.9 0 4.1.1 1.3.1 2.5.1 3.7.2 1.3.1 2.6.1 4 .1h.1c.4 0 .7 0 1.1-.1.4.1.7.1 1.1.1h.6c.5-.1 1.6-.1 4-.2 2-.1 4.7-.1 8.1-.1 1.5 0 2.9 0 4.1.1 1.3.1 2.5.1 3.7.2 1.3.1 2.6.1 4 .1h.1c.4 0 .8 0 1.2-.1.4.1.7.1 1.1.1h.5c.2 0 .7-.1 1.7-.1.8 0 1.8-.1 2.9-.1 1.1 0 2.2-.1 3.3-.1h3.1c1.9 0 3.8.1 5.6.2 2 .1 3.9.2 5.8.2h.1c.3 0 .6 0 .9-.1.3 0 .6.1.9.1h.5c.2 0 .6 0 1.7-.1.9 0 1.9-.1 3-.1s2.3-.1 3.5-.1h3.5c2 0 4.1.1 6.1.2 2.2.1 4.3.2 6.3.2h.1c2.4 0 4.4-1.6 5.1-3.9.2-.7.3-1.5.4-2.6.1-.8.1-1.7.1-2.7v-2.8c0-1 0-1.9-.1-2.7v-.7c0-.5-.1-.9-.3-1.4.1-.4.2-.8.2-1.2V16c.1-.8.1-1.7.1-2.7 0-.9 0-1.8-.1-2.6 0-.9-.1-1.8-.2-2.5-.1-.9-.2-1.6-.4-2.3-.6-2.4-2.7-4-5.1-4h-.2c-2.2.1-4.5.2-6.7.2s-4.3.1-6.1.1h-5.1c-.9 0-1.8 0-2.6-.1-.8 0-1.6-.1-2.2-.1-.6 0-1 0-1.3-.1h-.3c-2.1 0-4.1 1.3-4.9 3.3 0 .1-.1.1-.1.2 0-.1-.1-.2-.1-.3-.8-2-2.8-3.3-4.9-3.3h-.4c-.5 0-1.1.1-1.9.2-.7.1-1.4.1-2.2.2-.8 0-1.5.1-2.2.1h-1.7c-.7 0-1.4-.1-2.1-.1-.7 0-1.5-.1-2.1-.1-.6 0-1.2-.1-1.6-.1h-.4c-.4 0-.8 0-1.2.1-.4-.1-.8-.1-1.2-.1h-.5c-.2 0-.6 0-1.6.1-.9 0-1.8.1-3 .1-1.1 0-2.3 0-3.4.1h-7.4c-1.4 0-2.7-.1-4-.1-1.3 0-2.7-.1-4.3-.1h-.2c-.4 0-.8 0-1.2.1-.3-.1-.7-.1-1.1-.1h-.5c-.2 0-.6 0-1.6.1-.9 0-1.8.1-3 .1-1.1 0-2.3 0-3.4.1h-7.4c-1.4 0-2.7-.1-4-.1-1.3 0-2.7-.1-4.3-.1h-.2c-.4 0-.7 0-1.1.1-.4-.1-.7-.1-1.1-.1h-.2c-2.2.1-4.5.2-6.7.2s-4.3.1-6.1.1h-5.1c-.9 0-1.8 0-2.6-.1-.8 0-1.6-.1-2.2-.1-.6 0-1 0-1.3-.1h-.3c-.3 0-.5 0-.8.1-.2 0-.5-.1-.8-.1h-.4c-.5 0-1.2.1-1.9.2s-1.4.1-2.2.1c-.8 0-1.5.1-2.3.1-1.2 0-2.2 0-3-.1-.3 0-.7-.1-1-.1h-.5c-.8 0-1.6.2-2.3.5-.7-.4-1.5-.5-2.3-.5h-.5c-.3 0-.7.1-1.1.1-.9.1-1.8.1-2.9.1-.7 0-1.5 0-2.3-.1-.8 0-1.6-.1-2.2-.1-.7-.1-1.4-.1-1.9-.2h-.4c-1.3 0-2.5.5-3.5 1.3-.9-.4-1.8-.7-2.8-1-2.5-1.2-5-1.5-7.7-1.5z"/></svg>