<svg width="59" height="69" fill="none" xmlns="http://www.w3.org/2000/svg"><path d="M6.757 53.223s-6.534 4.87-3.07 7.24c3.462 2.436 9.605 5.925 9.605 5.925s3.071 3.555 9.606-5.924c5.946-8.558 20.845-22.053 25.158-29.03.523-.856 1.764-.988 2.483-.198 2.614 2.962 4.182 4.871 4.182 4.871s2.157 1.91 2.157-4.344V6.222s1.307-5.003-4.77-3.16c-6.078 1.843-20.454 9.282-20.454 9.282s-5.227 1.777 0 6.121c5.228 4.345 5.228 4.411 5.228 4.411 2.94 2.567-26.661 27.78-30.125 30.347z" fill="#fff"/><path d="M54.46.824c-.85 0-1.765.132-2.876.461-6.011 1.777-19.277 8.623-20.714 9.348-.654.263-2.94 1.316-3.333 3.62-.327 1.843.654 3.752 2.94 5.727l4.575 3.884C32.634 28.735 10.35 48.22 5.712 51.709 4.534 52.565.81 55.593.875 58.753c0 1.316.653 2.435 1.83 3.225 3.201 2.238 8.43 5.266 9.54 5.859.457.395 1.372.987 2.81.987 2.875 0 6.012-2.501 9.41-7.372 2.875-4.082 7.907-9.48 12.808-14.68 5.031-5.332 9.801-10.4 12.22-14.087 2.417 2.765 3.855 4.476 3.855 4.542l.196.197c.196.198.915.724 1.895.724 3.333 0 3.333-4.87 3.333-6.45V6.353c.13-.724.326-2.568-.785-4.082C57.465 1.68 56.355.824 54.46.824zm-16.402 20.67c-.066-.066-.262-.263-.719-.592l-4.509-3.818c-1.438-1.251-1.699-1.975-1.634-2.173.066-.263.654-.658 1.046-.79l.261-.131c.131-.066 14.311-7.373 20.127-9.15.719-.198 1.307-.33 1.83-.33.457 0 .588.066.588.132.13.198.13.79.065 1.12l-.065.263v25.738c0 .724 0 1.317-.066 1.712-.718-.856-1.764-2.04-3.005-3.49-.654-.723-1.569-1.184-2.549-1.184-1.176 0-2.287.592-2.875 1.58-2.091 3.357-6.862 8.492-11.959 13.824-4.966 5.266-10.128 10.73-13.134 15.074-3.725 5.332-5.816 5.793-6.339 5.793-.196 0-.261-.066-.326-.066l-.197-.329h-.26c-.066-.066-6.078-3.489-9.476-5.859l-.196-.197c-.13-.46 1.241-2.502 3.333-4.016 1.764-1.316 9.41-7.767 16.467-14.218C38.907 27.09 38.973 24.588 39.038 23.469c-.13-.724-.392-1.448-.98-1.975z" fill="#F85"/></svg>