<svg version="1.1" id="Слой_1" xmlns="http://www.w3.org/2000/svg" x="0" y="0" viewBox="0 0 265 311" xml:space="preserve"><style>.st0{fill:none;stroke:#293d39;stroke-miterlimit:10}.st1{fill:#c2c155}</style><path class="st0" d="M78.3 296.7l31.6-4.8"/><path class="st1" d="M107.7 293.9c-1.6-.6-1.9-2.7-.8-3.8 6.7-5.4 25.6-17.8 60.3-14.6 28.9 2.7 43.7 3.8 50.4 4.5 1.9.1 2.8 2.5 1.3 3.8-8.6 7.8-30.9 26.3-50.3 25.6-20.1-.7-50.8-11.7-60.9-15.5z"/><path class="st0" d="M215.5 282.9s-42.3 13.2-106.2 9.1m-5.3-44.7l24.7-5.8"/><path class="st1" d="M126.7 243.3c-1.6-.6-1.9-2.7-.8-3.8 6.7-5.4 25.6-17.8 60.3-14.6 28.9 2.7 43.7 3.8 50.4 4.5 1.9.1 2.8 2.5 1.3 3.8-8.6 7.8-30.9 26.3-50.3 25.6-20.2-.6-50.8-11.7-60.9-15.5z"/><path class="st0" d="M234.5 232.3s-42.3 13.2-106.2 9.1m-.5-38.6l28.5-5.3"/><path class="st1" d="M154.3 199.5c-1.6-.4-2.3-2.5-1-3.8 6.1-6 23.6-20.3 58.4-20.7 29-.5 43.8-.6 50.5-.7 2 0 3 2.3 1.6 3.7-7.7 8.7-28.1 29.4-47.4 30.7-20.1 1.4-51.6-6.5-62.1-9.2z"/><path class="st0" d="M260.3 177.5s-40.5 17.5-104.6 19.9m-8.4-32.3l23.5-15.1"/><path class="st1" d="M169.6 152.6c-1.6.1-3-1.5-2.3-3 3.5-7.8 15.1-27.2 47.5-39.7 27-10.6 40.9-15.8 47.1-18.2 1.8-.8 3.5 1 2.9 2.9-4.3 10.8-16.1 37.3-33.8 45.1-18.3 8.3-50.7 11.8-61.4 12.9z"/><path class="st0" d="M261.2 95.2s-32 30.5-91.1 54.9m3-45.9l-3.4 18.3L70.8 311"/><path class="st1" d="M174 106.8c-1.3 1.3-3.3.8-3.8-1-2.3-8.3-5.5-30.7 11.7-60.9 14.2-25.1 21.5-38 24.8-43.8.9-1.6 3.4-1.4 4 .5 3.5 11.1 11.2 39.1 2.5 56.4-9 18-31.7 41.2-39.2 48.8z"/><path class="st0" d="M208.4 4.4s-5.4 43.8-35.6 100.3m-96.4 196l-17.5-27"/><path class="st1" d="M58.7 276.4c1.4.9 3.3 0 3.4-1.6.5-8.6-.9-31.2-24.1-57.3-19.2-21.7-29.1-32.9-33.4-37.9-1.3-1.5-3.7-.6-3.8 1.3-1.2 11.6-2.9 40.5 9.3 55.7 12.6 15.9 39.6 33.9 48.6 39.8z"/><path class="st0" d="M3.6 183.1S18 225 59.4 273.9m41.5-20.3l-12.7-25.3"/><path class="st1" d="M88 231.1c1.4.9 3.3 0 3.4-1.6.5-8.6-.9-31.2-24.1-57.3-19.2-21.7-29.1-32.9-33.4-37.9-1.3-1.5-3.7-.6-3.8 1.3-1.2 11.6-2.9 40.5 9.3 55.7 12.7 15.8 39.7 33.9 48.6 39.8z"/><path class="st0" d="M33 137.8s14.4 41.9 55.8 90.8m34.2-16.2l-15.6-32.2"/><path class="st1" d="M106.9 182.9c1.3 1 3.3.3 3.7-1.4 1.4-8.5 2.2-31-18-59.3C75.7 98.6 67 86.6 63.2 81c-1.1-1.6-3.5-1-4 .8-2.5 11.4-6.9 40 3.5 56.4 10.8 17.2 35.9 37.9 44.2 44.7z"/><path class="st0" d="M61.8 84.4s10 43 46.1 96.2m42.2-20.8l-2.6-28.3"/><path class="st1" d="M145.9 134.4c1 1.8 3.5 1.8 4.5 0 4.9-8.7 15.1-33 4.5-72.2-9-32.7-13.6-49.4-15.7-56.8-.6-2.1-3.4-2.7-4.7-.6-7.2 11.2-23.8 40.7-19.1 62.8 5 23.2 24 56.1 30.5 66.8z"/><path d="M147.9 132.1c-18-72.5-11.6-123.6-11.6-123.6l11.6 123.6z" fill="#527f34"/></svg>