<svg version="1.1" id="Слой_1" xmlns="http://www.w3.org/2000/svg" x="0" y="0" viewBox="0 0 272 380" xml:space="preserve"><style>.st4{fill:none;stroke-miterlimit:10;stroke:#355722}.st6{fill:#77ad55}</style><path d="M42.2 219.7s108-78.3 229.8 25.9c0 0-106.3 52.3-229.8-25.9z" fill="#374f3f"/><path d="M272 245.6L42.2 219.7m163.2-3.4l-48.3 16.3 40.4 23.6m-52.7-45.9l-48.2 16.2 40.5 23.7" fill="none" stroke="#192d1f" stroke-miterlimit="10"/><path d="M41.5 212.2c-.8.3-1.6.8-2.4 1.1 0-.8-.7-32.1 15.5-69.3C72.5 103 111 54.8 193.5 32.1c-.2 1-6.1 40.8-36.8 85.8-.5.7-.9 1.4-1.4 2.1-22.6 32.4-58.1 67.3-113.8 92.2z" fill="#5c893f"/><path d="M41.5 212.2c.3-9.8 2.6-36.4 15.8-66.9 10.8-3.1 21.6-6.2 32.3-9.3 1.7-.5 3.3-.9 5-1.5 7.1-2 14.2-4.1 21.4-5.9 2.8-.8 5.7-1.5 8.6-2.2 8.7-2.2 17.5-4.1 26.2-5.6.9-.1 2.6-.5 4.4-1-22.5 32.6-58 67.5-113.7 92.4z" opacity=".32" fill="#527f34"/><path class="st4" d="M39 213.2l37.6-44 35.3-41.5 4.3-5.1 77.2-90.5"/><path class="st4" d="M130.4 72l-14.1 50.6 43.4-20.8m-69.4 18.3l-14.1 50.6 43.4-20.8"/><path d="M22.8 207.1s71.3-112.9 222.9-61.4c0-.1-79.4 88.1-222.9 61.4z" fill="#659549"/><path class="st4" d="M245.7 145.6L22.8 207.1M173 143.3l-38.8 32.9 46.4 7m-66-23.1l-38.8 33 46.3 7"/><path class="st6" d="M57.7 222.1S191 223.6 227.4 380c0 0-116.5-21.4-169.7-157.9z"/><path class="st4" d="M227.4 380L57.7 222.1M191 316.8L142.5 301l18.6 43.2m-15.2-68.3l-48.5-15.8 18.6 43.1"/><path class="st6" d="M14.1 223S-44.8 102.9 77.8 0c.1.1 33.7 114-63.7 223z"/><path d="M77.9.1L14.1 223m24-161.9l7.9 50.4 30.1-36M22 119.9l7.9 50.4 30.1-36" fill="none" stroke="#c2c155" stroke-miterlimit="10"/></svg>