<svg version="1.1" id="Слой_1" xmlns="http://www.w3.org/2000/svg" x="0" y="0" viewBox="0 0 260 246" xml:space="preserve"><style>.st1{fill:none;stroke:#355722;stroke-miterlimit:10}</style><path d="M63.2 71.3c-10.2-3.3-20.9-6.2-31.5-5-10.7 1.1-21.5 7-25.6 17-4.5 10.9 0 23.9 8.1 32.5s19.3 13.5 30.1 17.8C94.5 154.2 147 169.2 200.4 178c4.8.8 9.8 1.5 14.5.2 4.7-1.3 9.1-5.1 9.4-9.9.4-6.6-24-21.4-29.5-25.8-12.9-10.4-26.4-20.2-40.5-28.8-28.6-18-59.1-32.2-91.1-42.4z" fill="#4b772f"/><path class="st1" d="M42.2 97.9s170.4 69.1 186.2 80l15.8 10.8"/><path d="M42.7 180.7c-10.5 2.7-21 5.9-29.5 12.4s-14.5 17.3-12.9 28c1.8 11.6 12.6 20.4 23.9 23.2 11.4 3 23.4 1.3 35-.7 53.4-9.1 105.8-24.2 156-44.9 4.6-1.9 9.1-3.8 12.5-7.4 3.3-3.5 5-9.2 2.7-13.4-3.1-5.8-31.7-5.4-38.6-6.4-16.4-2.1-33.1-3.1-49.6-3.2-33.6 0-67.1 4.2-99.5 12.4z" fill="#5c893f"/><path class="st1" d="M38.7 214.4s181.1-31.3 200.2-30.4l19.1.9"/><path d="M179.9 27.1C173.3 18.5 166.4 10 157 4.7c-9.3-5.2-21.6-6.7-30.7-1-10 6.3-13.7 19.6-11.9 31.2 1.7 11.7 7.9 22.1 14.3 32.1 29.2 45.9 63.6 88.4 102 126.6 3.5 3.5 7.2 6.9 11.7 8.6 4.5 1.7 10.4 1.1 13.4-2.8 4.1-5.1-7.4-31.3-9.3-38.3-4.6-16-10.1-31.8-16.5-47.1-13.1-30.8-29.9-60.1-50.1-86.9z" fill="#77ad55"/><path class="st1" d="M147.3 36.6s99.4 155.1 106 173.2 6.6 18 6.6 18"/></svg>