<svg width="128" height="52" fill="none" xmlns="http://www.w3.org/2000/svg"><path d="M24.342 3.026v46.36h-9.695v-36.73l-10.323 6.26L0 12.311l15.624-9.286h8.718zm26.369-.894c5.673 0 9.974 2.087 12.904 6.26 2.93 4.127 4.394 10.088 4.394 17.883 0 7.796-1.488 13.78-4.464 17.953-2.93 4.172-7.207 6.259-12.834 6.259-5.626 0-9.904-2.087-12.834-6.26-2.929-4.172-4.394-10.156-4.394-17.952 0-7.795 1.465-13.756 4.394-17.883 2.93-4.173 7.208-6.26 12.834-6.26zm0 7.291c-1.674 0-3.022.55-4.045 1.651-1.023 1.055-1.79 2.82-2.302 5.296-.465 2.43-.697 5.732-.697 9.905 0 4.173.232 7.498.697 9.974.512 2.43 1.279 4.195 2.302 5.296 1.023 1.055 2.371 1.582 4.045 1.582s3.023-.527 4.046-1.582c1.023-1.055 1.79-2.797 2.301-5.227.512-2.477.768-5.824.768-10.043 0-4.264-.256-7.612-.768-10.042-.511-2.476-1.278-4.219-2.301-5.228-1.023-1.054-2.372-1.582-4.046-1.582zM113.701 0l6.278 3.92L87.615 52l-6.207-3.92L113.7 0zM85.384 2.132c2.324 0 4.394.505 6.207 1.514 1.86.962 3.302 2.384 4.325 4.264 1.069 1.834 1.604 3.966 1.604 6.397 0 2.43-.535 4.585-1.605 6.466a10.68 10.68 0 01-4.324 4.264c-1.813.963-3.883 1.445-6.207 1.445-2.279 0-4.348-.482-6.208-1.445-1.814-1.009-3.255-2.43-4.325-4.264-1.07-1.88-1.604-4.036-1.604-6.466 0-2.43.535-4.563 1.604-6.397 1.07-1.88 2.511-3.302 4.325-4.264 1.86-1.01 3.929-1.514 6.207-1.514zm0 5.984c-3.209 0-4.813 2.064-4.813 6.19 0 1.79.349 3.28 1.046 4.472.744 1.146 2 1.72 3.766 1.72 3.162 0 4.743-2.064 4.743-6.191s-1.58-6.19-4.743-6.19zm30.48 18.022c2.325 0 4.394.504 6.207 1.513 1.86.963 3.302 2.384 4.325 4.264 1.069 1.835 1.604 3.967 1.604 6.397s-.535 4.563-1.604 6.397a10.682 10.682 0 01-4.325 4.264c-1.86 1.01-3.929 1.514-6.207 1.514-2.279 0-4.348-.505-6.208-1.514a11.147 11.147 0 01-4.394-4.264c-1.07-1.834-1.604-3.967-1.604-6.397s.534-4.562 1.604-6.397c1.069-1.88 2.534-3.301 4.394-4.264 1.86-1.009 3.929-1.513 6.208-1.513zm0 5.984c-3.209 0-4.813 2.063-4.813 6.19 0 1.788.349 3.279 1.046 4.471.744 1.146 2 1.72 3.767 1.72 3.162 0 4.743-2.064 4.743-6.19 0-4.128-1.581-6.191-4.743-6.191z" fill="#fff"/></svg>