<svg version="1.1" id="Слой_1" xmlns="http://www.w3.org/2000/svg" x="0" y="0" viewBox="0 0 320 320" xml:space="preserve"><style>.st0{fill:none;stroke:#293d39;stroke-miterlimit:10}.st1{fill:#293d39}.st2{fill:none;stroke:#6f9e7c;stroke-linecap:round;stroke-linejoin:round;stroke-miterlimit:10}</style><path class="st0" d="M259.1 281.8l10.4-33.3"/><path class="st1" d="M270.4 251.4c-1.3 1.3-3.7.6-4.1-1.3-2.2-9.1-5-33.7 14.8-66.1 16.4-27 24.8-40.9 28.6-47.2 1.1-1.8 3.7-1.5 4.4.6 3.5 12.3 10.8 43 .9 61.7-10.6 19.7-36 44.4-44.6 52.3z"/><path class="st2" d="M311.3 140.7s-7.4 47.7-42.2 108.3"/><path class="st0" d="M223 232.6l6.3-27"/><path class="st1" d="M230.1 208.5c-1.3 1.3-3.7.6-4.1-1.3-2.2-9.1-5-33.7 14.8-66.1 16.4-27 24.8-40.9 28.6-47.2 1.1-1.8 3.7-1.5 4.4.6 3.5 12.3 10.8 43 .9 61.7-10.5 19.7-36 44.2-44.6 52.3z"/><path class="st2" d="M271.1 97.5s-7.4 47.7-42.2 108.3"/><path class="st0" d="M190.9 187.7l8.6-30.4"/><path class="st1" d="M200.6 160.2c-1.2 1.4-3.5 1-4-.8-3.2-8.8-8.5-32.9 7.7-67.3 13.5-28.6 20.4-43.1 23.5-49.8.9-1.9 3.6-1.8 4.4 0 4.8 11.8 15.3 41.7 7.2 61.2-8.3 20.6-31.1 47.7-38.8 56.7z"/><path class="st2" d="M229.9 45.7s-2.4 48.2-30.8 112.1"/><path class="st0" d="M163.6 150.4l-3.6-30.3"/><path class="st1" d="M162 122.3c-.6 1.7-3 2.1-4.2.7-5.9-7.2-19.3-28-15.9-65.8 2.8-31.5 4.1-47.6 4.9-54.9.2-2.1 2.8-3 4.2-1.5 8.5 9.4 28.6 33.8 28 55-.8 22.2-12.8 55.5-17 66.5z"/><path class="st2" d="M149.9 4.9s14.4 46.1 9.9 115.9"/><path class="st0" d="M116.3 95.5l16.3 12.3 136.9 188.1"/><path class="st1" d="M119.4 96c.5 1.8-1 3.4-2.8 3.2-9.1-1.9-32.6-9.4-53.9-40.9C45 32.2 36 18.7 31.8 12.7c-1.2-1.7.2-4.1 2.4-3.8 12.5 1.9 43.6 7.9 56.3 24.8 13.4 17.7 25.1 51.1 28.9 62.3z"/><path class="st2" d="M35.8 12.5S76 39.1 116.5 95.9"/><path class="st0" d="M261.9 285.6l-34.8 3.9"/><path class="st1" d="M229.6 291c1.5-.9 1.6-3.4.1-4.2-8.1-4.6-30.8-14.1-67.6-4.3-30.5 8.3-45.9 12.4-53.2 14.4-2 .5-2.4 3.3-.6 4.4 10.7 6.8 38.3 22.4 58.9 17.9 21.8-4.5 52.6-22.2 62.4-28.2z"/><path class="st2" d="M112.1 299.7s47.8 6.2 115.6-10.6"/><path class="st0" d="M227.6 238.6l-30.6.2"/><path class="st1" d="M199.5 240.3c1.5-.9 1.6-3.4.1-4.2-8.1-4.6-30.8-14.1-67.6-4.3-30.5 8.3-45.9 12.4-53.2 14.4-2 .5-2.4 3.3-.6 4.4 10.7 6.8 38.3 22.4 58.9 17.9 21.8-4.5 52.4-22.1 62.4-28.2z"/><path class="st2" d="M82 249s47.8 6.2 115.6-10.6"/><path class="st0" d="M198 197l-38.9-.3"/><path class="st1" d="M161.4 198.5c1.6-.8 1.9-3 .4-4.1-7.6-5.5-29.2-17.3-66.7-11.2-31.1 4.9-47 7.5-54.4 8.7-2.1.4-2.8 3-1 4.3 9.9 7.9 35.8 26.3 56.9 23.9 21.9-2.3 54.3-16.6 64.8-21.6z"/><path class="st2" d="M43.6 194.8s46.9 11.1 116.1 1.5"/><path class="st0" d="M159.6 144.9l-28.8-11"/><path class="st1" d="M132.7 136.8c2.2-.2 3.4-2.7 2.2-4.4-6.2-8.9-25-30.7-68.5-39.2-36.2-7.1-54.6-10.7-63-12.4C1 80.3-.9 83 .5 85c7.8 12.6 28.6 43.2 52.3 49.2 25.2 6.3 66.4 3.7 79.9 2.6z"/><path class="st2" d="M5.2 85.3s46.8 31.1 126.4 48.5"/></svg>