<svg width="65" height="117" fill="none" xmlns="http://www.w3.org/2000/svg"><g clip-path="url(#clip0_150_155)"><path d="M94.616 90.222c.41-.41.216-1.053-.278-1.243-2.74-.736-10.093-1.916-20.119 3.703-8.346 4.687-12.64 7.015-14.568 8.105-.553.293-.499 1.135.126 1.311 3.63 1.204 12.836 3.79 18.586.948 5.957-2.89 13.72-10.325 16.253-12.824z" fill="#C2C155"/><path d="M60.685 101.373s14.5-1.693 33.184-11.5" stroke="#293D39" stroke-miterlimit="10"/><path d="M82.11 77.533c.409-.41.215-1.053-.279-1.243-2.74-.736-10.093-1.916-20.119 3.703-8.346 4.687-12.639 7.015-14.568 8.105-.553.293-.498 1.135.126 1.311 3.63 1.204 12.836 3.79 18.586.948 6.012-2.869 13.72-10.325 16.254-12.824z" fill="#C2C155"/><path d="M48.178 88.684s14.5-1.693 33.184-11.5" stroke="#293D39" stroke-miterlimit="10"/><path d="M67.932 68.053c.443-.335.346-1.067-.203-1.277-2.633-1.011-9.822-2.95-20.376 1.584-8.806 3.753-13.268 5.701-15.298 6.563-.608.271-.608 1.092-.005 1.324 3.483 1.588 12.406 5.076 18.405 2.897 6.226-2.281 14.678-8.884 17.477-11.091z" fill="#C2C155"/><path d="M33.047 75.619s14.542-.163 34.18-8.027m-1.814-10.857l-9.092-1.407" stroke="#293D39" stroke-miterlimit="10"/><path d="M57.017 55.974c.511-.183.71-.864.28-1.218-2.111-1.883-8.206-6.18-19.641-5.581-9.549.438-14.437.708-16.62.817-.633.01-.928.78-.485 1.265 2.743 2.694 9.86 9.086 16.225 9.067 6.661.032 16.86-3.25 20.241-4.35z" fill="#C2C155"/><path d="M21.737 50.955s13.735 4.892 34.79 4.326m-7.054-13.438l3.473 5.057 55.06 43.538" stroke="#293D39" stroke-miterlimit="10"/><path d="M49.56 42.761c.55.21 1.09-.213 1.005-.814-.43-2.816-2.468-9.972-11.686-16.792-7.652-5.651-11.578-8.546-13.342-9.854-.485-.376-1.211.04-1.148.695.421 3.823 1.89 13.285 6.823 17.325 5.112 4.234 15.056 8.177 18.349 9.44z" fill="#C2C155"/><path d="M25.444 16.527s7.491 12.469 24.172 25.435M63.869 55.51l-3.021-8.86" stroke="#293D39" stroke-miterlimit="10"/><path d="M61.73 47.305a.86.86 0 01-1.368.611c-2.646-1.962-8.981-7.928-11.023-21.145-1.674-11.057-2.535-16.69-2.885-19.222-.097-.732.672-1.257 1.322-.818 3.668 2.417 12.633 9.077 14.18 16.361 1.587 7.678.277 20.114-.226 24.213z" fill="#C2C155"/><path d="M60.818 46.892C56.524 22.648 47.75 8.109 47.75 8.109l13.068 38.783z" fill="#527F34"/></g><defs><clipPath id="clip0_150_155"><path fill="#fff" transform="matrix(-.3583 .9336 .9336 .3583 30.402 0)" d="M0 0h84.853v104.973H0z"/></clipPath></defs></svg>