<?xml version="1.0" standalone="no"?>
<!DOCTYPE svg PUBLIC "-//W3C//DTD SVG 20010904//EN"
 "http://www.w3.org/TR/2001/REC-SVG-20010904/DTD/svg10.dtd">
<svg version="1.0" xmlns="http://www.w3.org/2000/svg"
 width="700.000000pt" height="700.000000pt" viewBox="0 0 700.000000 700.000000"
 preserveAspectRatio="xMidYMid meet">
<metadata>
Created by potrace 1.14, written by Peter Selinger 2001-2017
</metadata>
<g transform="translate(0.000000,700.000000) scale(0.100000,-0.100000)"
fill="#000000" stroke="none">
<path d="M3128 6544 c-359 -48 -732 -211 -1004 -439 -123 -103 -206 -203 -260
-309 -36 -71 -44 -98 -44 -141 0 -124 57 -179 194 -188 57 -4 73 -9 88 -27 52
-64 13 -91 -262 -179 -299 -95 -492 -189 -663 -323 -27 -21 -55 -38 -62 -38
-32 0 -30 137 5 255 23 79 24 112 3 123 -22 13 -45 6 -131 -39 -151 -79 -354
-276 -424 -413 -58 -113 -65 -205 -27 -346 14 -50 23 -114 23 -155 1 -60 -4
-78 -30 -125 -40 -71 -80 -181 -88 -245 -8 -63 -15 -85 -26 -85 -32 0 -150
215 -250 455 -22 55 -45 109 -50 120 -5 11 -22 56 -38 99 -30 81 -34 82 -46
11 -3 -16 -8 -43 -12 -58 -13 -62 -15 -88 -19 -237 -5 -175 7 -256 57 -398 65
-185 177 -364 346 -555 76 -86 72 -103 -23 -110 -25 -2 -30 -7 -31 -29 -1 -37
42 -123 78 -153 17 -15 68 -45 112 -67 45 -22 89 -50 99 -62 30 -34 19 -86
-99 -473 -18 -62 -36 -123 -38 -135 -26 -127 -26 -128 1 -128 24 0 75 63 196
239 128 187 182 251 210 251 38 0 89 -32 164 -102 97 -92 118 -107 216 -147
229 -94 427 -67 572 77 88 88 210 309 290 526 50 135 48 143 -44 175 -84 29
-148 83 -195 163 -88 150 -30 336 135 435 137 82 294 77 422 -13 83 -59 104
-141 83 -318 -10 -82 -1 -94 66 -90 128 8 155 24 318 191 75 77 156 153 182
171 98 67 210 69 305 4 58 -40 165 -145 197 -192 21 -32 21 -67 -1 -78 -10 -5
-47 -10 -83 -11 -98 -3 -136 -16 -189 -69 -105 -105 -109 -293 -7 -393 95 -93
241 -123 344 -70 56 29 85 69 138 194 61 141 96 158 163 80 23 -27 41 -51 41
-55 0 -14 119 -184 167 -237 26 -30 72 -77 102 -105 126 -119 151 -148 152
-174 3 -66 -2 -87 -28 -120 -31 -38 -246 -193 -454 -325 -153 -98 -189 -127
-189 -156 0 -16 12 -24 58 -36 111 -31 130 -43 160 -104 23 -48 27 -68 27
-141 -1 -97 -26 -166 -85 -233 -106 -122 -315 -149 -466 -62 -66 39 -72 66
-48 241 10 76 -46 87 -160 30 -139 -68 -261 -176 -361 -316 -64 -90 -87 -113
-117 -112 -24 0 -145 39 -163 52 -5 4 -26 13 -45 19 -44 14 -254 129 -258 142
-2 5 -8 9 -14 9 -39 0 -202 165 -236 238 -24 51 -27 69 -27 162 1 92 4 112 27
160 59 127 145 161 269 108 26 -10 52 -30 59 -43 12 -23 11 -83 -4 -189 -13
-85 108 -181 225 -179 73 2 140 34 205 98 58 57 84 120 84 200 0 140 -87 322
-193 403 -182 140 -424 202 -662 168 -46 -7 -53 -11 -85 -59 -53 -77 -150
-169 -211 -198 -71 -35 -141 -49 -243 -49 l-82 0 -41 -41 c-23 -22 -53 -65
-67 -95 -46 -96 -97 -109 -208 -53 -97 49 -151 34 -141 -38 7 -50 23 -78 75
-134 118 -125 149 -164 176 -222 68 -145 45 -218 -94 -298 -45 -25 -54 -35
-54 -58 0 -44 20 -60 109 -82 114 -29 241 -81 317 -131 84 -56 96 -81 79 -168
-9 -48 7 -84 54 -118 71 -52 149 -65 391 -67 182 -1 222 -5 259 -20 76 -32 86
-105 25 -194 -13 -20 -24 -41 -24 -48 0 -19 100 -62 175 -73 133 -21 271 -6
369 41 23 10 101 66 175 124 174 135 258 178 347 179 47 1 67 -3 75 -14 13
-20 6 -77 -14 -120 -48 -106 -60 -159 -34 -161 165 -16 362 72 672 301 237
175 325 219 370 186 28 -20 25 -59 -14 -206 -24 -89 -26 -114 -7 -129 31 -25
200 68 312 172 122 113 208 239 344 502 105 204 144 261 197 295 66 42 100 27
125 -55 21 -71 25 -96 33 -192 11 -132 12 -136 30 -149 15 -11 22 -10 46 7 53
38 111 125 149 225 44 118 59 216 55 368 -3 148 -4 157 -36 276 -38 140 -43
169 -31 196 12 26 47 44 91 46 50 2 63 10 82 51 38 84 22 177 -62 360 -45 98
-49 109 -34 123 33 33 -10 155 -116 330 -48 81 -160 230 -183 247 -15 10 14
29 34 21 8 -3 87 -49 175 -101 233 -140 329 -180 320 -134 -5 29 -42 97 -101
188 -57 86 -71 113 -60 113 14 0 73 -34 156 -90 99 -66 278 -180 284 -180 2 0
0 18 -5 41 -26 113 -141 268 -261 350 -31 21 -59 43 -63 48 -5 9 75 -20 150
-54 133 -59 205 -79 205 -54 0 6 -46 56 -101 112 -56 56 -124 135 -152 177
-63 93 -147 175 -255 247 -219 146 -492 258 -1032 423 -58 18 -109 36 -113 40
-36 33 414 45 568 16 11 -2 62 -9 113 -16 84 -12 95 -11 110 3 15 15 14 19
-14 54 -40 49 -160 109 -338 169 -162 54 -201 72 -237 108 -39 39 -29 73 29
98 36 16 66 20 141 20 53 -1 107 -3 121 -6 13 -3 40 -8 60 -11 41 -6 84 -15
190 -39 161 -37 320 -91 434 -148 76 -38 215 -123 226 -137 18 -25 174 -141
189 -141 10 0 22 10 28 23 39 84 -57 209 -285 372 -51 36 -92 70 -92 75 0 35
97 53 195 37 87 -14 268 -82 380 -143 207 -112 300 -171 395 -249 99 -81 134
-105 170 -115 34 -10 39 4 18 43 -10 21 -90 128 -113 153 -69 77 -155 195
-155 214 0 15 5 16 43 9 23 -4 62 -15 86 -23 24 -9 53 -16 64 -16 17 0 19 5
14 39 -11 84 -145 227 -407 435 -128 101 -430 304 -597 399 -117 67 -176 100
-403 220 -41 22 -76 41 -78 42 -2 2 -9 26 -17 55 -15 57 -40 90 -96 125 -61
39 -115 54 -254 70 -132 15 -176 16 -395 15 -591 -5 -594 -5 -793 83 -124 55
-173 71 -262 83 -27 3 -54 9 -59 12 -19 11 -346 8 -438 -4z m1642 -617 c14 -4
52 -9 85 -13 33 -3 69 -7 80 -9 11 -1 45 -6 75 -10 30 -4 58 -9 61 -11 4 -2
24 -6 45 -9 112 -17 411 -102 567 -161 56 -21 67 -30 67 -49 0 -48 -19 -47
-170 6 -198 68 -367 113 -560 145 -25 4 -47 8 -50 9 -3 1 -36 5 -75 9 -38 5
-79 10 -90 13 -33 8 -516 12 -575 5 -84 -10 -100 -6 -100 28 0 37 7 41 93 49
83 8 510 6 547 -2z m318 -231 c23 -3 59 -8 80 -10 198 -22 510 -95 692 -162
71 -27 89 -48 66 -80 -12 -15 -20 -14 -107 14 -194 64 -367 108 -497 128 -20
3 -55 9 -77 14 -22 5 -74 12 -115 16 -41 3 -79 9 -85 12 -5 4 -145 7 -309 7
-272 0 -300 2 -310 17 -16 27 6 42 72 49 68 7 529 3 590 -5z m52 -210 c107 -9
256 -41 390 -82 129 -40 160 -56 160 -83 0 -42 -22 -42 -145 -1 -65 22 -127
42 -139 44 -12 3 -53 11 -91 20 -106 22 -122 25 -215 33 -138 12 -328 6 -424
-13 -87 -17 -89 -17 -102 1 -20 28 -1 52 48 61 63 10 86 13 163 20 39 4 71 7
72 8 4 4 213 -3 283 -8z m-2289 -451 c24 -8 25 -52 2 -59 -10 -3 -45 -8 -78
-11 -33 -3 -71 -7 -85 -10 -34 -5 -148 -13 -304 -21 -71 -3 -138 -7 -148 -9
-24 -5 -34 20 -20 51 8 16 19 23 34 23 50 -3 375 18 470 30 86 11 110 12 129
6z m754 -160 c100 -8 125 -17 125 -44 0 -37 -25 -43 -105 -27 -107 23 -607 24
-723 1 -11 -2 -47 -6 -78 -10 -208 -22 -331 -72 -371 -149 -22 -43 -20 -120 6
-187 64 -167 213 -285 453 -356 88 -26 104 -28 288 -28 173 0 293 6 425 20 22
3 69 7 105 10 36 3 89 9 118 14 79 12 204 13 235 2 28 -11 37 -44 16 -57 -6
-3 -68 -8 -138 -9 -69 -2 -137 -6 -151 -9 -14 -3 -59 -8 -100 -11 -41 -3 -86
-8 -100 -10 -79 -13 -220 -20 -405 -20 -201 0 -214 2 -310 29 -271 78 -429
209 -500 413 -53 152 -9 275 124 343 64 32 249 71 406 86 39 4 72 8 74 10 6 5
506 -4 606 -11z m-2383 -1852 c22 -21 50 -58 61 -82 32 -72 21 -212 -17 -219
-28 -6 -48 18 -40 47 24 85 5 158 -53 207 -30 26 -35 36 -29 58 9 36 28 33 78
-11z"/>
</g>
</svg>
