<svg version="1.1" id="Слой_1" xmlns="http://www.w3.org/2000/svg" x="0" y="0" viewBox="0 0 114 114" xml:space="preserve"><style>.st0{fill:#fff;stroke:#000}</style><path class="st0" d="M8.5 17.6C25.8 3.1 50.6 4 71.8 8.2c4.8 1 10.4 3.8 15.8 7.5s10.5 8.2 14.2 12.6c.8.9 1.6 1.8 2.3 2.7 3.5 4 6.6 7.5 7.8 12.7 2.1 10 2.8 18.7-2 28.3-9.4 18.5-29.4 30.7-50.9 36.9-12.9 3.7-24.9.8-35.3-7.3-9-7-15.2-16.2-19.5-26.9-5-12.7-4.2-26-2-39.3.2-1.6.2-3.1.1-4.5s-.2-2.8.1-4.1c.3-1.8 1-3.5 2-5 1.2-1.5 2.5-2.9 4.1-4.2z"/><path d="M14.5 29.4c1-1.2 2-2.2 3.3-3.3 13.8-11.4 33.6-10.8 50.6-7.4 3.8.8 8.3 3 12.6 5.9 4.3 2.9 8.4 6.5 11.3 10 .6.7 1.3 1.4 1.9 2.1 2.8 3.2 5.3 5.9 6.2 10.1 1.7 8 2.3 14.8-1.6 22.4-7.5 14.6-23.5 24.4-40.7 29.2h0c-10.3 3-19.9.6-28.2-5.8h0c-7.1-5.6-12-12.9-15.4-21.3h0c-4-10.1-3.4-20.6-1.7-31.1h0c.2-1.3.1-2.5.1-3.6-.1-1.1-.1-2.2 0-3.3.3-1.4.9-2.7 1.6-3.9z" fill="#4d30ff" stroke="#000"/><path class="st0" d="M54 68.2l-.4.2s-.1.1-.2.1c-.2.1-.4.3-.7.4-.6.3-1.3.6-2 .6-.3 0-.7-.1-1.2-.5-.5-.3-1.1-.9-1.6-1.6-1-1.5-1.9-3.7-1.9-6.9 0-2.6-.2-4.8-.3-6.6 0-.5-.1-1-.1-1.5-.1-1-.1-1.9 0-2.6 0-.7.2-1.1.3-1.4.5-.8.8-1.2.9-1.4 0-.1.1-.1.1-.2l1.6-1.4c1-.1 2.3.1 3.7.6 1.5.5 3.1 1.3 4.5 2.3h.1l.2.2c.2.1.5.4.8.6.6.5 1.5 1.2 2.4 1.9 1.8 1.5 3.7 3 4.1 3.4.4.4.9.8 1.1 1.3.2.4.3.9.1 1.4l-.1.1c-.1.1-.1.3-.3.5-.3.5-.4.6-1 1.2-1.2 1.4-.5.7-2.1 2.3-3 2.7-2.3 2.2-3.3 3.3l-2.3 2.2-2.4 1.5z"/></svg>