<svg width="230" height="30" fill="none" xmlns="http://www.w3.org/2000/svg"><path d="M224.189 6.935h-1.536v4.429h-1.032v-4.43h-1.545V6h4.113v.935zm4.779 1.647l.113-1.065h-.045l-.324.858-1.123 2h-.331l-1.183-2.007-.331-.85h-.038l.151 1.057v2.789h-.979V6h.941l1.409 2.452.248.613h.031l.226-.628L229.066 6H230v5.364h-1.032V8.582zM47.842 23.017c-1.724 0-3.14-.08-4.25-.239-1.097-.16-1.965-.431-2.605-.817a3.165 3.165 0 01-1.312-1.593c-.235-.678-.353-1.528-.353-2.55V9.31h4.7v7.252c0 .585.04 1.063.118 1.435.078.358.248.637.51.837.274.199.665.338 1.175.418.522.066 1.22.1 2.095.1h.313c.862 0 1.548-.034 2.057-.1.522-.08.914-.22 1.175-.418.274-.2.45-.479.529-.837.078-.372.117-.85.117-1.435V9.31h4.701v8.507c0 1.023-.117 1.873-.353 2.55-.222.665-.646 1.196-1.273 1.594-.626.386-1.495.658-2.605.817-1.11.16-2.54.24-4.289.24h-.45zm31.17-.159h-6.483l-7.325-9.703h-.078v9.703h-4.544V9.31h6.659l7.168 9.643h.078V9.31h4.525v13.548zm8.504 0h-4.7V9.31h4.7v13.548zm22.447-6.595c0 .943-.04 1.767-.118 2.47-.065.692-.209 1.283-.431 1.774a2.99 2.99 0 01-.96 1.175c-.404.306-.94.552-1.606.738-.665.172-1.488.292-2.467.358-.98.053-2.142.08-3.487.08h-9.577V9.31h9.577c1.319 0 2.462.027 3.428.08.966.053 1.782.166 2.448.339.666.159 1.208.392 1.626.697.418.292.744.684.979 1.175.235.492.392 1.09.47 1.793.078.691.118 1.521.118 2.49v.38zm-9.421 3.029c1.11 0 1.978-.034 2.605-.1.64-.066 1.116-.206 1.43-.418.313-.226.509-.545.587-.957.078-.411.118-.962.118-1.653v-.24c0-.677-.04-1.215-.118-1.613-.078-.412-.274-.724-.587-.936-.314-.226-.79-.372-1.43-.439-.627-.066-1.495-.1-2.605-.1h-4.524v6.456h4.524zm22.12-3.367c.64 0 1.149-.014 1.528-.04.379-.04.666-.113.862-.22a.782.782 0 00.372-.477c.065-.2.098-.472.098-.817v-.24c0-.331-.033-.597-.098-.796a.713.713 0 00-.372-.459c-.196-.119-.483-.192-.862-.219a15.36 15.36 0 00-1.528-.06h-4.602v3.328h4.602zm7.58 6.933H125.6v-1.255c0-.545-.039-.976-.117-1.295a1.18 1.18 0 00-.529-.757c-.274-.173-.673-.286-1.195-.339a21.996 21.996 0 00-2.115-.08h-3.584v3.726h-4.662V9.31h10.89c1.201 0 2.187.067 2.957.2.771.132 1.378.365 1.822.697.444.319.75.744.92 1.275.17.531.255 1.195.255 1.992v.478c0 .943-.163 1.687-.49 2.232-.313.544-.835.95-1.567 1.215v.06a3.8 3.8 0 01.999.358c.274.133.49.32.647.558.156.24.261.545.313.917.065.358.098.81.098 1.354v2.212zm22.414 0h-5.014l-1.195-2.351h-8.128l-1.175 2.351h-4.955l7.54-13.548h5.308l7.619 13.548zm-7.795-5.479l-2.468-4.881h-.078l-2.429 4.881h4.975zm18.317 5.638c-1.319 0-2.461-.033-3.427-.1-.954-.066-1.77-.192-2.449-.378-.666-.186-1.214-.438-1.645-.757a3.246 3.246 0 01-.979-1.235c-.235-.505-.398-1.11-.49-1.813a23.192 23.192 0 01-.117-2.51v-.3c0-.969.039-1.812.117-2.53.092-.717.255-1.328.49-1.832a3.25 3.25 0 01.999-1.216c.431-.319.979-.564 1.645-.737.679-.173 1.495-.292 2.448-.359.966-.066 2.102-.1 3.408-.1h.627c1.684 0 3.055.067 4.113.2 1.057.133 1.886.365 2.487.697.601.32 1.012.758 1.234 1.315.222.558.333 1.255.333 2.092v.518h-4.642v-.219a.999.999 0 00-.137-.538c-.078-.16-.248-.285-.509-.378-.248-.093-.62-.16-1.117-.2-.483-.04-1.122-.06-1.919-.06h-.352c-1.058 0-1.894.034-2.507.1-.614.067-1.071.213-1.371.439-.301.225-.49.564-.568 1.016-.079.451-.118 1.062-.118 1.833v.159c0 .77.033 1.381.098 1.833.078.451.268.797.568 1.036.313.239.77.398 1.371.478.614.066 1.456.1 2.527.1h.352c.94 0 1.678-.027 2.213-.08.549-.053.96-.14 1.234-.259.274-.12.444-.279.509-.478.079-.2.118-.445.118-.737v-.16h-4.799v-2.67h9.206v2.87c0 .982-.124 1.8-.373 2.45-.235.638-.665 1.142-1.292 1.514-.627.372-1.482.631-2.566.777-1.071.146-2.435.22-4.093.22h-.627zm21.204 0c-1.332 0-2.488-.033-3.467-.1-.966-.052-1.789-.165-2.468-.338-.679-.173-1.234-.412-1.665-.717a3.18 3.18 0 01-.998-1.235c-.235-.505-.399-1.116-.49-1.833a23.962 23.962 0 01-.118-2.55v-.32c0-.982.04-1.832.118-2.55.091-.717.255-1.321.49-1.812a3.18 3.18 0 01.998-1.236c.431-.318.986-.564 1.665-.737.679-.172 1.502-.285 2.468-.339a52.37 52.37 0 013.467-.1h.607c1.332 0 2.481.034 3.447.1.979.054 1.808.167 2.487.34.679.172 1.228.418 1.645.736.431.32.764.73.999 1.236.235.491.392 1.095.47 1.813.092.717.137 1.567.137 2.55v.319c0 .982-.045 1.832-.137 2.55-.078.717-.235 1.328-.47 1.833a3.174 3.174 0 01-.999 1.235c-.417.305-.966.544-1.645.717-.679.173-1.508.286-2.487.339-.966.066-2.115.1-3.447.1h-.607zm.489-3.606c1.084 0 1.926-.026 2.527-.08.613-.066 1.07-.212 1.371-.438.3-.226.483-.55.548-.976.079-.438.118-1.036.118-1.793v-.16c0-.743-.039-1.334-.118-1.773-.065-.438-.248-.763-.548-.976-.301-.226-.758-.365-1.371-.418-.601-.067-1.443-.1-2.527-.1h-.352c-1.084 0-1.933.033-2.546.1-.614.053-1.071.192-1.371.418-.301.213-.483.538-.549.976-.065.439-.098 1.03-.098 1.774v.159c0 .757.033 1.355.098 1.793.066.425.248.75.549.976.3.226.757.372 1.371.439.613.053 1.462.08 2.546.08h.352zm31.169 3.447h-6.482l-7.325-9.703h-.079v9.703h-4.543V9.31h6.659l7.168 9.643h.078V9.31h4.524v13.548zM8.797 5.148a.856.856 0 00.246.172c.247.129.862-.086.903.3v.173c-.082.301-1.272.473-2.709 1.119A9.24 9.24 0 005.35 8.116l-.04.043c-.206.172-.247-.559-.042-1.247.041-.086.041-.173.082-.259v-.215c.041-.516-1.108.301-1.272.43-.041 0-.041.044-.041.044-2.996 2.667-.739 3.398-1.519 4.69-.369.644-.41 1.204-.451 1.462-.041.215-.082.258-.287-.043-.247-.344-.37-.602-.821-1.678-.246-.56-.37-.947-.493-1.248C.301 9.665.26 9.45.26 9.493c-.41 1.85-.657 3.872 1.847 6.712.37.43-.493.258-.451.387.123 1.205 1.19 1.076 1.436 1.549.164.301-.944 3.27-.78 3.528.041.086.164 0 .288-.13.492-.559 1.436-2.409 1.764-2.28.74.302.657.689 1.355 1.076.41.215.903.387 1.313.43h.082c.247 0 .452 0 .657-.043.164-.043.37-.129.534-.215.41-.258.738-.688 1.026-1.162l.246-.516c.451-.903.739-1.85.739-1.936-.041-.172-.329-.129-.698-.344-.41-.258-.821-.817-.821-1.42 0-.86.78-1.592 1.6-1.678.288-.043.575 0 .863.13.287.128.533.3.656.559.37.645-.123 1.505.123 1.634.082.044.329.044.575 0 .246-.042.451-.129.616-.3 1.067-1.12 1.395-1.679 2.134-1.722.574-.043 1.067.517 1.354.818.165.172.452.516.37.688-.123.258-.698-.043-1.19.301-.042.043-.124.086-.165.13-.328.344-.533 1.032-.287 1.591.328.775 1.313 1.033 1.847.732.698-.345.657-1.55 1.108-1.592.041 0 .123 0 .164.043.165.129.329.43.534.774.41.689.82 1.119 1.108 1.42.164.13.287.258.37.344.246.215.369.387.328.732-.041.344-.247.473-1.19 1.161-1.109.818-1.889 1.205-1.97 1.463v.086c.04.215.533.086.902.43.083.086.123.215.165.302.164.387.123.946-.042 1.333-.41.947-1.436 1.248-2.421.775-.328-.172-.37-.43-.328-.732 0-.215.082-.473.082-.602 0-.086 0-.13-.082-.172-.247-.215-1.068.301-1.56.731-.944.818-1.026 1.635-1.478 1.506-.492-.129-2.503-.99-3.16-2.065-.41-.688-.287-1.764.205-2.237.288-.258.74-.301 1.232.086.246.602-.247.99.123 1.42.78.903 1.765.3 2.134-.345a3.05 3.05 0 00.123-.344c.164-.817-.37-1.893-.82-2.28-1.15-.903-2.3-1.033-3.407-.817-.288.473-.616.903-1.026 1.161-.37.258-1.026.344-1.56.301h-.082c-.328.302-.41.388-.534.732-.04.086-.082.129-.123.215-.164.172-.41.215-.657.086-.205-.13-.41-.258-.574-.258-.123 0-.205 0-.246.129-.206.903 1.23 1.162 1.354 2.667 0 .13-.082.302-.205.43-.123.13-.287.259-.452.345-.04 0-.04.043-.082.043-.246.129-.205.516.082.559.698.13 2.422.774 2.176 1.377-.288.645.41 1.204 2.216 1.075 1.19-.086 1.437.258 1.354.646a1.566 1.566 0 01-.164.387c-.04.043-.082.129-.123.172-.205.301 1.56.86 2.668.172.574-.344 1.683-1.635 2.545-1.42.082 0 .123.043.164.13.082.215-.164.645-.288.989-.082.215-.082.344.165.344 1.888 0 3.899-2.624 4.678-2.452.042 0 .042 0 .083.043.246.172-.123.99-.165 1.42-.04.215.041.344.288.215 2.421-.99 2.914-4.26 3.776-4.776.082-.043.205-.129.328-.086.205.086.37.473.451 1.85v.043c.042.904 2.053-1.29.986-4.56-.329-.99.574-.689.656-.818.698-.86-.533-2.452-.37-2.538.247-.13.042-.732-.533-1.721-.37-.646-.739-1.033-.862-1.205.123-.043.082-.086.123-.086.042-.043.493.301 1.355.818.41.258.657.387.82.43.165.086.206.043.206.043.164-.172-.616-1.205-.739-1.506 0-.043-.04-.086 0-.086.041-.043.329.172.944.602.041.043.164.13.329.215.287.216.451.302.574.388.164.129.205.129.205.129.082-.086-.164-.775-.615-1.334a3.034 3.034 0 00-.698-.645c-.164-.13-.287-.216-.246-.216 0-.043.328.13.82.345.288.129.493.215.616.258.123.043.206.043.247 0 .123-.13-.74-.689-1.19-1.463-1.15-2.108-6.28-3.27-6.568-3.485h-.04c.04-.172 1.19-.172 1.354-.172.656 0 1.354.086 1.6.129.37.043.534.086.657.086h.123c.329-.43-.944-.946-2.134-1.334-.533-.172-.78-.43-.698-.645.082-.258.698-.43 1.93-.172 1.19.258 2.298.516 3.488 1.334.451.3.862.774 1.108.903.082.043.164.043.205-.043.452-.86-1.805-2.151-1.764-2.237l.04-.043c.288-.473 1.806-.13 4.023 1.377.287.172.739.645 1.067.86.123.086.205.13.287.13.452.042-.903-1.42-1.19-1.894-.041-.043-.041-.086-.041-.129-.041-.215.41 0 .698.086.164.043.287.086.287 0 .041-.215-.082-.473-.37-.817-.738-.904-2.339-2.152-3.94-3.184-.944-.602-2.093-1.205-2.626-1.506-.123-.043-.082-.344-.206-.56-.369-.559-1.067-.645-1.436-.688-2.422-.3-3.653.172-5.048-.215-.329-.086-1.067-.516-1.273-.56C12.45-1.133 7.32 3.729 8.797 5.149zm10.712-2.022c2.586-.259 5.049.172 7.388 1.118.205.086.082.43-.123.344-2.299-.946-4.72-1.333-7.265-1.075-.164 0-.205-.344 0-.387zm3.284 2.452c-.41.043-.78.086-1.19.172h-.042c-.164 0-.205-.301 0-.344 1.683-.344 3.407-.172 5.049.516.205.086.082.43-.123.344a8.659 8.659 0 00-3.694-.688zm-1.847-.99c-.247 0-.247-.344-.041-.344 2.38-.215 4.679.086 6.854.947.205.086.082.43-.123.344-2.134-.818-4.392-1.162-6.69-.947zM5.76 18.614a.906.906 0 00-.329-1.076c-.205-.129 0-.43.165-.3l.123.128c.37.302.492.775.37 1.248 0 .043 0 .13-.042.172-.04.215-.37.086-.287-.172zm4.76-10.928l1.52-.086c.78-.043.492-.086 1.272-.13a.173.173 0 010 .345c-.739.043-.493.086-1.273.13l-1.518.085c-.205.043-.205-.3 0-.344zm8.579 4.647c-.37-.087-.534-.043-.944 0-.78.086-2.258.258-2.955.258-.493 0-.903 0-1.273-.086-.82-.172-2.257-.689-2.708-2.152-.206-.73-.041-1.376.738-1.72.698-.259 2.052-.43 2.996-.43.698 0 1.52.042 2.422.128.246.043.164.388-.041.345-1.436-.216-2.832-.173-4.104 0-.985.129-2.094.344-1.724 1.548.41 1.334 1.765 1.764 2.463 1.937.82.172 1.97.043 3.037-.043.533-.044.861-.087 1.108-.13.492-.043.656-.086 1.067 0 .205.043.123.388-.082.345z" fill="#000"/></svg>