<svg width="230" height="152" fill="none" xmlns="http://www.w3.org/2000/svg"><path d="M8.943 152c-2.79 0-4.978-.815-6.564-2.444C.793 147.926 0 145.685 0 142.833v-12.466h3.975v12.375c0 1.955.431 3.402 1.294 4.339.864.916 2.088 1.375 3.674 1.375 1.606 0 2.83-.469 3.673-1.406.864-.957 1.295-2.394 1.295-4.308v-12.375h3.975v12.466c0 2.852-.793 5.093-2.379 6.723-1.586 1.629-3.774 2.444-6.564 2.444zM46.7 130.367v21.266h-3.975l-9.936-14.055v14.055h-3.975v-21.266h3.975l9.936 14.025v-14.025H46.7zm10.944 0h3.975v21.266h-3.975v-21.266zm22.673 0c2.148 0 3.994.438 5.54 1.314 1.546.855 2.72 2.088 3.523 3.697.803 1.589 1.205 3.463 1.205 5.622s-.402 4.044-1.205 5.653a8.636 8.636 0 01-3.523 3.697c-1.546.856-3.392 1.283-5.54 1.283h-7.739v-21.266h7.739zm0 17.691c1.907 0 3.392-.601 4.456-1.802 1.084-1.202 1.626-2.954 1.626-5.256s-.542-4.054-1.626-5.256c-1.064-1.201-2.55-1.802-4.456-1.802h-3.764v14.116h3.764zm32.758 3.575l-4.275-8.097h-3.734v8.097h-3.975v-21.266h7.558c2.71 0 4.737.55 6.082 1.65 1.345 1.1 2.018 2.699 2.018 4.797 0 1.487-.331 2.75-.994 3.789-.662 1.039-1.646 1.813-2.951 2.322l4.637 8.708h-4.366zm-8.009-11.641h3.613c1.325 0 2.299-.235 2.921-.703.642-.469.963-1.263.963-2.383 0-1.08-.311-1.844-.933-2.292-.622-.448-1.616-.672-2.981-.672h-3.583v6.05zm34.563 6.814h-8.943l-1.747 4.827h-3.974l7.949-21.266h4.637l7.949 21.266h-4.125l-1.746-4.827zm-1.235-3.423l-3.222-9.044-3.252 9.044h6.474zm14.178-2.291c0-2.261.422-4.227 1.265-5.898.863-1.67 2.097-2.953 3.703-3.85 1.626-.896 3.543-1.344 5.751-1.344 1.265 0 2.399.132 3.403.397s1.987.632 2.951 1.1v3.759h-.121c-.702-.428-1.575-.785-2.619-1.07a11.553 11.553 0 00-3.312-.458c-4.557 0-6.836 2.434-6.836 7.303 0 2.383.542 4.186 1.626 5.408 1.084 1.222 2.67 1.833 4.758 1.833 1.686 0 2.941-.356 3.764-1.069v-3.209h-3.975v-3.361h7.949v8.709c-1.606.998-2.991 1.69-4.155 2.077a11.666 11.666 0 01-3.704.581c-2.208 0-4.095-.448-5.66-1.344-1.566-.897-2.76-2.16-3.584-3.789-.802-1.65-1.204-3.575-1.204-5.775zM191.353 152c-2.148 0-3.995-.448-5.541-1.344-1.545-.897-2.72-2.17-3.523-3.82-.803-1.65-1.204-3.595-1.204-5.836s.401-4.186 1.204-5.836c.803-1.65 1.978-2.923 3.523-3.82 1.546-.896 3.393-1.344 5.541-1.344 2.148 0 3.994.448 5.54 1.344 1.546.897 2.72 2.17 3.523 3.82.803 1.65 1.204 3.595 1.204 5.836s-.401 4.186-1.204 5.836c-.803 1.65-1.977 2.923-3.523 3.82-1.546.896-3.392 1.344-5.54 1.344zm0-3.728c1.887 0 3.372-.621 4.456-1.864 1.084-1.263 1.626-3.065 1.626-5.408 0-2.343-.542-4.135-1.626-5.378-1.084-1.263-2.569-1.894-4.456-1.894-1.887 0-3.373.631-4.457 1.894-1.084 1.243-1.626 3.035-1.626 5.378s.542 4.145 1.626 5.408c1.084 1.243 2.57 1.864 4.457 1.864zM230 130.367v21.266h-3.975l-9.936-14.055v14.055h-3.975v-21.266h3.975l9.936 14.025v-14.025H230zM87.128 17.934c.3.3.6.45.9.6.899.45 3.147-.3 3.297 1.05v.599c-.3 1.049-4.647 1.649-9.893 3.897-2.249 1.05-4.647 2.398-6.895 4.197l-.15.15c-.75.6-.9-1.949-.15-4.347.15-.3.15-.6.3-.9v-.749c.15-1.799-4.047 1.05-4.647 1.5-.15 0-.15.149-.15.149-10.942 9.294-2.698 11.842-5.546 16.339-1.349 2.248-1.499 4.197-1.649 5.096-.15.75-.3.9-1.05-.15-.898-1.2-1.348-2.099-2.997-5.846-.9-1.948-1.349-3.297-1.799-4.347-.6-1.499-.75-2.248-.75-2.098-1.498 6.445-2.398 13.49 6.746 23.383 1.35 1.5-1.799.9-1.649 1.35.45 4.196 4.347 3.747 5.247 5.395.6 1.05-3.448 11.392-2.848 12.292.15.3.6 0 1.049-.45 1.799-1.948 5.246-8.394 6.445-7.944 2.698 1.05 2.399 2.398 4.947 3.747 1.499.75 3.297 1.35 4.797 1.5h.3c.899 0 1.648 0 2.398-.15.6-.15 1.349-.45 1.948-.75 1.5-.9 2.698-2.399 3.748-4.047l.899-1.8c1.649-3.147 2.698-6.445 2.698-6.744-.15-.6-1.2-.45-2.548-1.2-1.5-.899-2.998-2.848-2.998-4.946 0-2.998 2.848-5.546 5.846-5.846 1.05-.15 2.098 0 3.148.45 1.049.45 1.948 1.049 2.398 1.948 1.349 2.249-.45 5.247.45 5.696.3.15 1.199.15 2.098 0 .9-.15 1.649-.45 2.249-1.049 3.897-3.897 5.096-5.846 7.794-5.996 2.099-.15 3.897 1.799 4.947 2.848.599.6 1.648 1.799 1.349 2.399-.45.899-2.549-.15-4.347 1.049-.15.15-.45.3-.6.45-1.199 1.199-1.948 3.597-1.049 5.546 1.199 2.698 4.797 3.597 6.745 2.548 2.548-1.2 2.398-5.396 4.047-5.546.15 0 .45 0 .6.15.599.45 1.199 1.499 1.949 2.698 1.498 2.398 2.997 3.897 4.047 4.946.599.45 1.049.9 1.349 1.2.899.749 1.349 1.349 1.199 2.548-.15 1.199-.899 1.648-4.347 4.047-4.047 2.848-6.895 4.197-7.195 5.096v.3c.15.75 1.949.3 3.298 1.499.299.3.449.75.599 1.05.6 1.348.45 3.297-.15 4.646-1.499 3.298-5.246 4.347-8.843 2.698-1.2-.6-1.349-1.499-1.2-2.548 0-.75.3-1.649.3-2.099 0-.3 0-.45-.3-.6-.899-.749-3.897 1.05-5.696 2.549-3.447 2.848-3.747 5.696-5.396 5.246-1.799-.45-9.143-3.447-11.542-7.195-1.499-2.398-1.049-6.145.75-7.794 1.049-.9 2.698-1.05 4.497.3.899 2.098-.9 3.447.45 4.946 2.847 3.148 6.445 1.05 7.794-1.199.15-.3.3-.75.45-1.2.599-2.847-1.35-6.595-2.998-7.944-4.197-3.147-8.394-3.597-12.442-2.848-1.049 1.65-2.248 3.148-3.747 4.047-1.35.9-3.747 1.2-5.696 1.05h-.3c-1.199 1.05-1.499 1.349-1.948 2.548-.15.3-.3.45-.45.75-.6.6-1.5.749-2.398.3-.75-.45-1.5-.9-2.099-.9-.45 0-.75 0-.9.45-.749 3.147 4.498 4.047 4.947 9.293 0 .45-.3 1.05-.75 1.499a6.63 6.63 0 01-1.648 1.2c-.15 0-.15.15-.3.15-.9.449-.75 1.798.3 1.948 2.548.45 8.844 2.698 7.944 4.796-1.049 2.249 1.5 4.197 8.095 3.748 4.347-.3 5.246.9 4.946 2.248-.15.45-.3.899-.6 1.349-.15.15-.3.45-.45.6-.749 1.049 5.697 2.998 9.744.599 2.099-1.199 6.146-5.696 9.294-4.946.299 0 .449.15.599.45.3.749-.599 2.248-1.049 3.447-.3.75-.3 1.199.599 1.199 6.896 0 14.24-9.143 17.088-8.544.15 0 .15 0 .3.15.9.6-.449 3.448-.599 4.947-.15.749.15 1.199 1.049.749 8.844-3.447 10.642-14.84 13.79-16.638.3-.15.75-.45 1.199-.3.75.3 1.349 1.649 1.649 6.445v.15c.15 3.148 7.495-4.496 3.598-15.889-1.199-3.447 2.098-2.398 2.398-2.847 2.548-2.998-1.949-8.544-1.349-8.844.899-.45.15-2.548-1.949-5.996-1.349-2.248-2.698-3.597-3.147-4.197.449-.15.299-.3.449-.3.15-.15 1.799 1.05 4.947 2.848 1.499.9 2.398 1.35 2.998 1.5.599.299.749.149.749.149.6-.6-2.248-4.197-2.698-5.246 0-.15-.15-.3 0-.3.15-.15 1.199.6 3.448 2.098.149.15.599.45 1.199.75 1.049.75 1.649 1.05 2.098 1.349.6.45.75.45.75.45.3-.3-.6-2.699-2.249-4.647-.899-1.05-1.798-1.799-2.548-2.249-.599-.45-1.049-.749-.899-.749 0-.15 1.199.45 2.998 1.2 1.049.449 1.798.749 2.248.898.45.15.75.15.899 0 .45-.45-2.698-2.398-4.347-5.096-4.197-7.345-22.933-11.392-23.983-12.141h-.15c.15-.6 4.347-.6 4.947-.6 2.398 0 4.946.3 5.846.45 1.349.15 1.948.3 2.398.3h.45c1.199-1.5-3.448-3.298-7.795-4.647-1.948-.6-2.848-1.5-2.548-2.249.3-.9 2.548-1.499 7.045-.6 4.347.9 8.394 1.8 12.741 4.648 1.649 1.049 3.148 2.698 4.047 3.147.3.15.6.15.75-.15 1.649-2.998-6.596-7.494-6.446-7.794l.15-.15c1.05-1.649 6.596-.45 14.69 4.797 1.049.6 2.698 2.248 3.897 2.997.45.3.75.45 1.05.45 1.648.15-3.298-4.946-4.347-6.595-.15-.15-.15-.3-.15-.45-.15-.75 1.499 0 2.548.3.599.15 1.049.3 1.049 0 .15-.75-.3-1.649-1.349-2.848-2.698-3.148-8.544-7.495-14.39-11.092-3.447-2.099-7.644-4.197-9.593-5.247-.45-.15-.3-1.199-.75-1.948-1.349-1.949-3.897-2.249-5.246-2.399-8.844-1.049-13.341.6-18.437-.75-1.199-.299-3.897-1.798-4.647-1.948-18.886-4.796-37.623 12.142-32.227 17.088zm39.122-7.045c9.444-.9 18.438.6 26.982 3.898.749.3.299 1.498-.45 1.199-8.394-3.298-17.238-4.647-26.532-3.748-.599 0-.749-1.199 0-1.349zm11.992 8.544c-1.499.15-2.848.3-4.347.6h-.15c-.599 0-.749-1.05 0-1.2 6.146-1.198 12.441-.599 18.437 1.8.75.3.3 1.498-.449 1.199-4.497-1.8-8.994-2.549-13.491-2.399zm-6.745-3.447c-.9 0-.9-1.2-.15-1.2 8.694-.749 17.088.3 25.032 3.298.75.3.3 1.5-.449 1.2-7.795-2.849-16.039-4.048-24.433-3.298zM76.036 64.85c.6-1.349 0-2.998-1.2-3.747-.749-.45 0-1.499.6-1.05l.45.45c1.349 1.05 1.799 2.699 1.349 4.347 0 .15 0 .45-.15.6-.15.75-1.35.3-1.05-.6zm17.388-38.073l5.546-.3c2.848-.15 1.798-.3 4.646-.45.9 0 .9 1.2 0 1.2-2.698.15-1.798.3-4.646.45l-5.546.3c-.75.15-.75-1.05 0-1.2zm31.328 16.189c-1.35-.3-1.949-.15-3.448 0-2.848.3-8.244.9-10.792.9-1.799 0-3.298 0-4.647-.3-2.998-.6-8.244-2.399-9.893-7.495-.75-2.549-.15-4.797 2.698-5.996 2.548-.9 7.495-1.5 10.942-1.5 2.548 0 5.546.15 8.844.45.899.15.6 1.35-.15 1.2-5.246-.75-10.343-.6-14.989 0-3.598.45-7.645 1.199-6.296 5.396 1.499 4.647 6.445 6.146 8.994 6.745 2.998.6 7.195.15 11.092-.15 1.949-.15 3.148-.3 4.047-.45 1.799-.15 2.398-.3 3.897 0 .75.15.45 1.35-.299 1.2z" fill="#000"/></svg>