<svg width="36" height="20" fill="none" xmlns="http://www.w3.org/2000/svg"><path d="M33.691 7.14h2.012l-1.66 7.5h-1.992l1.64-7.5zm-28.359.02c.612 0 1.13.224 1.553.674.423.449.55 1.07.381 1.865-.156.768-.51 1.37-1.064 1.807-.553.436-1.208.654-1.963.654H2.696l-.547 2.48H.001l1.641-7.48h3.691-.001zm19.141 0c.612 0 1.133.224 1.563.674.43.449.56 1.07.391 1.865a3.17 3.17 0 01-.596 1.328 2.79 2.79 0 01-1.074.85 3.382 3.382 0 01-1.396.283h-1.523l-.527 2.48h-2.148l1.641-7.48h3.672-.003zM8.027 9.055c.065-.014.205-.046.42-.098.215-.052.394-.095.537-.127a6.574 6.574 0 011.25-.148c.365-.013.706.013 1.025.079.319.065.612.17.879.313s.456.358.566.645c.11.286.12.625.029 1.016l-.82 3.906H9.94l.137-.586a2.32 2.32 0 01-1.035.586c-.417.117-.81.146-1.182.088-.371-.059-.668-.264-.889-.615-.221-.352-.28-.814-.176-1.387.143-.678.55-1.163 1.221-1.455.67-.293 1.585-.44 2.744-.44.04-.195.02-.351-.059-.468a.611.611 0 00-.352-.244 1.972 1.972 0 00-.625-.05 5.894 5.894 0 00-1.094.157c-.39.09-.651.175-.781.254l.178-1.426zm19.18 0c.078-.014.192-.04.342-.078.15-.039.29-.075.42-.107.13-.033.276-.062.439-.088.163-.026.332-.049.508-.068.176-.02.355-.03.537-.03.377-.013.726.013 1.045.079.32.065.612.17.879.313s.459.358.576.645c.117.286.13.625.039 1.016l-.84 3.906H29.16l.137-.586a2.32 2.32 0 01-1.045.586 2.835 2.835 0 01-1.201.088c-.377-.059-.677-.264-.898-.615-.221-.352-.28-.814-.176-1.387a1.8 1.8 0 01.684-1.123c.365-.28.814-.479 1.348-.596.534-.118 1.192-.176 1.973-.176.065-.3.01-.505-.166-.615-.176-.111-.466-.16-.869-.146-.235 0-.489.026-.762.078a7.864 7.864 0 00-.713.166 2.881 2.881 0 00-.459.166l.194-1.428zM4.004 10.734c.182 0 .361-.046.537-.137.176-.092.326-.215.449-.371a1.23 1.23 0 00.244-.527c.078-.287.045-.528-.098-.723-.143-.196-.352-.293-.625-.293H3.476l-.469 2.05h.997zm19.16 0c.273 0 .534-.101.781-.303.247-.202.404-.446.469-.732.065-.286.023-.527-.127-.723a.73.73 0 00-.615-.293h-1.094l-.43 2.05h1.016zM13.633 8.8l.801 5.879-1.445 2.46h2.207l4.688-8.34h-2.031l-1.953 3.48-.313-3.479h-1.954zm-3.242 3.887c0-.13.033-.306.098-.527h-.508c-.612 0-1.003.162-1.172.488-.13.234-.133.43-.01.586.123.156.302.234.537.234.573-.026.924-.287 1.055-.781zm19.199 0a2.13 2.13 0 01.117-.527h-.488c-.651 0-1.048.162-1.191.488-.13.234-.133.43-.01.586.123.156.302.234.537.234.586-.026.931-.287 1.035-.781z" fill="#444"/></svg>