<svg width="27" height="20" fill="none" xmlns="http://www.w3.org/2000/svg"><g clip-path="url(#clip0_417_835)"><path d="M19.16 8.465a3.685 3.685 0 00-1.621-.332c-.403 0-.713.075-.928.225-.215.15-.323.32-.322.508 0 .189.095.358.283.508.188.15.504.336.947.557 1.237.56 1.849 1.322 1.836 2.285 0 .885-.345 1.592-1.035 2.119-.69.527-1.614.791-2.773.791-.963-.013-1.777-.163-2.441-.449l.293-1.914.273.156c.742.3 1.432.449 2.07.449.351 0 .657-.075.918-.225.26-.15.397-.362.41-.635 0-.182-.085-.348-.254-.498-.17-.15-.475-.336-.918-.557-.247-.13-.465-.254-.654-.371a4.24 4.24 0 01-.596-.459 2.026 2.026 0 01-.488-.664 1.93 1.93 0 01-.176-.811c.013-.82.368-1.487 1.064-2.002.696-.515 1.585-.772 2.666-.771.69 0 1.341.11 1.953.332l-.273 1.855-.234-.097zm-9.14-1.934l-3.457 8.477H4.258L2.461 8.25A5.078 5.078 0 014.17 9.383c.514.508.882 1.061 1.104 1.66C4.467 8.816 2.709 7.365.001 6.688l.02-.156h3.535c.547 0 .879.228.996.684l.762 3.906.254 1.172 2.129-5.762h2.324l-.001-.001zm3.085 0l-1.367 8.477H9.55l1.367-8.477h2.188zm13.946 8.477H25c-.104-.664-.182-1.087-.234-1.27l-2.813-.02-.449 1.289H19.18l3.262-7.793c.195-.456.58-.684 1.152-.684h1.68l1.777 8.478zM23.77 8.797l-.137.361c-.052.137-.094.25-.127.342-.033.091-.042.13-.029.117-.469 1.25-.762 2.044-.879 2.383h1.777l-.469-2.461-.136-.742z" fill="#444"/></g><defs><clipPath id="clip0_417_835"><path fill="#fff" d="M0 0h27v20H0z"/></clipPath></defs></svg>