<svg width="18" height="20" fill="none" xmlns="http://www.w3.org/2000/svg"><g clip-path="url(#clip0_417_827)"><path d="M10.156 3.875c1.263 0 2.438.286 3.525.859a6.88 6.88 0 012.646 2.471c.677 1.075 1.016 2.27 1.016 3.584a6.251 6.251 0 01-1.006 3.418 7.202 7.202 0 01-2.666 2.49 7.22 7.22 0 01-3.516.908H6.913a6.896 6.896 0 01-3.457-.908 6.721 6.721 0 01-2.529-2.49 6.652 6.652 0 01-.928-3.418c0-1.328.313-2.523.938-3.584a6.555 6.555 0 012.51-2.461c1.048-.58 2.204-.869 3.467-.869h3.242zM6.934 17.02c1.146 0 2.2-.28 3.164-.84a6.21 6.21 0 002.285-2.285c.56-.963.84-2.018.84-3.164 0-1.133-.28-2.181-.84-3.145a6.199 6.199 0 00-2.285-2.285 6.197 6.197 0 00-3.164-.84c-1.133 0-2.181.28-3.145.84a6.2 6.2 0 00-2.285 2.285 6.162 6.162 0 00-.84 3.145c0 1.146.28 2.2.84 3.164a6.21 6.21 0 002.285 2.285c.963.56 2.012.84 3.145.84zm-1.426-2.579a3.852 3.852 0 01-1.836-1.445 4.006 4.006 0 01-.723-2.266 4.016 4.016 0 01.732-2.275c.475-.683 1.083-1.162 1.826-1.436v7.422h.001zM8.379 7.02c.742.273 1.35.752 1.826 1.436.475.684.713 1.442.713 2.275s-.238 1.588-.713 2.266a3.906 3.906 0 01-1.826 1.445V7.02z" fill="#444"/></g><defs><clipPath id="clip0_417_827"><path fill="#fff" d="M0 0h18v20H0z"/></clipPath></defs></svg>