<svg width="52" height="20" fill="none" xmlns="http://www.w3.org/2000/svg"><g clip-path="url(#clip0_415_825)"><path d="M22.598 14.617c-.73.325-1.406.488-2.031.488-1.237 0-2.278-.42-3.125-1.26-.847-.84-1.27-1.878-1.27-3.115 0-1.198.433-2.223 1.299-3.076.866-.853 1.911-1.279 3.135-1.279.69 0 1.354.17 1.992.508v1.914c-.638-.625-1.315-.938-2.031-.938-.768 0-1.416.28-1.943.84-.527.56-.791 1.237-.791 2.031 0 .847.264 1.537.791 2.07.527.533 1.201.8 2.021.801.703 0 1.354-.3 1.953-.898v1.914zm-8.086-6.152c-.39-.443-.833-.664-1.328-.664-.351 0-.641.088-.869.264-.228.176-.342.394-.342.654 0 .221.088.407.264.557.176.15.505.31.986.479.937.339 1.575.693 1.914 1.064.339.37.508.888.508 1.553 0 .807-.27 1.465-.811 1.973-.54.508-1.234.762-2.08.762-1.21 0-2.174-.527-2.891-1.582l1.055-1.016c.39.742.983 1.113 1.777 1.113.365 0 .667-.11.908-.332.24-.221.361-.501.361-.84 0-.351-.163-.638-.488-.859-.182-.117-.56-.274-1.133-.469-.755-.287-1.286-.6-1.592-.938-.306-.339-.459-.801-.459-1.387a2.2 2.2 0 01.752-1.699c.501-.455 1.117-.683 1.846-.684.925 0 1.745.319 2.461.957l-.839 1.094zm13.164-2.051c1.25 0 2.301.42 3.154 1.26.853.84 1.279 1.865 1.279 3.076 0 1.21-.43 2.24-1.289 3.086-.86.847-1.908 1.27-3.145 1.27-1.276 0-2.34-.417-3.193-1.25-.853-.833-1.279-1.882-1.279-3.145 0-1.198.436-2.214 1.309-3.047.873-.833 1.927-1.25 3.164-1.25zm-25.293.137c1.315 0 2.393.39 3.232 1.172.84.781 1.26 1.784 1.26 3.008a4.18 4.18 0 01-.391 1.768 4.126 4.126 0 01-1.113 1.455c-.807.651-1.803.977-2.988.977H0V6.552h2.383v-.001zm5.234 0h1.641v8.379H7.617V6.551zm30.43 0h1.777l-3.633 8.574h-.859l-3.535-8.574h1.758l2.227 5.625 2.265-5.625zm2.5 0h4.629v1.426h-2.988v1.855h2.871v1.406h-2.871v2.266h2.988v1.426h-4.629V6.551zm8.125 0c.937 0 1.66.215 2.168.645.508.43.762 1.042.762 1.836 0 .638-.16 1.159-.479 1.563-.32.404-.785.671-1.396.801l2.617 3.535h-1.992l-2.266-3.398h-.195v3.398H46.25V6.552h2.422v-.001zm-.313 3.847c1.055 0 1.582-.43 1.582-1.289 0-.82-.527-1.23-1.582-1.23h-.469v2.52h.469v-.001zM2.09 13.504c.99 0 1.725-.221 2.207-.664.287-.26.511-.576.674-.947.163-.37.244-.758.244-1.162 0-.847-.306-1.537-.918-2.07-.495-.456-1.23-.684-2.207-.684h-.449v5.527h.449z" fill="#444"/></g><defs><clipPath id="clip0_415_825"><path fill="#fff" d="M0 0h52v20H0z"/></clipPath></defs></svg>