<svg version="1.1" id="Слой_1" xmlns="http://www.w3.org/2000/svg" x="0" y="0" viewBox="0 0 30 30" xml:space="preserve"><path d="M15 30c8.3 0 15-6.7 15-15S23.3 0 15 0 0 6.7 0 15s6.7 15 15 15z" fill="#fff"/><path d="M29.1 10h-9.2c.4 3.2.4 6.7 0 9.9h9.3c.5-1.5.8-3.2.8-4.9 0-1.8-.3-3.4-.9-5z" fill="#2b479d"/><path d="M19.9 10h9.2C27.2 4.6 22.2.6 16.3.1c2.3 1.2 3 5.2 3.6 9.9z" fill="#efecec"/><path d="M16.3 29.9c5.9-.5 10.9-4.5 12.8-10h-9.3c-.5 4.8-1.1 8.8-3.5 10z" fill="#e63026"/><path d="M0 15c0 1.7.3 3.4.8 4.9h19.8c.4-3.2.4-6.7 0-9.9H.9c-.6 1.6-.9 3.2-.9 5z" fill="#3757a6"/><path d="M.9 10h19.8c-.6-4.7-2-8.7-4.3-9.9-.5-.1-.9-.1-1.4-.1C8.5 0 2.9 4.2.9 10z" fill="#efefef"/><path d="M20.7 19.9H.8C2.9 25.8 8.5 30 15 30c.5 0 .9 0 1.3-.1 2.4-1.2 3.8-5.2 4.4-10z" fill="#e73b36"/></svg>