<svg version="1.1" id="Слой_1" xmlns="http://www.w3.org/2000/svg" x="0" y="0" viewBox="0 0 320 80" xml:space="preserve" enable-background="new 0 0 320 80"><style>.st2{fill:#f85}.st3{fill:#efefef}</style><defs><filter id="Adobe_OpacityMaskFilter" filterUnits="userSpaceOnUse" x="-69.5" y="0" width="459" height="242"><feColorMatrix values="1 0 0 0 0 0 1 0 0 0 0 0 1 0 0 0 0 0 1 0"/></filter></defs><mask maskUnits="userSpaceOnUse" x="-69.5" y="0" width="459" height="242" id="mask0_3123:997_1_"><path fill="#c4c4c4" filter="url(#Adobe_OpacityMaskFilter)" d="M0 0h320v80H0z"/></mask><g mask="url(#mask0_3123:997_1_)"><path class="st2" d="M389.5 242h-1C388.5 116 286 13.5 160 13.5S-68.5 116-68.5 242h-1c0-61.3 23.9-118.9 67.2-162.3C41.1 36.4 98.7 12.5 160 12.5s118.9 23.9 162.3 67.2c43.3 43.4 67.2 101 67.2 162.3z"/><path class="st3" d="M54.5 30.5c3.9 0 7 3.1 7 7s-3.1 7-7 7-7-3.1-7-7 3.1-7 7-7z"/><path class="st2" d="M54.5 45c-4.1 0-7.5-3.4-7.5-7.5s3.4-7.5 7.5-7.5 7.5 3.4 7.5 7.5-3.4 7.5-7.5 7.5zm0-14c-3.6 0-6.5 2.9-6.5 6.5s2.9 6.5 6.5 6.5 6.5-2.9 6.5-6.5-2.9-6.5-6.5-6.5z"/><path class="st3" d="M268.5 31.5c3.9 0 7 3.1 7 7s-3.1 7-7 7-7-3.1-7-7 3.1-7 7-7z"/><path class="st2" d="M268.5 46c-4.1 0-7.5-3.4-7.5-7.5s3.4-7.5 7.5-7.5 7.5 3.4 7.5 7.5-3.4 7.5-7.5 7.5zm0-14c-3.6 0-6.5 2.9-6.5 6.5s2.9 6.5 6.5 6.5 6.5-2.9 6.5-6.5-2.9-6.5-6.5-6.5z"/><path d="M159.5.5c6.6 0 12 5.4 12 12s-5.4 12-12 12-12-5.4-12-12 5.4-12 12-12z" fill="#fff"/><linearGradient id="SVGID_1_" gradientUnits="userSpaceOnUse" x1="159.5" y1="82" x2="159.5" y2="57" gradientTransform="matrix(1 0 0 -1 0 82)"><stop offset=".02" stop-color="#fff"/><stop offset="1" stop-color="#e4e4e4"/></linearGradient><path d="M159.5 25c-6.9 0-12.5-5.6-12.5-12.5S152.6 0 159.5 0 172 5.6 172 12.5 166.4 25 159.5 25zm0-24C153.2 1 148 6.2 148 12.5S153.2 24 159.5 24 171 18.8 171 12.5 165.8 1 159.5 1z" fill="url(#SVGID_1_)"/><path class="st2" d="M159.6 2.6c5.5 0 9.9 4.4 9.9 9.9s-4.4 9.9-9.9 9.9-9.9-4.4-9.9-9.9c-.1-5.4 4.4-9.9 9.9-9.9z"/><linearGradient id="SVGID_2_" gradientUnits="userSpaceOnUse" x1="159.563" y1="79.855" x2="159.563" y2="59.021" gradientTransform="matrix(1 0 0 -1 0 82)"><stop offset="0" stop-color="#fff"/><stop offset="1" stop-color="#f3f3f3"/></linearGradient><path d="M159.6 23c-5.7 0-10.4-4.7-10.4-10.4s4.7-10.4 10.4-10.4S170 6.9 170 12.6 165.3 23 159.6 23zm0-19.9c-5.2 0-9.4 4.2-9.4 9.4s4.2 9.4 9.4 9.4 9.4-4.2 9.4-9.4-4.2-9.4-9.4-9.4z" fill="url(#SVGID_2_)"/></g></svg>