<svg version="1.1" id="Слой_1" xmlns="http://www.w3.org/2000/svg" x="0" y="0" viewBox="0 0 460 204" xml:space="preserve"><style>.st1{fill:#efefef}.st2{fill:#f85}</style><linearGradient id="SVGID_1_" gradientUnits="userSpaceOnUse" x1="230" y1="489.79" x2="230" y2="310" gradientTransform="translate(0 -294)"><stop offset="0" stop-color="#f85" stop-opacity="0"/><stop offset="1" stop-color="#f85"/></linearGradient><path d="M459.5 204h-1C458.5 100.6 356 16.5 230 16.5S1.5 100.6 1.5 204h-1C.5 100.1 103.5 15.5 230 15.5S459.5 100.1 459.5 204z" fill="url(#SVGID_1_)"/><path class="st1" d="M56.5 74.5c3.9 0 7 3.1 7 7s-3.1 7-7 7-7-3.1-7-7 3.1-7 7-7z"/><path class="st2" d="M56.5 89c-4.1 0-7.5-3.4-7.5-7.5s3.4-7.5 7.5-7.5 7.5 3.4 7.5 7.5-3.4 7.5-7.5 7.5zm0-14c-3.6 0-6.5 2.9-6.5 6.5s2.9 6.5 6.5 6.5 6.5-2.9 6.5-6.5-2.9-6.5-6.5-6.5z"/><path class="st1" d="M405.5 75.5c3.9 0 7 3.1 7 7s-3.1 7-7 7-7-3.1-7-7 3.1-7 7-7z"/><path class="st2" d="M405.5 90c-4.1 0-7.5-3.4-7.5-7.5s3.4-7.5 7.5-7.5 7.5 3.4 7.5 7.5-3.4 7.5-7.5 7.5zm0-14c-3.6 0-6.5 2.9-6.5 6.5s2.9 6.5 6.5 6.5 6.5-2.9 6.5-6.5-2.9-6.5-6.5-6.5z"/><path d="M230 .5c8 0 14.5 6.5 14.5 14.5S238 29.5 230 29.5 215.5 23 215.5 15 222 .5 230 .5z" fill="#fff"/><path d="M230 30c-8.3 0-15-6.7-15-15s6.7-15 15-15 15 6.7 15 15-6.7 15-15 15zm0-29c-7.7 0-14 6.3-14 14s6.3 14 14 14 14-6.3 14-14-6.3-14-14-14z" fill="#f3f3f3"/><path class="st2" d="M230.1 3.1c6.6 0 12 5.4 12 12s-5.4 12-12 12-12-5.4-12-12c0-6.7 5.3-12 12-12z"/></svg>