<?xml version="1.0" encoding="utf-8"?><svg xmlns="http://www.w3.org/2000/svg" xmlns:xlink="http://www.w3.org/1999/xlink"><symbol viewBox="0 0 80 80" id="discounts" xmlns="http://www.w3.org/2000/svg"><path d="M16.4 56.6c.2.2.5.3.8.3.3 0 .6-.1.8-.3L31 44c.5-.4.4-1.1 0-1.6-.5-.4-1.2-.4-1.7 0L16.4 55c-.5.5-.5 1.2 0 1.6zm2.9-9.5c.5.2 1 .3 1.4.3.7 0 1.4-.2 2-.5 1.1-.5 1.9-1.4 2.4-2.5 1-2.3-.1-4.9-2.3-5.7-2.2-.9-4.8.3-5.8 2.7-.5 1.1-.5 2.3-.1 3.4.5 1.1 1.3 1.9 2.4 2.3zm-.1-4.9c.4-1 1.3-1.6 2.2-1.6.2 0 .4 0 .6.1 1 .4 1.5 1.7 1 2.9-.3.6-.7 1.1-1.3 1.4-.5.3-1 .3-1.5.1-.5-.2-.8-.5-1-1.1-.2-.6-.2-1.2 0-1.8zm8.5 10c-1.1-.4-2.3-.3-3.5.2-1.1.5-1.9 1.4-2.4 2.5-1 2.3.1 4.9 2.3 5.7.5.2.9.3 1.4.3 1.8 0 3.6-1.2 4.4-3 .5-1.1.5-2.3.1-3.4s-1.2-1.9-2.3-2.3zm.1 4.9c-.5 1.2-1.8 1.9-2.8 1.5-1-.4-1.5-1.7-1-2.9.3-.6.7-1.1 1.3-1.4.3-.2.6-.2.9-.2.2 0 .4 0 .6.1.5.2.8.5 1 1.1.3.5.2 1.2 0 1.8zm31.8-15.7l-3 17.2c-.1.6.3 1.2 1 1.3h.2c.6 0 1.1-.4 1.2-.9l3-17.2c.1-.6-.3-1.2-1-1.3-.7-.1-1.3.3-1.4.9zm-2.3 3.8c-.3-1.2-1-2.2-2-2.8-1-.7-2.2-.9-3.4-.7-2.3.5-3.7 3-3.1 5.4.3 1.2 1 2.2 2 2.8.8.5 1.6.8 2.5.8.3 0 .6 0 .9-.1 1.2-.3 2.1-1 2.7-2.1.6-1 .7-2.2.4-3.3zm-2.5 2.3c-.3.5-.7.8-1.2.9-.5.1-1 0-1.5-.3-.5-.4-.9-.9-1.1-1.5-.3-1.3.3-2.5 1.4-2.7h.4c.4 0 .8.1 1.1.4.5.4.9.9 1.1 1.5.2.6.1 1.2-.2 1.7zm6.3 8.2c.5 2.1 2.4 3.6 4.5 3.6.3 0 .6 0 .9-.1 2.3-.5 3.7-3 3.1-5.4-.6-2.4-3-4-5.4-3.5-1.2.3-2.1 1-2.7 2.1-.6.9-.7 2.1-.4 3.3zm2.4-2.4c.3-.5.7-.8 1.2-.9h.4c1 0 1.9.8 2.2 1.9.3 1.3-.3 2.5-1.4 2.7-1.1.2-2.2-.6-2.6-1.9-.1-.6-.1-1.2.2-1.8z"/><path d="M79.9 67.4l-11-42.5c-.3-1.1-1.1-2.1-2.2-2.7l-2.3-1.1c-.6-.3-1.3-.1-1.6.5-.3.5-.1 1.2.5 1.5l2.3 1.1c.5.3.9.7 1 1.2l11 42.5c.3 1-.4 2-1.5 2.3l-22.4 5.1c-1.1.2-2.2-.4-2.4-1.4l-11-42.5c-.1-.5 0-1.1.3-1.5l8.9-11.7c.9 1.6 1.5 3.4 1.7 5.4l-.4.1c-.6.1-1 .7-.9 1.3.1.5.6.8 1.1.8h.3l2.6-.6c.6-.1 1-.7.9-1.3-.1-.6-.7-.9-1.3-.8-.2-1.9-.8-3.8-1.7-5.6.1 0 .2.1.3.1l7 3.4c.6.3 1.3.1 1.6-.5.3-.5.1-1.2-.5-1.5l-7-3.4c-.9-.4-1.9-.6-2.8-.4-.8-1.1-1.8-2.2-2.8-3.2-2.1-2-4.3-3.2-5.3-3.8V3.6c0-.6-.5-1.1-1.2-1.1s-1.2.5-1.2 1.1v4.8c-4.4 3-7.5 7.9-9.1 14.3-.2.9-.4 1.7-.5 2.5L21.6 22c-.8-.3-1.8-.3-2.6.1-.8.3-1.5 1-1.8 1.8L.2 64.7c-.7 1.6.2 3.5 1.9 4.1l8.1 3c.1.1.3.1.4.1.5 0 .9-.3 1.1-.7.2-.6-.1-1.2-.7-1.4l-8.1-3c-.5-.2-.8-.8-.6-1.3l17-40.8c.1-.2.3-.4.6-.6.3-.1.6-.1.8 0l9.2 3.4c-.1 1.1-.2 2-.2 2.7-.5 0-1 .2-1.2.7-.2.6.1 1.2.7 1.4l1.2.4 1.3.5c.1.1.3.1.4.1.5 0 .9-.3 1.1-.7.2-.6-.1-1.2-.7-1.4L32 31c0-.6 0-1.5.1-2.7l5.7 2.1c-.1.5-.1 1.1.1 1.6l2.8 10.9-13.1 31.8c-.2.5-.8.8-1.4.6l-10.8-3.9c-.6-.2-1.3.1-1.5.6-.2.6.1 1.2.7 1.4l10.8 3.9c.4.1.8.2 1.2.2 1.4 0 2.7-.8 3.2-2l12-28.9L49 74.4c.5 1.9 2.3 3.1 4.2 3.1.3 0 .7 0 1-.1l22.4-5.1c2.4-.5 3.8-2.7 3.3-4.9zM41.2 10.3c1.3.7 4.6 2.8 7.1 6l-.6.6L39 28.3 32.6 26c.8-4.9 2.9-11.7 8.6-15.7z"/></symbol><symbol viewBox="0 0 32 32" id="exclamation" xmlns="http://www.w3.org/2000/svg"><path d="M16 1C7.7 1 1 7.7 1 16s6.7 15 15 15 15-6.7 15-15S24.3 1 16 1zm0 27.7C9 28.7 3.3 23 3.3 16 3.3 9 9 3.3 16 3.3 23 3.3 28.7 9 28.7 16c0 7-5.7 12.7-12.7 12.7z"/><path d="M16 8.6c-.6 0-1.2.5-1.2 1.2v7.5c0 .6.5 1.2 1.2 1.2.6 0 1.2-.5 1.2-1.2V9.7c0-.6-.6-1.1-1.2-1.1z"/><circle cx="16" cy="21.5" r="1.6"/></symbol><symbol viewBox="0 0 80 80" id="money" xmlns="http://www.w3.org/2000/svg"><path d="M51.9 20.1h-2c.3-.6.5-1.3.5-2.1v-6.3c0-2.3-1.9-4.2-4.2-4.2h-37C6.9 7.5 5 9.4 5 11.7V18c0 2.3 1.9 4.2 4.2 4.2h2c-.3.6-.5 1.3-.5 2.1v6.3c0 .8.2 1.5.5 2.1h-2c-2.3 0-4.2 1.9-4.2 4.2v6.3c0 1.8 1.2 3.4 2.8 3.9-.4.7-.7 1.5-.7 2.3v6.3c0 .9.3 1.6.7 2.3-1.6.6-2.8 2.2-2.8 4v6.3c0 2.3 1.9 4.2 4.2 4.2h31.9c.6 0 1-.5 1-1.1 0-.6-.5-1.1-1-1.1H9.2c-1.1 0-2.1-.9-2.1-2.1V62c0-1.1.9-2.1 2.1-2.1h20.3c.6 0 1-.5 1-1.1 0-.6-.5-1.1-1-1.1H11.2c-1.1 0-2.1-.9-2.1-2.1v-6.3c0-1.1.9-2.1 2.1-2.1h16.2c.6 0 1-.5 1-1.1s-.5-1.1-1-1.1H9.2c-1.1 0-2.1-.9-2.1-2.1v-6.3c0-1.1.9-2.1 2.1-2.1h24.3c.6 0 1-.5 1-1.1s-.5-1.1-1-1.1H14.7c-1.1 0-2.1-.9-2.1-2.1v-6.3c0-1.1.9-2.1 2.1-2.1h37.2c1.1 0 2.1.9 2.1 2.1V25c0 .6.5 1.1 1 1.1s1-.5 1-1.1v-.8c.1-2.2-1.8-4.1-4.1-4.1zM48.4 18c0 1.1-.9 2.1-2.1 2.1H9.2c-1.1 0-2.1-.9-2.1-2.1v-6.3c0-1.1.9-2.1 2.1-2.1h37.2c1.1 0 2.1.9 2.1 2.1l-.1 6.3z"/><path d="M64.7 30.4c-.5-.3-1.1-.2-1.4.3-.3.5-.2 1.1.3 1.5 5.9 3.9 9.4 10.4 9.4 17.4 0 11.5-9.3 20.8-20.7 20.8-11.4 0-20.7-9.3-20.7-20.8s9.3-20.8 20.7-20.8c3 0 5.9.6 8.6 1.9.5.2 1.1 0 1.4-.5.2-.5 0-1.2-.5-1.4-3-1.4-6.1-2.1-9.4-2.1-12.5 0-22.8 10.3-22.8 22.9s10.2 22.9 22.8 22.9S75 62.2 75 49.6c0-7.8-3.9-14.9-10.3-19.2z"/><path d="M63.8 37.9c-3.1-3.1-7.2-4.8-11.6-4.8s-8.5 1.7-11.6 4.8c-4.1 4.2-5.8 10.3-4.2 16 .2.6.7.9 1.3.7.6-.2.9-.7.7-1.3-1.3-5 .1-10.3 3.7-13.9 2.7-2.7 6.3-4.2 10.1-4.2s7.4 1.5 10.1 4.2c5.6 5.6 5.6 14.7 0 20.4-5.6 5.6-14.7 5.6-20.2 0-1-1-1.8-2.2-2.5-3.4-.3-.5-.9-.7-1.4-.4-.5.3-.7.9-.4 1.4.8 1.4 1.7 2.7 2.9 3.9 3.2 3.2 7.4 4.8 11.6 4.8s8.4-1.6 11.6-4.8c6.3-6.5 6.3-16.9-.1-23.4z"/><path d="M53.3 48.6v-5.8c1.5.4 2.6 1.5 2.6 2.8 0 .6.5 1.1 1 1.1.6 0 1-.5 1-1.1 0-2.5-2-4.5-4.7-4.9v-.6c0-.6-.5-1.1-1-1.1-.6 0-1 .5-1 1.1v.6c-2.7.4-4.7 2.5-4.7 4.9s2 4.5 4.7 4.9v5.8c-1.5-.4-2.6-1.5-2.6-2.8 0-.6-.5-1.1-1-1.1-.6 0-1 .5-1 1.1 0 2.5 2 4.5 4.7 4.9v.6c0 .6.5 1.1 1 1.1.6 0 1-.5 1-1.1v-.6C56 58.1 58 56 58 53.6s-2-4.5-4.7-5zm-2.1-.2c-1.5-.4-2.6-1.5-2.6-2.8s1.1-2.4 2.6-2.8v5.6zm2.1 8v-5.6c1.5.4 2.6 1.5 2.6 2.8 0 1.3-1.1 2.4-2.6 2.8z"/></symbol><symbol viewBox="0 0 80 80" id="online-store" xmlns="http://www.w3.org/2000/svg"><path d="M73.5 12H53.6c-.7-.7-1.5-1.3-2.3-1.9-.5-.3-1.2-.2-1.5.3-.3.5-.2 1.2.3 1.5 4.9 3.4 7.7 8.9 7.7 14.8 0 9.9-8.1 18-17.9 18-9.9 0-17.9-8.1-17.9-18s8.1-18 17.9-18c2 0 3.9.3 5.7.9.6.2 1.2-.1 1.4-.7.2-.6-.1-1.2-.7-1.4-2.1-.7-4.2-1.1-6.4-1.1-11.1 0-20.1 9.1-20.1 20.2s9 20.2 20.1 20.2S60 37.8 60 26.7c0-4.6-1.6-9-4.3-12.5h17.8c1 0 1.8.8 1.8 1.8v34.7h-8.7c-.6 0-1.1.5-1.1 1.1s.5 1.1 1.1 1.1h8.7v5.8c0 1-.8 1.8-1.8 1.8h-67c-1 0-1.8-.8-1.8-1.8v-5.8h56.4c.6 0 1.1-.5 1.1-1.1s-.5-1.1-1.1-1.1H4.7V16c0-1 .8-1.8 1.8-1.8h13.1c.6 0 1.1-.5 1.1-1.1 0-.6-.5-1.1-1.1-1.1H6.5c-2.2 0-4 1.8-4 4v42.7c0 2.2 1.8 4 4 4h24.1v8.6h-3.3c-.6 0-1.1.5-1.1 1.1s.5 1.1 1.1 1.1h25.1c.6 0 1.1-.5 1.1-1.1s-.5-1.1-1.1-1.1h-3.3v-8.6h24.4c2.2 0 4-1.8 4-4V16c0-2.2-1.8-4-4-4zM46.9 71.3H32.8v-8.6h14.1v8.6z"/><path d="M32 17.9c-.2-1.2-1.3-2.1-2.6-2.1h-1.2c-.6 0-1.1.5-1.1 1.1 0 .6.5 1.1 1.1 1.1h1.2c.2 0 .4.1.4.4l3.3 17.3c.1.5.6.9 1.1.9h.8c-.3.4-.5.8-.5 1.4 0 1.1.9 2.1 2.1 2.1s2.1-.9 2.1-2.1c0-.5-.2-1-.5-1.4h4.5c-.3.4-.5.8-.5 1.4 0 1.1.9 2.1 2.1 2.1 1.1 0 2.1-.9 2.1-2.1 0-.5-.2-1-.5-1.4h1c.6 0 1.1-.5 1.1-1.1s-.5-1.1-1.1-1.1H35.1l-.4-2.4H47c.5 0 1-.4 1.1-.9l2-10.3c.1-.4 0-.8-.3-1.1-.3-.3-.6-.5-1-.5H32.3l-.3-1.3zm1.7 8.7h3l.2 3.1h-2.6l-.6-3.1zm7.8 0l-.2 3.1h-2.2l-.2-3.1h2.6zm-2.8-2.2l-.2-3.1h3.4l-.2 3.1h-3zm4.8 5.3l.2-3.1h2.9l-.6 3.1h-2.5zm3.5-5.3h-3.2l.2-3.1h3.5l-.5 3.1zm-10.7-3.1l.2 3.1h-3.3l-.6-3.1h3.7zM9.7 42.8h6.5c.6 0 1.1-.5 1.1-1.1 0-.6-.5-1.1-1.1-1.1H9.7c-.6 0-1.1.5-1.1 1.1 0 .6.4 1.1 1.1 1.1zm0 5h12.1c.6 0 1.1-.5 1.1-1.1 0-.6-.5-1.1-1.1-1.1H9.7c-.6 0-1.1.5-1.1 1.1 0 .6.4 1.1 1.1 1.1zm58-29.5c-.6 0-1.1.5-1.1 1.1v2.8h-2.7c-.6 0-1.1.5-1.1 1.1s.5 1.1 1.1 1.1h2.7v2.8c0 .6.5 1.1 1.1 1.1.6 0 1.1-.5 1.1-1.1v-2.8h2.7c.6 0 1.1-.5 1.1-1.1s-.5-1.1-1.1-1.1h-2.7v-2.8c0-.6-.5-1.1-1.1-1.1z"/></symbol><symbol viewBox="0 0 14 14" id="play" xmlns="http://www.w3.org/2000/svg"><path d="M12.8 5.8L5.4.8C5 .6 4.7.5 4.4.5c-.6 0-.9.4-.9 1.2v10.7c0 .7.3 1.2.9 1.2.3 0 .6-.1 1-.4l7.4-4.9c.5-.3.7-.7.7-1.2 0-.6-.3-1-.7-1.3z"/></symbol><symbol viewBox="0 0 36 36" id="question" xmlns="http://www.w3.org/2000/svg"><path d="M18 1C8.6 1 1 8.6 1 18s7.6 17 17 17 17-7.6 17-17S27.4 1 18 1zm0 26.9c-.8 0-1.4-.6-1.4-1.4s.6-1.4 1.4-1.4 1.4.6 1.4 1.4-.6 1.4-1.4 1.4zm2.2-9c-.5.2-.8.7-.8 1.3v.6c0 .8-.6 1.4-1.4 1.4s-1.4-.6-1.4-1.4v-.6c0-1.7 1-3.2 2.5-3.9 1.4-.7 2.5-2.4 2.5-3.3 0-2-1.6-3.5-3.5-3.5s-3.5 1.6-3.5 3.5c0 .8-.6 1.4-1.4 1.4s-1.4-.6-1.4-1.4c0-3.5 2.9-6.4 6.4-6.4s6.4 2.9 6.4 6.4c-.2 2-1.9 4.8-4.4 5.9z"/></symbol></svg>