<svg width="390" height="341" fill="none" xmlns="http://www.w3.org/2000/svg"><path d="M143.053 295.288c-8.928-28.793-16.739-41.471-35.71-56.512-11.829-9.454-29.683-14.826-49.1-14.826-6.026 0-11.83.645-17.186 1.504l-20.98 4.083 17.632-11.818c21.65-14.612 26.56-28.578 31.693-49.636 4.24-17.19-2.678-41.685-15.846-56.941l-4.687-5.372 7.142-1.504c18.078-3.868 37.271-8.81 54.457-18.265 20.533-11.818 27.898-42.115 28.121-42.33l5.133-21.057 3.794 21.272c3.571 20.198 10.713 31.372 24.774 38.248 6.249 3.008 13.391 4.727 20.533 4.727 10.713 0 20.756-3.223 28.791-9.455l8.704-6.66-1.562 10.743c-2.232 15.47 8.257 33.091 25.22 42.545 16.962 9.454 37.495 11.388 55.126 11.818l27.898.859-26.782 7.736c-20.087 5.802-36.825 21.917-42.851 41.256-5.803 19.338-.893 41.685 12.721 57.156l7.365 8.165-11.159-1.074c-10.936-1.075-20.087-1.719-28.568-1.719-15.399 0-28.567 1.719-40.396 5.372-24.774 7.52-47.538 16.33-55.796 41.685l-4.464 13.752-4.017-13.752z" fill="#FF774E"/><path d="M142.838 44.753c3.571 20.627 11.383 33.52 27.006 41.47 6.918 3.438 14.73 5.157 22.764 5.157 11.383 0 22.765-3.438 31.47-10.314-2.679 18.91 10.266 37.388 27.451 46.843 17.185 9.669 37.495 11.818 57.359 12.462-21.649 6.232-39.504 23.421-45.753 44.264-6.249 20.843-1.116 44.694 13.614 61.024-9.597-1.074-19.417-1.719-29.237-1.719-14.061 0-28.121 1.504-41.736 5.587-22.764 6.876-49.547 16.115-58.697 44.479-9.151-29.653-17.855-43.19-37.049-58.661-14.284-11.388-34.147-15.9-52.002-15.9a95.32 95.32 0 00-18.078 1.719c23.658-16.116 28.568-32.231 33.478-52.215 4.91-19.553-3.571-45.338-16.962-60.809 19.417-4.082 38.61-9.24 55.796-18.694 22.988-12.677 30.576-44.693 30.576-44.693zm1.339-44.05l-10.043 41.9c-.223.43-7.365 28.794-26.113 39.323-16.515 9.24-35.263 13.966-53.117 17.834l-14.508 3.008 9.597 10.959c12.499 14.396 18.971 37.173 14.954 53.289-4.91 19.983-9.374 33.305-29.907 47.057L0 237.924l41.959-8.165c4.91-1.075 10.713-1.505 16.292-1.505 18.301 0 35.263 5.157 46.199 13.967 18.078 14.397 25.667 26.645 34.148 54.363l8.481 27.504 8.704-27.289c7.365-23.421 29.237-31.801 52.672-38.892 11.382-3.438 24.104-5.157 39.057-5.157 8.481 0 17.408.43 28.121 1.504l22.542 2.364-14.73-16.546c-12.722-14.181-17.409-35.024-11.829-53.073 5.579-18.05 20.979-33.091 39.727-38.463l53.564-15.256-55.796-1.504c-17.185-.429-36.826-2.148-53.118-11.173-12.722-7.091-25.443-22.132-22.988-38.247l2.901-21.273-17.408 13.322c-7.142 5.372-16.293 8.38-25.89 8.38-6.695 0-12.944-1.504-18.524-4.297-12.498-6.232-18.971-16.33-22.318-35.24L144.177.705z" fill="#000"/><path d="M142.193 64.085c5.133 12.677 13.168 21.272 25.22 27.074 7.588 3.867 16.516 5.801 25.443 5.801 8.928 0 17.632-1.933 25.443-5.586 2.232 18.049 16.07 33.305 30.577 41.47 11.828 6.661 24.996 9.884 37.718 11.603-13.838 9.24-24.327 22.992-29.014 38.463-5.58 18.479-2.678 39.107 7.142 55.867-6.026-.43-11.383-.645-16.739-.645-16.516 0-30.577 1.934-43.521 5.802-17.409 5.371-42.182 12.892-56.02 34.165-8.034-21.273-17.185-33.521-34.147-47.058-13.614-10.958-33.924-17.19-55.573-17.19 12.498-12.892 16.962-26.644 20.98-43.404 4.24-17.62-.893-40.826-12.499-58.446 16.293-3.867 33.031-8.809 48.431-17.404 12.945-7.306 21.426-19.983 26.559-30.512zm.67-19.339s-7.812 32.231-30.353 44.909c-17.186 9.669-36.38 14.611-55.797 18.694 13.392 15.47 21.65 41.04 16.962 60.809-4.91 19.983-9.82 36.098-33.477 52.214a95.395 95.395 0 0118.078-1.719c17.854 0 37.718 4.512 52.002 15.901 19.194 15.47 27.898 29.008 37.048 58.66 9.151-28.578 35.933-37.603 58.698-44.479 13.391-4.082 27.452-5.586 41.736-5.586 9.82 0 19.417.644 29.237 1.719-14.73-16.546-20.087-40.182-13.614-61.025 6.249-20.842 24.104-38.032 45.752-44.263-19.863-.645-40.173-2.794-57.358-12.463-17.185-9.669-30.13-28.148-27.452-46.842-8.927 6.875-20.31 10.313-31.469 10.313-7.811 0-15.623-1.718-22.765-5.156-15.846-8.166-23.434-21.058-27.228-41.686z" fill="#FF774E"/><path opacity=".87" d="M233.22 156.703c-8.704-.214-17.408-1.289-24.996-5.371-7.365-4.083-13.168-12.248-12.052-20.413-6.473 4.942-16.07 6.016-23.658 2.148-6.919-3.438-10.266-9.024-11.829-18.049 0 0-3.347 13.967-13.168 19.554-7.365 4.082-15.846 6.446-24.327 8.165 5.803 6.661 9.374 17.834 7.365 26.429-2.231 8.81-4.24 15.686-14.507 22.777 8.928-1.719 22.096-.645 30.577 6.231 8.481 6.661 12.275 12.678 16.069 25.57 4.017-12.463 15.623-16.33 25.443-19.339 9.82-3.008 20.533-2.793 30.8-1.719-6.473-7.09-8.705-17.619-6.026-26.644 3.124-9.239 10.712-16.76 20.309-19.339z" fill="#fff"/><path d="M287.25 35.937l6.918 15.256 17.186-2.579-12.945 11.174 7.588 14.826-14.73-8.38-12.498 11.603 3.794-16.116-15.4-7.735 17.185-1.72 2.902-16.33zM64.051 273.161l.447 13.752 14.06 3.223-13.39 4.727 1.115 13.752-8.927-10.744-13.168 5.372 8.034-11.388-9.373-10.529 13.837 3.653 7.365-11.818zM91.734 71.185A941.744 941.744 0 0142.41 18.54c-2.455-2.794-2.232-7.091.893-9.67 3.124-2.578 7.588-2.148 10.043.86.223.215.447.644.67.86 12.275 20.197 25.443 39.966 39.28 59.304.223.43.223 1.075-.223 1.29-.446.43-.893.43-1.339 0zm111.817 210.581c5.803 16.545 11.383 33.091 16.293 50.281 1.116 3.652-1.116 7.52-4.91 8.38-3.794 1.074-7.812-1.075-8.704-4.728-.224-.429-.224-1.074-.224-1.504-.669-17.19-2.231-34.594-4.24-51.999 0-.43.446-1.074.893-1.074.223 0 .669.214.892.644zM311.39 183.99c11.606-2.148 23.435-4.297 35.04-6.231 11.829-1.934 23.435-3.868 35.487-5.587 4.017-.429 7.588 2.149 8.034 5.802.447 3.868-2.232 7.306-6.026 7.735h-1.116c-11.605-.429-23.434-.429-35.486-.429-11.829 0-23.658.214-35.486.429-.447 0-1.116-.429-1.116-.859s.223-.86.669-.86zM71.19 75.473C49.764 63.87 28.785 51.623 8.252 38.515c-3.348-2.149-4.24-6.446-2.009-9.454 2.232-3.224 6.696-4.083 9.82-1.934.224.215.67.43.893.644 17.855 15.9 36.156 31.372 55.127 46.198.446.43.446.86.223 1.29-.223.214-.67.429-1.116.214z" fill="#000"/></svg>