<svg width="170" height="130" fill="none" xmlns="http://www.w3.org/2000/svg"><path d="M57.901 45.336L47.02 0l30.898 42.93L57.9 45.337zm-7.928 13.468c-1.746 0-32.241-1.443-32.241-1.443l23.912 14.551 8.329-13.108zm7.121 37.397l-3.896 18.279 20.957-16.595-17.06-1.684zm47.557-43.407l39.764-29.943-18.136 22.487 14.106-1.924-15.852 18.52-19.882-9.14zm-7.388 40.408L128.832 130l-3.761-42.33-27.808 5.532z" fill="#F85"/><path d="M46.077 42.083c-5.642 5.532-7.254 14.07-3.896 20.924C31.837 65.292 23.374 73.35 21.36 82.73c-1.478 6.734.671 14.43 6.448 18.88 4.97 3.848 12.09 4.93 18.673 4.209 6.583-.722 12.762-3.007 18.807-5.292.672 8.298 10.882 14.19 20.151 13.349 9.27-.842 17.061-6.614 22.569-13.349 0 0 13.971-.721 21.36-6.974 8.463-7.095 12.493-16.475 11.016-26.937-1.478-10.342-13.703-19.361-24.853-15.994.672-7.336 1.209-15.393-3.627-21.405-4.836-5.893-13.971-7.937-21.897-6.254-9.001 1.925-17.464 8.418-20.554 12.026.269 0-16.12.24-23.375 7.095z" fill="#fff"/><path d="M44.736 40.525c-6.045 6.012-7.388 14.79-3.895 22.247.134-.481.134-.842.268-1.323-11.822 2.766-21.09 12.506-21.628 23.57-.269 5.651 1.88 11.424 6.045 15.753 4.299 4.449 10.478 6.734 16.927 6.975 8.597.36 16.658-2.646 24.315-5.532-.94-.962-1.88-1.804-2.956-2.766.806 9.38 11.285 16.475 21.36 16.234 5.643-.12 11.15-2.405 15.584-5.411 2.283-1.563 4.433-3.487 6.448-5.532.403-.481.94-.962 1.343-1.443.135-.24.538-.962.672-1.082.134-.12.672 0 .94-.12 3.627-.361 7.255-1.083 10.747-2.045 5.105-1.563 9.27-3.968 12.897-7.696 7.12-7.456 10.747-18.399 7.389-28.02-3.359-9.5-14.912-18.88-26.599-15.512.94.962 1.746 1.924 2.686 2.886.672-7.335 1.075-15.272-3.493-21.766-4.164-5.892-11.284-9.26-18.941-9.26-7.926-.12-15.45 3.608-21.36 8.058-1.21.962-2.553 1.924-3.627 3.006-.538.48-1.075 1.323-1.612 1.563-.403.12-1.21 0-1.612.12-1.075.12-2.15.12-3.224.241-6.449.721-13.972 2.405-18.674 6.855-.94.962 1.881 3.968 2.687 3.246 4.03-3.727 9.941-5.411 15.45-6.253a54.058 54.058 0 016.179-.721c.403 0 1.074 0 1.477-.12.672-.12 1.075-.722 1.478-1.203 4.702-4.69 11.016-8.658 17.733-10.462 6.448-1.804 14.374-1.203 19.613 2.765 6.717 5.051 5.508 14.672 4.836 21.646-.134.722 1.478 3.127 2.687 2.886 8.867-2.525 18.539 2.646 21.36 10.342 1.612 4.21 1.344 9.14.269 13.348-1.075 4.45-3.359 8.659-6.583 12.266-2.955 3.367-6.448 5.893-10.881 7.576-3.493 1.323-7.389 2.165-11.15 2.646-.941.12-1.881.12-2.687.24-.403.12-.403.12-.806.482-.941.962-1.747 1.924-2.687 2.886-3.358 3.367-7.389 6.373-12.09 8.297-5.105 2.045-10.747 2.526-15.987.722-4.567-1.564-8.463-4.81-8.866-9.38-.134-.962-1.478-3.247-2.956-2.766-6.313 2.405-12.762 4.81-19.613 5.291-5.642.481-12.09-.361-16.524-3.848-4.164-3.247-5.508-8.418-5.373-13.228.268-4.93 2.418-9.62 5.776-13.468a27.86 27.86 0 0115.046-8.9c.672-.12.403-.84.269-1.322-3.09-6.494-1.343-14.43 3.896-19.722 1.209-.962-1.747-3.968-2.553-3.246z" fill="#232323"/><path d="M116.069 44.851c.806 1.203 1.075 2.525 1.343 3.848a18.323 18.323 0 010 3.848c-.134 1.323-.537 2.526-1.074 3.728-.538 1.203-1.344 2.405-2.418 3.367-.269-1.443-.403-2.645-.403-3.968 0-1.203.134-2.405.268-3.728a17.46 17.46 0 01.806-3.607c.269-1.083.672-2.285 1.478-3.488zm-3.629 47.866c0 1.443-.269 2.766-.806 3.968a18.517 18.517 0 01-2.015 3.488 15.173 15.173 0 01-2.821 2.886c-1.075.841-2.418 1.563-3.896 2.044.403-1.443 1.075-2.525 1.612-3.608.672-1.082 1.343-2.164 2.149-3.126.806-.962 1.612-2.045 2.553-2.886a13.594 13.594 0 013.224-2.766zM74.69 30.785c-.536 1.323-1.342 2.405-2.014 3.488-.806 1.082-1.612 2.044-2.418 3.006-.806.962-1.747 1.804-2.821 2.766-1.075.841-2.15 1.683-3.493 2.405.134-1.443.537-2.646 1.209-3.848.672-1.203 1.343-2.285 2.284-3.247.94-.962 2.015-1.924 3.224-2.646 1.209-.962 2.552-1.563 4.03-1.924zm-6.178 76.48c-1.478-.721-2.418-1.924-3.224-3.126-.806-1.203-1.209-2.526-1.478-3.969a10.468 10.468 0 010-4.088c.27-1.323.672-2.766 1.612-3.969.672 1.323.94 2.646 1.344 3.848.268 1.203.537 2.406.806 3.728.269 1.203.403 2.405.672 3.608-.135 1.323.134 2.525.268 3.968zm2.014-50.385c-2.149.36-3.761 1.443-5.105 2.646-1.343 1.202-2.283 2.766-2.82 4.329-.672 1.563-.807 3.247-.807 4.93 0 1.684.27 3.488.538 5.291l.671 3.368-2.686-1.924c-.672-.481-1.881-.842-3.09-.602-1.21.12-2.418.722-3.359 1.804.135-1.323 1.344-2.525 2.687-3.247.806-.36 1.612-.48 2.418-.601.94 0 1.747.12 2.687.481l-2.015 1.443a17.458 17.458 0 01-1.478-5.892 12.287 12.287 0 011.21-6.133c.94-1.925 2.552-3.728 4.567-4.81 1.88-1.203 4.433-1.804 6.582-1.083zm23.24 22.486c0 .722.538 1.082 1.075 1.443.537.36 1.075.722 1.747.962 1.209.481 2.418.842 3.761.962 2.552.36 5.374.12 7.926-.24 2.552-.361 5.105-1.083 7.12-2.405 2.015-1.323 3.761-3.247 4.97-5.773.269 2.646-.94 5.532-3.089 7.576-2.15 2.165-5.374 3.367-8.464 3.728-3.089.361-6.179.361-9.27-.48-1.477-.482-2.954-1.203-4.03-2.165a9.308 9.308 0 01-1.477-1.684c-.403-.48-.672-1.323-.269-1.924z" fill="#232323"/><path d="M10.344 15.393l5.642 7.936 9.941-2.645-6.717 7.095 6.046 7.696-9.807-3.367-6.314 7.336.672-9.26L0 27.057l10.075-2.285.27-9.38z" fill="#F85"/><path d="M141.057 93.797c8.598 6.013 17.196 12.146 25.39 18.64 1.747 1.443 2.015 3.848.403 5.411-1.612 1.564-4.299 1.804-6.045.361l-.672-.601c-6.314-7.817-13.031-15.513-19.882-23.09-.268-.24-.134-.6.135-.72.134-.121.403-.121.671 0zm7.79-5.289l17.464 2.766c2.418.36 4.03 2.405 3.627 4.57-.403 2.164-2.687 3.608-5.105 3.247a4.783 4.783 0 01-1.612-.602h-.134l-14.643-8.778c-.269-.12-.403-.481-.134-.722 0-.36.268-.48.537-.48z" fill="#232323"/></svg>