<svg width="126" height="110" fill="none" xmlns="http://www.w3.org/2000/svg"><path d="M53.25 69.276l-12.273 8.986 1.25-15.435L6.88 64.204l9.847-5.072c7.716-3.986 16.46-8.623 20.208-10.87-2.572-3.695-7.569-11.449-11.537-17.608l-4.335-6.884 23.883 10.652-1.103-13.985 11.17 10L68.902 8.044l2.94 26.087 12.86-8.333-2.058 16.884 36.669 10.724-31.892 6.884 7.789 22.101L75.075 71.16l-11.832 33.985-9.994-35.87z" fill="#F85"/><path d="M67.872 12.393l2.719 24.202 12.272-7.97-1.837 14.999 32.334 9.42-27.925 6.015 7.055 20L74.192 68.84 63.316 100 54.13 66.812l-11.39 8.333 1.102-13.913-30.423 1.232 3.968-2.029c9.112-4.637 19.106-10.072 21.605-11.739-2.058-2.753-7.716-11.449-12.346-18.767l-1.764-2.754 21.679 9.71-1.029-12.826 9.847 8.623 12.493-20.29zm1.984-8.768l-4.483 7.246-10.729 17.318-7.201-6.304-5.512-4.782.588 7.173.588 7.899-17.049-7.609-8.965-3.985 5.218 8.188 1.763 2.754c4.85 7.608 8.451 13.115 10.656 16.376-3.822 2.247-11.023 6.087-18.74 10l-3.968 2.03L.265 65.941l13.3-.58 27.044-1.086-.882 10.58-.515 6.376 5.218-3.84 7.936-5.797 8.084 29.275 2.498 9.13 3.16-8.986 9.7-27.898 15.212 8.478 6.834 3.841-2.572-7.319-5.952-16.884 24.691-5.362 11.244-2.464-11.023-3.188-29.983-8.768 1.544-12.536.734-6.232-5.29 3.478-8.231 5.435-2.205-19.492-.955-8.478z" fill="#232323"/><path d="M67.213 15.364l2.572 22.97 11.832-7.68-1.69 13.767 29.467 8.623-25.279 5.435 6.54 18.623-16.975-9.493-10.215 29.275-8.744-31.738-10.803 7.898 1.029-12.826-27.117 1.087s23.296-11.956 22.414-12.536c-.882-.58-12.86-19.348-12.86-19.348l20.209 8.986-.956-12.101 8.892 7.826 11.684-18.768zm1.323-5.87l-3.013 4.855L55.088 31.16l-7.128-6.304-3.674-3.188.367 4.782.661 8.84-17.048-7.68-5.953-2.681 3.527 5.507c0 .072 3.014 4.782 6.1 9.492 3.013 4.638 4.703 7.174 5.732 8.551-3.307 2.03-12.346 6.884-20.65 11.16L9.16 63.695l8.745-.434 24.838-1.015-.881 10.652-.368 4.275 3.454-2.536 8.524-6.232 8.01 28.985 1.69 6.087 2.058-5.942 9.48-27.1 14.99 8.333 4.556 2.536-1.69-4.855-5.805-16.522 23.074-5 7.496-1.594-7.349-2.174-27.851-8.116 1.47-12.1.514-4.131-3.527 2.319-9.112 5.942-2.279-19.855-.661-5.725z" fill="#F85"/><path opacity=".87" d="M59.863 58.405l-4.188 3.043.44-5.072-11.096.434 1.47-.724c3.307-1.667 6.98-3.696 7.863-4.276-.735-1.014-2.793-4.202-4.483-6.884l-.661-1.014 7.936 3.55-.44-4.71 3.6 3.189 4.556-7.391 1.03 8.84 4.482-2.898-.735 5.507 11.831 3.478-10.214 2.174 2.572 7.319-6.688-3.696-3.968 11.377-3.307-12.246z" fill="#fff"/><path d="M112.479 68.983l2.719 3.768 4.483-1.594-2.866 3.768 2.94 3.696-4.483-1.522-2.646 3.84.074-4.637-4.556-1.305 4.482-1.376-.147-4.638zM48.768 0l.955 4.565 4.703.29-4.115 2.319 1.176 4.492-3.527-3.115-3.968 2.463 1.91-4.202-3.6-2.971 4.702.507L48.768 0zm-24.62 80.94l-.147 6.667 6.393 1.957-6.466 1.884.147 6.594-3.822-5.435-6.393 2.174 4.115-5.29-4.041-5.29 6.32 2.174 3.894-5.435z" fill="#232323"/></svg>