<svg version="1.1" id="Слой_1" xmlns="http://www.w3.org/2000/svg" x="0" y="0" viewBox="0 0 30 20" xml:space="preserve"><radialGradient id="SVGID_1_" cx="-226.881" cy="220.236" r=".953" gradientTransform="matrix(10.3333 -5.9044 -2.1113 -3.6951 2824.773 -514.018)" gradientUnits="userSpaceOnUse"><stop offset=".006" stop-color="#69f774"/><stop offset="1" stop-color="#1cff32"/></radialGradient><path d="M14.5 19.4c-.8-.4-3.5-1.8-6.6-5.5-1.6-1.9-3.5-3.7-5.7-5.4-.5-.3-.9-.6-1.2-.7-.1-.1-.3-.2-.4-.3.1-.1.3-.2.7-.4 1.4-.8 2.2-1.7 2.9-2.5.3-.4.7-.8 1-1.1.1-.1.2-.2.3-.2.3 0 .7.5.8.8v.1l.1.1c1.1.9 6.6 5.6 8.3 5.7 1.8 0 4.1-3.1 4.6-3.8 2.5-2.6 5.4-5.5 6-5.7.1.1.7.8 1 1.5.1.2 2.1 2.7 3.1 3.5.1.2-.5.9-1.2 1.4-.1.1-3.4 2.6-6.2 6.4-1.3 1.9-6.4 5.4-7.5 6.1z" fill="url(#SVGID_1_)"/><path d="M25.2 1.1c.2.2.5.7.7 1v.1l.1.1c.2.2 1.8 2.3 2.9 3.2-.2.2-.6.6-1 .9-.1.1-3.5 2.7-6.3 6.6-1.1 1.5-5.2 4.5-7.1 5.8-1-.5-3.4-1.9-6.2-5.2-1.6-2-3.5-3.8-5.8-5.5-.4-.3-.7-.5-1-.6 1.4-.9 2.3-1.8 3-2.6.3-.4.6-.7 1-1 .1.1.3.3.3.5l.2.1.2.1c2 1.7 6.9 5.7 8.6 5.8h.1c1.9 0 4.2-2.9 4.9-3.9 2-2.1 4.5-4.6 5.4-5.4m0-1.1c-.8.1-6.3 5.9-6.3 5.9s-2.5 3.6-4.1 3.6h-.1c-1.6-.1-8-5.6-8-5.6s-.4-1.1-1.2-1.1c-.2 0-.4.1-.7.3C3.8 4 3 5.4 1 6.6c-2 1.2-.5 1.2.9 2.2 1.5 1.2 3.7 3 5.7 5.4 3.8 4.6 7.1 5.7 7.1 5.7s6.3-4.2 7.9-6.4c2.7-3.8 6.1-6.4 6.1-6.4s2.2-1.5 1.2-2.2c-.9-.7-3-3.3-3-3.3S25.9 0 25.2 0z"/></svg>